<?xml version="1.0" encoding="utf-8"?>
<!-- Generator: Adobe Illustrator 26.0.3, SVG Export Plug-In . SVG Version: 6.00 Build 0)  -->
<svg version="1.1" id="Layer_1" xmlns="http://www.w3.org/2000/svg" xmlns:xlink="http://www.w3.org/1999/xlink" x="0px" y="0px"
	 viewBox="0 0 1033.6 1012.6" style="enable-background:new 0 0 1033.6 1012.6;" xml:space="preserve">
<style type="text/css">
	.st0{opacity:0.997;}
	.st1{fill:#ABE0E5;}
	.st2{fill:#FFFFFF;}
	.st3{fill:#F2F2F2;}
	.st4{fill:#CCCBCA;}
	.st5{fill:#353F49;}
	.st6{fill:#656A73;}
	.st7{clip-path:url(#SVGID_00000022542071671543287920000002685078488489816733_);}
	.st8{fill:#D9D8D7;}
	.st9{fill:none;}
	.st10{fill:#232E38;}
	.st11{fill:#474F59;}
	.st12{fill:#F68360;}
	.st13{fill:#ED6D47;}
	.st14{fill:#FF9978;}
	.st15{clip-path:url(#SVGID_00000119088702052576441720000002535852694348390019_);}
	.st16{fill:#E6E5E5;}
	.st17{fill:#91D3D9;}
	.st18{fill:#FFFFFF;stroke:#FFFFFF;stroke-miterlimit:10;}
	.st19{font-family:'MyriadPro-Regular';}
	.st20{font-size:33.5803px;}
	.st21{stroke:#000000;stroke-miterlimit:10;}
	.st22{font-size:27.9836px;}
</style>
<g id="Illustration" transform="translate(-564.666 273.258)" class="st0">
	<path id="Path_110" class="st1" d="M705.8,226.5l769.3-510.3l59.2,592.2L985.8,669.8l-176.3-60.3L705.8,226.5z"/>
	
		<ellipse id="Ellipse_29" transform="matrix(0.9962 -8.701806e-02 8.701806e-02 0.9962 -35.5647 75.6619)" class="st1" cx="850.1" cy="445.8" rx="264.9" ry="260.9"/>
	<circle id="Ellipse_30" class="st2" cx="1056.3" cy="108" r="2.5"/>
	<circle id="Ellipse_31" class="st2" cx="1111.3" cy="148" r="0.5"/>
	<circle id="Ellipse_32" class="st2" cx="1111.3" cy="148" r="0.5"/>
	<circle id="Ellipse_33" class="st2" cx="1021.3" cy="168" r="0.5"/>
	<circle id="Ellipse_34" class="st2" cx="951.3" cy="138" r="0.5"/>
	<circle id="Ellipse_35" class="st2" cx="1252.3" cy="98" r="0.5"/>
	<circle id="Ellipse_36" class="st2" cx="1322.3" cy="189" r="0.5"/>
	<circle id="Ellipse_37" class="st2" cx="1192.3" cy="99" r="0.5"/>
	<circle id="Ellipse_39" class="st2" cx="882.3" cy="170" r="0.5"/>
	<circle id="Ellipse_40" class="st2" cx="652.3" cy="350" r="0.5"/>
	<circle id="Ellipse_41" class="st2" cx="962.3" cy="200" r="0.5"/>
	<circle id="Ellipse_42" class="st2" cx="1282.3" cy="310" r="0.5"/>
	<circle id="Ellipse_43" class="st2" cx="1312.3" cy="60" r="0.5"/>
	<circle id="Ellipse_44" class="st2" cx="1318.3" cy="20" r="2.5"/>
	<circle id="Ellipse_45" class="st2" cx="1217.3" cy="199" r="1.5"/>
	<circle id="Ellipse_46" class="st2" cx="1280.3" cy="369" r="1.5"/>
	<circle id="Ellipse_38" class="st2" cx="1102.3" cy="9" r="0.5"/>
</g>
<g>
	<rect x="358.8" y="478.9" class="st3" width="196.5" height="135.9"/>
	<g>
		<g>
			<g>
				<rect x="482.8" y="527.8" class="st4" width="2.2" height="9.5"/>
				<rect x="497.4" y="550.5" class="st4" width="13.4" height="2.2"/>
				<rect x="523.1" y="565.9" class="st4" width="2.2" height="9.5"/>
				<rect x="482.8" y="565.9" class="st4" width="2.2" height="9.5"/>
				<rect x="428.7" y="527.8" class="st4" width="2.2" height="9.5"/>
				<rect x="402.3" y="508.8" class="st4" width="2.2" height="9.5"/>
				<rect x="428.7" y="556.4" class="st4" width="2.2" height="9.5"/>
				<rect x="403.4" y="579.1" class="st4" width="13" height="2.2"/>
			</g>
		</g>
		<g>
			<rect x="390" y="518.3" class="st4" width="134.2" height="9.5"/>
			<rect x="500.7" y="521.9" class="st2" width="20.1" height="2.2"/>
			<rect x="470.5" y="518.3" class="st5" width="26.8" height="9.5"/>
			<rect x="473.9" y="521.9" class="st4" width="20.1" height="2.2"/>
			<rect x="447" y="521.9" class="st2" width="20.1" height="2.2"/>
			<rect x="420.2" y="521.9" class="st2" width="20.1" height="2.2"/>
			<rect x="393.3" y="521.9" class="st2" width="20.1" height="2.2"/>
		</g>
		<rect x="470.5" y="537.3" class="st4" width="26.8" height="28.6"/>
		<rect x="416.4" y="537.3" class="st4" width="26.8" height="19"/>
		<rect x="376.5" y="575.4" class="st4" width="26.8" height="9.5"/>
		<rect x="510.8" y="575.4" class="st4" width="26.8" height="19"/>
		<rect x="510.8" y="537.3" class="st5" width="26.8" height="28.6"/>
		<rect x="470.5" y="575.4" class="st4" width="26.8" height="9.5"/>
		<rect x="390" y="499.2" class="st5" width="26.8" height="9.5"/>
		<rect x="416.4" y="565.9" class="st5" width="26.8" height="28.6"/>
		<rect x="393.3" y="502.9" class="st6" width="20.1" height="2.2"/>
		<rect x="379.9" y="579.1" class="st2" width="20.1" height="2.2"/>
		<g>
			<g>
				<rect x="419.8" y="541" class="st2" width="20.1" height="2.2"/>
				<rect x="425" y="550.5" class="st2" width="9.7" height="2.2"/>
			</g>
		</g>
		<g>
			<g>
				<rect x="514.1" y="579.1" class="st2" width="20.1" height="2.2"/>
				<rect x="514.1" y="588.6" class="st2" width="11.9" height="2.2"/>
			</g>
		</g>
		<g>
			<g>
				<rect x="419.8" y="569.6" class="st6" width="20.1" height="2.2"/>
				<rect x="428.7" y="579.1" class="st6" width="11.2" height="2.2"/>
				<rect x="419.8" y="579.1" class="st6" width="5.6" height="2.2"/>
				<rect x="429.2" y="588.6" class="st6" width="5.1" height="2.2"/>
				<rect x="419.8" y="588.6" class="st6" width="7.9" height="2.2"/>
			</g>
		</g>
		<rect x="473.9" y="579.1" class="st2" width="20.1" height="2.2"/>
		<g>
			<g>
				<rect x="483.9" y="541" class="st2" width="10.1" height="2.2"/>
				<rect x="473.9" y="541" class="st2" width="7" height="2.2"/>
				<rect x="473.9" y="550.5" class="st2" width="20.1" height="2.2"/>
				<rect x="473.9" y="560" class="st2" width="14.2" height="2.2"/>
			</g>
		</g>
		<g>
			<g>
				<rect x="514.1" y="541" class="st6" width="20.1" height="2.2"/>
				<rect x="514.1" y="550.5" class="st6" width="12.3" height="2.2"/>
				<rect x="529" y="550.5" class="st6" width="5.3" height="2.2"/>
				<rect x="514.1" y="560" class="st6" width="8.9" height="2.2"/>
			</g>
		</g>
	</g>
</g>
<g>
	<g>
		<defs>
			<ellipse id="SVGID_1_" cx="328.1" cy="689.2" rx="247.9" ry="242.5"/>
		</defs>
		<use xlink:href="#SVGID_1_"  style="overflow:visible;fill:#ABE0E5;"/>
		<clipPath id="SVGID_00000124852655857524320650000007397200336922710164_">
			<use xlink:href="#SVGID_1_"  style="overflow:visible;"/>
		</clipPath>
		<g style="clip-path:url(#SVGID_00000124852655857524320650000007397200336922710164_);">
			<rect x="359.9" y="479.4" class="st3" width="196.5" height="135.9"/>
			<g>
				<g>
					<g>
						<rect x="483.9" y="528.3" class="st4" width="2.2" height="9.5"/>
						<rect x="498.4" y="551" class="st4" width="13.4" height="2.2"/>
						<rect x="524.1" y="566.3" class="st4" width="2.2" height="9.5"/>
						<rect x="483.9" y="566.3" class="st4" width="2.2" height="9.5"/>
						<rect x="429.8" y="528.3" class="st4" width="2.2" height="9.5"/>
						<rect x="403.3" y="509.2" class="st4" width="2.2" height="9.5"/>
						<rect x="429.8" y="556.8" class="st4" width="2.2" height="9.5"/>
						<rect x="404.4" y="579.5" class="st4" width="13" height="2.2"/>
					</g>
				</g>
				<g>
					<rect x="391" y="518.7" class="st4" width="134.2" height="9.5"/>
					<rect x="501.8" y="522.4" class="st2" width="20.1" height="2.2"/>
					<rect x="471.6" y="518.7" class="st5" width="26.8" height="9.5"/>
					<rect x="474.9" y="522.4" class="st4" width="20.1" height="2.2"/>
					<rect x="448.1" y="522.4" class="st2" width="20.1" height="2.2"/>
					<rect x="421.2" y="522.4" class="st2" width="20.1" height="2.2"/>
					<rect x="394.4" y="522.4" class="st2" width="20.1" height="2.2"/>
				</g>
				<rect x="471.6" y="537.8" class="st4" width="26.8" height="28.6"/>
				<rect x="417.5" y="537.8" class="st4" width="26.8" height="19"/>
				<rect x="377.6" y="575.9" class="st4" width="26.8" height="9.5"/>
				<rect x="511.8" y="575.9" class="st4" width="26.8" height="19"/>
				<rect x="511.8" y="537.8" class="st5" width="26.8" height="28.6"/>
				<rect x="471.6" y="575.9" class="st4" width="26.8" height="9.5"/>
				<rect x="391" y="499.7" class="st5" width="26.8" height="9.5"/>
				<rect x="417.5" y="566.3" class="st5" width="26.8" height="28.6"/>
				<rect x="394.4" y="503.4" class="st6" width="20.1" height="2.2"/>
				<rect x="380.9" y="579.5" class="st2" width="20.1" height="2.2"/>
				<g>
					<g>
						<rect x="420.8" y="541.4" class="st2" width="20.1" height="2.2"/>
						<rect x="426" y="551" class="st2" width="9.7" height="2.2"/>
					</g>
				</g>
				<g>
					<g>
						<rect x="515.2" y="579.5" class="st2" width="20.1" height="2.2"/>
						<rect x="515.2" y="589.1" class="st2" width="11.9" height="2.2"/>
					</g>
				</g>
				<g>
					<g>
						<rect x="420.8" y="570" class="st6" width="20.1" height="2.2"/>
						<rect x="429.8" y="579.5" class="st6" width="11.2" height="2.2"/>
						<rect x="420.8" y="579.5" class="st6" width="5.6" height="2.2"/>
						<rect x="430.2" y="589.1" class="st6" width="5.1" height="2.2"/>
						<rect x="420.8" y="589.1" class="st6" width="7.9" height="2.2"/>
					</g>
				</g>
				<rect x="474.9" y="579.5" class="st2" width="20.1" height="2.2"/>
				<g>
					<g>
						<rect x="485" y="541.4" class="st2" width="10.1" height="2.2"/>
						<rect x="474.9" y="541.4" class="st2" width="7" height="2.2"/>
						<rect x="474.9" y="551" class="st2" width="20.1" height="2.2"/>
						<rect x="474.9" y="560.5" class="st2" width="14.2" height="2.2"/>
					</g>
				</g>
				<g>
					<g>
						<rect x="515.2" y="541.4" class="st6" width="20.1" height="2.2"/>
						<rect x="515.2" y="551" class="st6" width="12.3" height="2.2"/>
						<rect x="530.1" y="551" class="st6" width="5.3" height="2.2"/>
						<rect x="515.2" y="560.5" class="st6" width="8.9" height="2.2"/>
					</g>
				</g>
			</g>
		</g>
	</g>
	<g>
		<g>
			<g>
				<path class="st8" d="M94.9,702.7V862c0,3.5,1.4,7.1,4.1,9.8c2.8,2.7,6.4,4.1,10,4.1h273.4c3.6,0,7.3-1.4,10-4.1
					c2.8-2.7,4.1-6.2,4.1-9.8V702.7H94.9z"/>
				<path class="st2" d="M283.2,863.9c0,0.6-0.5,1.1-1.1,1.1h-72.7c-0.6,0-1.1-0.5-1.1-1.1v-42.2c0-0.6,0.5-1.1,1.1-1.1h72.7
					c0.6,0,1.1,0.5,1.1,1.1V863.9z"/>
				<g>
					<path class="st2" d="M128.1,734c0,0.5-0.4,0.9-0.9,0.9h-13.5c-0.5,0-0.9-0.4-0.9-0.9v-13.2c0-0.5,0.4-0.9,0.9-0.9h13.5
						c0.5,0,0.9,0.4,0.9,0.9V734z"/>
					<path class="st2" d="M156,752.1c0,0.5-0.4,0.9-0.9,0.9h-13.5c-0.5,0-0.9-0.4-0.9-0.9v-13.2c0-0.5,0.4-0.9,0.9-0.9h13.5
						c0.5,0,0.9,0.4,0.9,0.9V752.1z"/>
					<path class="st2" d="M160.4,770.3c0,0.5-0.4,0.9-0.9,0.9H146c-0.5,0-0.9-0.4-0.9-0.9v-13.2c0-0.5,0.4-0.9,0.9-0.9h13.5
						c0.5,0,0.9,0.4,0.9,0.9V770.3z"/>
					<path class="st2" d="M151.3,788.4c0,0.5-0.4,0.9-0.9,0.9h-13.5c-0.5,0-0.9-0.4-0.9-0.9v-13.2c0-0.5,0.4-0.9,0.9-0.9h13.5
						c0.5,0,0.9,0.4,0.9,0.9V788.4z"/>
					<path class="st2" d="M128.1,808.8c0,0.5-0.4,0.9-0.9,0.9h-13.5c-0.5,0-0.9-0.4-0.9-0.9v-15.5c0-0.5,0.4-0.9,0.9-0.9h13.5
						c0.5,0,0.9,0.4,0.9,0.9V808.8z"/>
					<path class="st2" d="M146.6,808.8c0,0.5-0.4,0.9-0.9,0.9h-13.5c-0.5,0-0.9-0.4-0.9-0.9v-15.5c0-0.5,0.4-0.9,0.9-0.9h13.5
						c0.5,0,0.9,0.4,0.9,0.9V808.8z"/>
					<path class="st2" d="M165.1,808.8c0,0.5-0.4,0.9-0.9,0.9h-13.5c-0.5,0-0.9-0.4-0.9-0.9v-15.5c0-0.5,0.4-0.9,0.9-0.9h13.5
						c0.5,0,0.9,0.4,0.9,0.9V808.8z"/>
					<path class="st2" d="M323,808.8c0,0.5-0.4,0.9-0.9,0.9h-13.5c-0.5,0-0.9-0.4-0.9-0.9v-15.5c0-0.5,0.4-0.9,0.9-0.9h13.5
						c0.5,0,0.9,0.4,0.9,0.9V808.8z"/>
					<path class="st2" d="M341.6,808.8c0,0.5-0.4,0.9-0.9,0.9h-13.5c-0.5,0-0.9-0.4-0.9-0.9V802c0-0.5,0.4-0.9,0.9-0.9h13.5
						c0.5,0,0.9,0.4,0.9,0.9V808.8z"/>
					<path class="st2" d="M378.6,808.8c0,0.5-0.4,0.9-0.9,0.9h-13.5c-0.5,0-0.9-0.4-0.9-0.9V802c0-0.5,0.4-0.9,0.9-0.9h13.5
						c0.5,0,0.9,0.4,0.9,0.9V808.8z"/>
					<path class="st2" d="M188.4,808.8c0,0.5-0.4,0.9-0.9,0.9h-18.3c-0.5,0-0.9-0.4-0.9-0.9v-15.5c0-0.5,0.4-0.9,0.9-0.9h18.3
						c0.5,0,0.9,0.4,0.9,0.9V808.8z"/>
					<path class="st2" d="M304.5,808.8c0,0.5-0.4,0.9-0.9,0.9h-18.3c-0.5,0-0.9-0.4-0.9-0.9v-15.5c0-0.5,0.4-0.9,0.9-0.9h18.3
						c0.5,0,0.9,0.4,0.9,0.9V808.8z"/>
					<path class="st2" d="M281.1,808.8c0,0.5-0.4,0.9-0.9,0.9h-87.6c-0.5,0-0.9-0.4-0.9-0.9v-15.5c0-0.5,0.4-0.9,0.9-0.9h87.6
						c0.5,0,0.9,0.4,0.9,0.9V808.8z"/>
					<path class="st2" d="M169.8,788.4c0,0.5-0.4,0.9-0.9,0.9h-13.5c-0.5,0-0.9-0.4-0.9-0.9v-13.2c0-0.5,0.4-0.9,0.9-0.9H169
						c0.5,0,0.9,0.4,0.9,0.9V788.4z"/>
					<path class="st2" d="M188.4,788.4c0,0.5-0.4,0.9-0.9,0.9H174c-0.5,0-0.9-0.4-0.9-0.9v-13.2c0-0.5,0.4-0.9,0.9-0.9h13.5
						c0.5,0,0.9,0.4,0.9,0.9V788.4z"/>
					<path class="st2" d="M206.9,788.4c0,0.5-0.4,0.9-0.9,0.9h-13.5c-0.5,0-0.9-0.4-0.9-0.9v-13.2c0-0.5,0.4-0.9,0.9-0.9H206
						c0.5,0,0.9,0.4,0.9,0.9V788.4z"/>
					<path class="st2" d="M225.5,788.4c0,0.5-0.4,0.9-0.9,0.9h-13.5c-0.5,0-0.9-0.4-0.9-0.9v-13.2c0-0.5,0.4-0.9,0.9-0.9h13.5
						c0.5,0,0.9,0.4,0.9,0.9V788.4z"/>
					<path class="st2" d="M244,788.4c0,0.5-0.4,0.9-0.9,0.9h-13.5c-0.5,0-0.9-0.4-0.9-0.9v-13.2c0-0.5,0.4-0.9,0.9-0.9h13.5
						c0.5,0,0.9,0.4,0.9,0.9V788.4z"/>
					<path class="st2" d="M262.5,788.4c0,0.5-0.4,0.9-0.9,0.9h-13.5c-0.5,0-0.9-0.4-0.9-0.9v-13.2c0-0.5,0.4-0.9,0.9-0.9h13.5
						c0.5,0,0.9,0.4,0.9,0.9V788.4z"/>
					<path class="st2" d="M281.1,788.4c0,0.5-0.4,0.9-0.9,0.9h-13.5c-0.5,0-0.9-0.4-0.9-0.9v-13.2c0-0.5,0.4-0.9,0.9-0.9h13.5
						c0.5,0,0.9,0.4,0.9,0.9V788.4z"/>
					<path class="st2" d="M299.6,788.4c0,0.5-0.4,0.9-0.9,0.9h-13.5c-0.5,0-0.9-0.4-0.9-0.9v-13.2c0-0.5,0.4-0.9,0.9-0.9h13.5
						c0.5,0,0.9,0.4,0.9,0.9V788.4z"/>
					<path class="st2" d="M318.2,788.4c0,0.5-0.4,0.9-0.9,0.9h-13.5c-0.5,0-0.9-0.4-0.9-0.9v-13.2c0-0.5,0.4-0.9,0.9-0.9h13.5
						c0.5,0,0.9,0.4,0.9,0.9V788.4z"/>
					<path class="st2" d="M336.7,788.4c0,0.5-0.4,0.9-0.9,0.9h-13.5c-0.5,0-0.9-0.4-0.9-0.9v-13.2c0-0.5,0.4-0.9,0.9-0.9h13.5
						c0.5,0,0.9,0.4,0.9,0.9V788.4z"/>
					<path class="st2" d="M378.6,788.4c0,0.5-0.4,0.9-0.9,0.9h-36.7c-0.5,0-0.9-0.4-0.9-0.9v-13.2c0-0.5,0.4-0.9,0.9-0.9h36.7
						c0.5,0,0.9,0.4,0.9,0.9V788.4z"/>
					<path class="st2" d="M178.9,770.3c0,0.5-0.4,0.9-0.9,0.9h-13.5c-0.5,0-0.9-0.4-0.9-0.9v-13.2c0-0.5,0.4-0.9,0.9-0.9H178
						c0.5,0,0.9,0.4,0.9,0.9V770.3z"/>
					<path class="st2" d="M197.5,770.3c0,0.5-0.4,0.9-0.9,0.9h-13.5c-0.5,0-0.9-0.4-0.9-0.9v-13.2c0-0.5,0.4-0.9,0.9-0.9h13.5
						c0.5,0,0.9,0.4,0.9,0.9V770.3z"/>
					<path class="st2" d="M216,770.3c0,0.5-0.4,0.9-0.9,0.9h-13.5c-0.5,0-0.9-0.4-0.9-0.9v-13.2c0-0.5,0.4-0.9,0.9-0.9h13.5
						c0.5,0,0.9,0.4,0.9,0.9V770.3z"/>
					<path class="st2" d="M234.5,770.3c0,0.5-0.4,0.9-0.9,0.9h-13.5c-0.5,0-0.9-0.4-0.9-0.9v-13.2c0-0.5,0.4-0.9,0.9-0.9h13.5
						c0.5,0,0.9,0.4,0.9,0.9V770.3z"/>
					<path class="st2" d="M253.1,770.3c0,0.5-0.4,0.9-0.9,0.9h-13.5c-0.5,0-0.9-0.4-0.9-0.9v-13.2c0-0.5,0.4-0.9,0.9-0.9h13.5
						c0.5,0,0.9,0.4,0.9,0.9V770.3z"/>
					<path class="st2" d="M271.6,770.3c0,0.5-0.4,0.9-0.9,0.9h-13.5c-0.5,0-0.9-0.4-0.9-0.9v-13.2c0-0.5,0.4-0.9,0.9-0.9h13.5
						c0.5,0,0.9,0.4,0.9,0.9V770.3z"/>
					<path class="st2" d="M290.2,770.3c0,0.5-0.4,0.9-0.9,0.9h-13.5c-0.5,0-0.9-0.4-0.9-0.9v-13.2c0-0.5,0.4-0.9,0.9-0.9h13.5
						c0.5,0,0.9,0.4,0.9,0.9V770.3z"/>
					<path class="st2" d="M308.7,770.3c0,0.5-0.4,0.9-0.9,0.9h-13.5c-0.5,0-0.9-0.4-0.9-0.9v-13.2c0-0.5,0.4-0.9,0.9-0.9h13.5
						c0.5,0,0.9,0.4,0.9,0.9V770.3z"/>
					<path class="st2" d="M327.3,770.3c0,0.5-0.4,0.9-0.9,0.9h-13.5c-0.5,0-0.9-0.4-0.9-0.9v-13.2c0-0.5,0.4-0.9,0.9-0.9h13.5
						c0.5,0,0.9,0.4,0.9,0.9V770.3z"/>
					<path class="st2" d="M345.8,770.3c0,0.5-0.4,0.9-0.9,0.9h-13.5c-0.5,0-0.9-0.4-0.9-0.9v-13.2c0-0.5,0.4-0.9,0.9-0.9h13.5
						c0.5,0,0.9,0.4,0.9,0.9V770.3z"/>
					<path class="st2" d="M364.3,770.3c0,0.5-0.4,0.9-0.9,0.9H350c-0.5,0-0.9-0.4-0.9-0.9v-13.2c0-0.5,0.4-0.9,0.9-0.9h13.5
						c0.5,0,0.9,0.4,0.9,0.9V770.3z"/>
					<path class="st2" d="M174.5,752.1c0,0.5-0.4,0.9-0.9,0.9h-13.5c-0.5,0-0.9-0.4-0.9-0.9v-13.2c0-0.5,0.4-0.9,0.9-0.9h13.5
						c0.5,0,0.9,0.4,0.9,0.9V752.1z"/>
					<path class="st2" d="M193.1,752.1c0,0.5-0.4,0.9-0.9,0.9h-13.5c-0.5,0-0.9-0.4-0.9-0.9v-13.2c0-0.5,0.4-0.9,0.9-0.9h13.5
						c0.5,0,0.9,0.4,0.9,0.9V752.1z"/>
					<path class="st2" d="M211.6,752.1c0,0.5-0.4,0.9-0.9,0.9h-13.5c-0.5,0-0.9-0.4-0.9-0.9v-13.2c0-0.5,0.4-0.9,0.9-0.9h13.5
						c0.5,0,0.9,0.4,0.9,0.9V752.1z"/>
					<path class="st2" d="M230.1,752.1c0,0.5-0.4,0.9-0.9,0.9h-13.5c-0.5,0-0.9-0.4-0.9-0.9v-13.2c0-0.5,0.4-0.9,0.9-0.9h13.5
						c0.5,0,0.9,0.4,0.9,0.9V752.1z"/>
					<path class="st2" d="M248.7,752.1c0,0.5-0.4,0.9-0.9,0.9h-13.5c-0.5,0-0.9-0.4-0.9-0.9v-13.2c0-0.5,0.4-0.9,0.9-0.9h13.5
						c0.5,0,0.9,0.4,0.9,0.9V752.1z"/>
					<path class="st2" d="M267.2,752.1c0,0.5-0.4,0.9-0.9,0.9h-13.5c-0.5,0-0.9-0.4-0.9-0.9v-13.2c0-0.5,0.4-0.9,0.9-0.9h13.5
						c0.5,0,0.9,0.4,0.9,0.9V752.1z"/>
					<path class="st2" d="M285.8,752.1c0,0.5-0.4,0.9-0.9,0.9h-13.5c-0.5,0-0.9-0.4-0.9-0.9v-13.2c0-0.5,0.4-0.9,0.9-0.9h13.5
						c0.5,0,0.9,0.4,0.9,0.9V752.1z"/>
					<path class="st2" d="M304.3,752.1c0,0.5-0.4,0.9-0.9,0.9H290c-0.5,0-0.9-0.4-0.9-0.9v-13.2c0-0.5,0.4-0.9,0.9-0.9h13.5
						c0.5,0,0.9,0.4,0.9,0.9V752.1z"/>
					<path class="st2" d="M322.9,752.1c0,0.5-0.4,0.9-0.9,0.9h-13.5c-0.5,0-0.9-0.4-0.9-0.9v-13.2c0-0.5,0.4-0.9,0.9-0.9H322
						c0.5,0,0.9,0.4,0.9,0.9V752.1z"/>
					<path class="st2" d="M341.4,752.1c0,0.5-0.4,0.9-0.9,0.9h-13.5c-0.5,0-0.9-0.4-0.9-0.9v-13.2c0-0.5,0.4-0.9,0.9-0.9h13.5
						c0.5,0,0.9,0.4,0.9,0.9V752.1z"/>
					<path class="st2" d="M360,752.1c0,0.5-0.4,0.9-0.9,0.9h-13.5c-0.5,0-0.9-0.4-0.9-0.9v-13.2c0-0.5,0.4-0.9,0.9-0.9h13.5
						c0.5,0,0.9,0.4,0.9,0.9V752.1z"/>
					<path class="st2" d="M137.4,752.1c0,0.5-0.4,0.9-0.9,0.9h-22.8c-0.5,0-0.9-0.4-0.9-0.9v-13.2c0-0.5,0.4-0.9,0.9-0.9h22.8
						c0.5,0,0.9,0.4,0.9,0.9V752.1z"/>
					<path class="st2" d="M378.6,734c0,0.5-0.4,0.9-0.9,0.9h-22.9c-0.5,0-0.9-0.4-0.9-0.9v-13.2c0-0.5,0.4-0.9,0.9-0.9h22.9
						c0.5,0,0.9,0.4,0.9,0.9V734z"/>
					<path class="st2" d="M141.8,770.3c0,0.5-0.4,0.9-0.9,0.9h-27.2c-0.5,0-0.9-0.4-0.9-0.9v-13.2c0-0.5,0.4-0.9,0.9-0.9h27.2
						c0.5,0,0.9,0.4,0.9,0.9V770.3z"/>
					<path class="st2" d="M132.8,788.4c0,0.5-0.4,0.9-0.9,0.9h-18.2c-0.5,0-0.9-0.4-0.9-0.9v-13.2c0-0.5,0.4-0.9,0.9-0.9h18.2
						c0.5,0,0.9,0.4,0.9,0.9V788.4z"/>
					<path class="st2" d="M146.6,734c0,0.5-0.4,0.9-0.9,0.9h-13.5c-0.5,0-0.9-0.4-0.9-0.9v-13.2c0-0.5,0.4-0.9,0.9-0.9h13.5
						c0.5,0,0.9,0.4,0.9,0.9V734z"/>
					<path class="st2" d="M165.2,734c0,0.5-0.4,0.9-0.9,0.9h-13.5c-0.5,0-0.9-0.4-0.9-0.9v-13.2c0-0.5,0.4-0.9,0.9-0.9h13.5
						c0.5,0,0.9,0.4,0.9,0.9V734z"/>
					<path class="st2" d="M183.7,734c0,0.5-0.4,0.9-0.9,0.9h-13.5c-0.5,0-0.9-0.4-0.9-0.9v-13.2c0-0.5,0.4-0.9,0.9-0.9h13.5
						c0.5,0,0.9,0.4,0.9,0.9V734z"/>
					<path class="st2" d="M202.2,734c0,0.5-0.4,0.9-0.9,0.9h-13.5c-0.5,0-0.9-0.4-0.9-0.9v-13.2c0-0.5,0.4-0.9,0.9-0.9h13.5
						c0.5,0,0.9,0.4,0.9,0.9V734z"/>
					<path class="st2" d="M220.8,734c0,0.5-0.4,0.9-0.9,0.9h-13.5c-0.5,0-0.9-0.4-0.9-0.9v-13.2c0-0.5,0.4-0.9,0.9-0.9h13.5
						c0.5,0,0.9,0.4,0.9,0.9V734z"/>
					<path class="st2" d="M239.3,734c0,0.5-0.4,0.9-0.9,0.9H225c-0.5,0-0.9-0.4-0.9-0.9v-13.2c0-0.5,0.4-0.9,0.9-0.9h13.5
						c0.5,0,0.9,0.4,0.9,0.9V734z"/>
					<path class="st2" d="M257.9,734c0,0.5-0.4,0.9-0.9,0.9h-13.5c-0.5,0-0.9-0.4-0.9-0.9v-13.2c0-0.5,0.4-0.9,0.9-0.9H257
						c0.5,0,0.9,0.4,0.9,0.9V734z"/>
					<path class="st2" d="M276.4,734c0,0.5-0.4,0.9-0.9,0.9h-13.5c-0.5,0-0.9-0.4-0.9-0.9v-13.2c0-0.5,0.4-0.9,0.9-0.9h13.5
						c0.5,0,0.9,0.4,0.9,0.9V734z"/>
					<path class="st2" d="M295,734c0,0.5-0.4,0.9-0.9,0.9h-13.5c-0.5,0-0.9-0.4-0.9-0.9v-13.2c0-0.5,0.4-0.9,0.9-0.9h13.5
						c0.5,0,0.9,0.4,0.9,0.9V734z"/>
					<path class="st2" d="M313.5,734c0,0.5-0.4,0.9-0.9,0.9h-13.5c-0.5,0-0.9-0.4-0.9-0.9v-13.2c0-0.5,0.4-0.9,0.9-0.9h13.5
						c0.5,0,0.9,0.4,0.9,0.9V734z"/>
					<path class="st2" d="M332,734c0,0.5-0.4,0.9-0.9,0.9h-13.5c-0.5,0-0.9-0.4-0.9-0.9v-13.2c0-0.5,0.4-0.9,0.9-0.9h13.5
						c0.5,0,0.9,0.4,0.9,0.9V734z"/>
					<path class="st2" d="M350.6,734c0,0.5-0.4,0.9-0.9,0.9h-13.5c-0.5,0-0.9-0.4-0.9-0.9v-13.2c0-0.5,0.4-0.9,0.9-0.9h13.5
						c0.5,0,0.9,0.4,0.9,0.9V734z"/>
					<g>
						<path class="st2" d="M344.9,801.6v7.2c0,0.2,0.1,0.4,0.2,0.6c0.2,0.2,0.4,0.3,0.6,0.3h13.5c0.2,0,0.4-0.1,0.6-0.3
							c0.2-0.2,0.3-0.4,0.3-0.6v-7.2H344.9z"/>
						<path class="st2" d="M360.1,800.6v-7.3c0-0.2-0.1-0.4-0.3-0.6c-0.2-0.2-0.4-0.3-0.6-0.3h-13.5c-0.2,0-0.4,0.1-0.6,0.3
							c-0.2,0.2-0.2,0.4-0.2,0.6v7.3H360.1z"/>
					</g>
					<path class="st9" d="M364.3,738.1c-0.2,0-0.5,0.1-0.6,0.3c-0.2,0.2-0.3,0.4-0.3,0.6v13.2c0,0.2,0.1,0.4,0.3,0.6
						c0.2,0.2,0.4,0.3,0.6,0.3h3.6v17.3c0,0.2,0.1,0.4,0.3,0.6c0.2,0.2,0.4,0.3,0.6,0.3h9.3c0.2,0,0.5-0.1,0.6-0.3
						c0.2-0.2,0.3-0.4,0.3-0.6v-31.3c0-0.2-0.1-0.4-0.3-0.6c-0.2-0.2-0.4-0.3-0.6-0.3H364.3z"/>
				</g>
			</g>
			<g>
				<path class="st10" d="M109,529.6c-3.6,0-7.2,1.4-10,4.1c-2.8,2.7-4.1,6.3-4.1,9.8v159.3h301.8V543.4c0-3.5-1.4-7.1-4.1-9.8
					c-2.8-2.7-6.4-4.1-10-4.1H109z"/>
				<g>
					<path class="st11" d="M249.1,537.3c0,1.8-1.5,3.3-3.4,3.3c-1.9,0-3.4-1.5-3.4-3.3c0-1.8,1.5-3.3,3.4-3.3
						C247.6,534,249.1,535.4,249.1,537.3z"/>
					<path class="st2" d="M247.1,537.3c0,0.8-0.6,1.4-1.4,1.4c-0.8,0-1.4-0.6-1.4-1.4c0-0.7,0.6-1.3,1.4-1.3
						C246.5,535.9,247.1,536.5,247.1,537.3z"/>
				</g>
				<g>
					<g>
						<rect x="368.7" y="696.5" class="st11" width="19.8" height="12.5"/>
						<rect x="368.7" y="702.7" class="st10" width="19.8" height="6.2"/>
					</g>
					<g>
						<rect x="102.9" y="696.5" class="st11" width="19.8" height="12.5"/>
						<rect x="102.9" y="702.7" class="st10" width="19.8" height="6.2"/>
					</g>
				</g>
				<g>
					<rect x="245.7" y="546.8" class="st12" width="132.9" height="138.6"/>
					<g>
						<g>
							<g>
								<g>
									<rect x="255.5" y="567" class="st13" width="34" height="5.1"/>
									<rect x="295.2" y="567" class="st13" width="34" height="5.1"/>
									<rect x="334.8" y="567" class="st13" width="34" height="5.1"/>
								</g>
							</g>
							<rect x="255.4" y="590.9" class="st14" width="30.9" height="5.1"/>
							<g>
								<rect x="255.4" y="604.8" class="st14" width="30.9" height="22.6"/>
							</g>
							<g>
								<rect x="292.8" y="604.8" class="st14" width="30.9" height="22.6"/>
							</g>
							<g>
								<rect x="292.8" y="604.8" class="st14" width="30.9" height="22.6"/>
							</g>
							<g>
								<g>
									<rect x="255.4" y="632.9" class="st13" width="30.9" height="5.1"/>
									<rect x="255.4" y="655.1" class="st14" width="68.3" height="5.1"/>
									<rect x="353.4" y="666.4" class="st14" width="15.5" height="5.1"/>
									<rect x="255.4" y="666.4" class="st13" width="30.9" height="5.1"/>
									<rect x="255.4" y="644.4" class="st14" width="12.8" height="5.1"/>
									<rect x="273.6" y="644.4" class="st14" width="12.8" height="5.1"/>
									<rect x="292.8" y="632.9" class="st14" width="30.9" height="5.1"/>
									<rect x="353.4" y="632.9" class="st13" width="15.5" height="5.1"/>
								</g>
							</g>
							<rect x="292.8" y="590.9" class="st14" width="76.1" height="5.1"/>
							<g>
								<g>
									<rect x="330.1" y="604.8" class="st14" width="38.8" height="2"/>
									<rect x="330.1" y="609.5" class="st14" width="38.8" height="2"/>
									<rect x="330.1" y="614.3" class="st14" width="19.4" height="2"/>
								</g>
							</g>
						</g>
					</g>
				</g>
				<g>
					<rect x="112.8" y="546.8" class="st5" width="132.9" height="138.6"/>
					<g>
						<g>
							<g>
								<rect x="127.9" y="557.2" class="st6" width="7" height="3.6"/>
							</g>
							<rect x="127.9" y="581.1" class="st6" width="7" height="3.6"/>
							<g>
								<rect x="136.7" y="557.2" class="st6" width="33.1" height="3.6"/>
							</g>
							<rect x="136.7" y="581.1" class="st6" width="25.3" height="3.6"/>
							<rect x="134.9" y="566.3" class="st6" width="11.2" height="3.6"/>
							<rect x="134.9" y="608.3" class="st6" width="11.2" height="3.6"/>
							<rect x="148.7" y="608.3" class="st6" width="29.2" height="3.6"/>
							<g>
								<rect x="141.2" y="635.1" class="st6" width="9.2" height="3.6"/>
							</g>
							<rect x="155.3" y="671.5" class="st6" width="16.2" height="3.6"/>
							<rect x="205.2" y="653.3" class="st6" width="12" height="3.6"/>
							<rect x="181.2" y="608.3" class="st6" width="21" height="3.6"/>
							<rect x="206.5" y="608.3" class="st6" width="12.8" height="3.6"/>
							<rect x="134.9" y="590.2" class="st6" width="16.7" height="3.6"/>
							<rect x="134.9" y="599.3" class="st6" width="23.6" height="3.6"/>
							<rect x="141.2" y="644.2" class="st6" width="27.1" height="3.6"/>
							<rect x="141.2" y="653.3" class="st6" width="24.9" height="3.6"/>
							<rect x="174.1" y="653.3" class="st6" width="25.8" height="3.6"/>
							<rect x="174.1" y="671.5" class="st6" width="25.8" height="3.6"/>
							<g>
								<rect x="127.9" y="635.1" class="st6" width="9.6" height="3.6"/>
							</g>
							<rect x="141.2" y="671.5" class="st6" width="11" height="3.6"/>
							<rect x="146.8" y="662.4" class="st6" width="16.9" height="3.6"/>
							<g>
								<rect x="166.2" y="662.4" class="st6" width="43.8" height="3.6"/>
							</g>
							<rect x="161.1" y="599.3" class="st6" width="23.6" height="3.6"/>
							<g>
								<rect x="209.6" y="599.3" class="st6" width="13.8" height="3.6"/>
							</g>
							<g>
								<rect x="186.3" y="599.3" class="st6" width="14.8" height="3.6"/>
							</g>
							<rect x="157" y="590.2" class="st6" width="25.6" height="3.6"/>
							<rect x="153" y="566.3" class="st6" width="10.3" height="3.6"/>
						</g>
					</g>
				</g>
			</g>
			<g>
				<path class="st10" d="M191.1,562.2c0,34-28.2,61.5-62.9,61.5c-34.8,0-62.9-27.6-62.9-61.5c0-34,28.2-61.5,62.9-61.5
					C163,500.6,191.1,528.2,191.1,562.2z"/>
				<g>
					<defs>
						<path id="SVGID_00000071535069088721870770000004643363051384786825_" d="M180.6,562.2c0,28.3-23.5,51.3-52.4,51.3
							c-29,0-52.4-23-52.4-51.3s23.5-51.3,52.4-51.3C157.2,510.9,180.6,533.9,180.6,562.2z"/>
					</defs>
					<use xlink:href="#SVGID_00000071535069088721870770000004643363051384786825_"  style="overflow:visible;fill:#353F49;"/>
					<clipPath id="SVGID_00000106860867044379254970000008280021390426503056_">
						<use xlink:href="#SVGID_00000071535069088721870770000004643363051384786825_"  style="overflow:visible;"/>
					</clipPath>
					<g style="clip-path:url(#SVGID_00000106860867044379254970000008280021390426503056_);">
						<rect x="79.8" y="510.2" class="st12" width="8.3" height="3.3"/>
						<rect x="79.8" y="533.1" class="st1" width="8.3" height="3.3"/>
						<rect x="90.2" y="510.2" class="st12" width="39" height="3.3"/>
						<rect x="90.2" y="533.1" class="st1" width="29.9" height="3.3"/>
						<rect x="88.1" y="518.9" class="st2" width="13.2" height="3.3"/>
						<rect x="88.1" y="559.1" class="st2" width="13.2" height="3.3"/>
						<rect x="104.4" y="559.1" class="st2" width="34.4" height="3.3"/>
						<rect x="95.5" y="576.2" class="st12" width="10.8" height="3.3"/>
						<rect x="112.2" y="610.9" class="st1" width="19.1" height="3.3"/>
						<rect x="170.9" y="593.5" class="st1" width="14.1" height="3.3"/>
						<rect x="142.7" y="559.1" class="st1" width="24.8" height="3.3"/>
						<rect x="172.5" y="559.1" class="st2" width="15.2" height="3.3"/>
						<rect x="88.1" y="541.7" class="st2" width="19.6" height="3.3"/>
						<rect x="88.1" y="550.4" class="st2" width="27.9" height="3.3"/>
						<rect x="95.5" y="584.8" class="st2" width="31.9" height="3.3"/>
						<rect x="95.5" y="593.5" class="st2" width="29.3" height="3.3"/>
						<rect x="134.4" y="593.5" class="st2" width="30.4" height="3.3"/>
						<rect x="134.4" y="610.9" class="st1" width="30.4" height="3.3"/>
						<rect x="79.8" y="576.2" class="st12" width="11.3" height="3.3"/>
						<rect x="95.5" y="610.9" class="st2" width="13" height="3.3"/>
						<rect x="102.2" y="602.2" class="st1" width="19.9" height="3.3"/>
						<rect x="125" y="602.2" class="st2" width="51.7" height="3.3"/>
						<rect x="118.9" y="550.4" class="st2" width="27.9" height="3.3"/>
						<rect x="176.2" y="550.4" class="st12" width="16.3" height="3.3"/>
						<rect x="148.7" y="550.4" class="st2" width="17.4" height="3.3"/>
						<rect x="114.2" y="541.7" class="st2" width="30.2" height="3.3"/>
						<rect x="109.5" y="518.9" class="st2" width="12.1" height="3.3"/>
					</g>
				</g>
			</g>
		</g>
		<g>
			<path class="st2" d="M538.7,714.5c0,30-24.9,54.4-55.6,54.4c-30.7,0-55.6-24.4-55.6-54.4s24.9-54.4,55.6-54.4
				C513.8,660.1,538.7,684.5,538.7,714.5z"/>
			<path class="st16" d="M559.2,744.3c-0.4-0.7-1-1.3-1.6-1.8c-0.3-0.4-0.7-0.7-1.1-1c-0.3-0.4-0.7-0.7-1.1-1
				c-0.3-0.4-0.7-0.7-1.1-1c-0.3-0.4-0.7-0.7-1.1-1c-0.3-0.4-0.7-0.7-1.1-1c-0.3-0.4-0.7-0.7-1.1-1c-0.3-0.4-0.7-0.7-1.1-1
				c-0.3-0.4-0.7-0.7-1.1-1c-0.3-0.4-0.7-0.7-1.1-1c-0.3-0.4-0.7-0.7-1.1-1c-0.3-0.4-0.7-0.7-1.1-1c-0.3-0.4-0.7-0.7-1.1-1
				c-0.3-0.4-0.7-0.7-1.1-1c-0.3-0.4-0.7-0.7-1.1-1c-0.3-0.4-0.7-0.7-1.1-1c-0.3-0.4-0.7-0.7-1.1-1c-0.3-0.4-0.7-0.7-1.1-1
				c-0.3-0.4-0.6-0.7-1-1c-1.8-6.6-5.4-12.5-10.3-17.1c-0.3-0.4-18-17.6-18.3-17.9c-6.8-7-16.4-11.3-27.1-11.3
				c-20.8,0-37.6,16.5-37.6,36.8c0,10.4,4.4,19.8,11.5,26.5c0.3,0.4,17.9,17.6,18.3,17.9c6.8,7,16.4,11.3,27.1,11.3
				c15.2,0,28.3-8.8,34.2-21.5l4.9,1.3v0l10.9,2.9c1.5,0.4,3.1,0.2,4.6-0.6c1.4-0.8,2.4-2.1,2.8-3.6
				C560.2,747.3,560.1,745.7,559.2,744.3z"/>
			<path class="st2" d="M540.5,729.8c-0.4,1.4-1.4,2.8-2.8,3.6c-1.4,0.8-3.1,1-4.6,0.6l-17.4-4.6l3.2-11.3l17.4,4.6
				c1.5,0.4,2.8,1.4,3.6,2.8C540.7,726.8,540.9,728.4,540.5,729.8z"/>
			<path class="st8" d="M518.9,718l-3.2,11.3l6.5,1.7c1.6-3.6,2.7-7.4,3.2-11.3L518.9,718z"/>
			<path class="st2" d="M520.6,714.5c0,20.3-16.8,36.8-37.6,36.8c-20.8,0-37.6-16.4-37.6-36.8c0-20.3,16.8-36.8,37.6-36.8
				C503.8,677.8,520.6,694.2,520.6,714.5z"/>
			<path class="st12" d="M514.6,714.5c0,17.1-14.1,30.9-31.6,30.9c-17.4,0-31.6-13.8-31.6-30.9c0-17.1,14.1-30.9,31.6-30.9
				C500.5,683.6,514.6,697.5,514.6,714.5z"/>
			<path class="st13" d="M460.5,723.3c0-17.1,14.1-30.9,31.6-30.9c6.4,0,12.4,1.9,17.3,5.1c-5.6-8.4-15.3-13.9-26.4-13.9
				c-17.4,0-31.6,13.8-31.6,30.9c0,10.8,5.7,20.3,14.2,25.8C462.4,735.4,460.5,729.6,460.5,723.3z"/>
		</g>
		<g>
			<path class="st2" d="M481.5,897.9c0,11.5-9.6,21-21.4,21h-15.6c-11.8,0-21.4-9.4-21.4-21v-60c0-11.5,9.6-21,21.4-21H460
				c11.8,0,21.4,9.4,21.4,21V897.9z"/>
			<path class="st16" d="M471.6,820.3c0.2,1.2,0.3,2.4,0.3,3.6v45.5c0,9.1-3.5,18.1-10.6,25.1c-7.1,6.9-16.4,10.4-25.6,10.4h-0.8
				c-4.3,0-8.2-1.2-11.6-3.4c1.8,9.8,10.6,17.3,21.1,17.3H460c11.8,0,21.4-9.4,21.4-21v-60C481.5,830.5,477.5,824,471.6,820.3z"/>
			<path class="st10" d="M457.1,838.9c0,2.6-2.2,4.8-4.9,4.8c-2.7,0-4.9-2.1-4.9-4.8c0-2.6,2.2-4.8,4.9-4.8
				C454.9,834.1,457.1,836.2,457.1,838.9z"/>
		</g>
		<g>
			<rect x="148.4" y="850.1" class="st12" width="104.7" height="61.4"/>
		</g>
		<g>
			<rect x="63.7" y="748" class="st17" width="63.5" height="62.1"/>
		</g>
		<g>
			<path class="st5" d="M580.6,826.9c0,22.6-18.8,41-41.9,41s-41.9-18.4-41.9-41c0-22.6,18.8-41,41.9-41S580.6,804.3,580.6,826.9z"
				/>
			<text transform="matrix(1.0458 0 0 1 512.7769 834.8379)" class="st18 st19 st20">Java</text>
		</g>
		<g>
			<rect x="327.7" y="626.8" class="st2" width="105.8" height="46.6"/>
		</g>
	</g>
	<text transform="matrix(1.0224 0 0 1 351.8371 660.1912)" class="st21 st19 st20">SQL</text>
	<text transform="matrix(1.0224 0 0 1 72.3547 789.5447)" class="st18 st19 st22">CSS</text>
	<text transform="matrix(0.938 0 0 1 158.1647 892.1492)" class="st18 st19 st20">HTML</text>
</g>
</svg>
