<svg xmlns="http://www.w3.org/2000/svg" xmlns:xlink="http://www.w3.org/1999/xlink" width="514.24" height="485.07" viewBox="0 0 514.24 485.07">
  <defs>
    <style>
      .cls-1 {
        fill: #abe0e5;
      }

      .cls-2 {
        fill: #353f49;
      }

      .cls-3 {
        isolation: isolate;
      }

      .cls-4 {
        fill: #f2f2f2;
      }

      .cls-5 {
        fill: #cccbca;
      }

      .cls-19, .cls-23, .cls-6 {
        fill: #fff;
      }

      .cls-7 {
        fill: #656a73;
      }

      .cls-8 {
        clip-path: url(#clip-path);
      }

      .cls-9 {
        fill: #d9d8d7;
      }

      .cls-10 {
        fill: #232e38;
      }

      .cls-11 {
        fill: #474f59;
      }

      .cls-12 {
        fill: #f68360;
      }

      .cls-13 {
        fill: #ed6d47;
      }

      .cls-14 {
        fill: #ff9978;
      }

      .cls-15 {
        clip-path: url(#clip-path-2);
      }

      .cls-16, .cls-17 {
        fill: #e6e5e5;
      }

      .cls-16 {
        mix-blend-mode: multiply;
      }

      .cls-18 {
        fill: #91d3d9;
      }

      .cls-19, .cls-22 {
        font-size: 33.58px;
      }

      .cls-19, .cls-23 {
        stroke: #fff;
      }

      .cls-19, .cls-22, .cls-23 {
        stroke-miterlimit: 10;
        font-family: MyriadPro-Regular, Myriad Pro;
      }

      .cls-20 {
        letter-spacing: -0.01em;
      }

      .cls-21 {
        letter-spacing: 0em;
      }

      .cls-22 {
        stroke: #000;
      }

      .cls-23 {
        font-size: 27.98px;
      }
    </style>
    <clipPath id="clip-path" transform="translate(-16.47 -27.52)">
      <ellipse class="cls-1" cx="279.54" cy="270.05" rx="246.68" ry="242.53"/>
    </clipPath>
    <clipPath id="clip-path-2" transform="translate(-16.47 -27.52)">
      <path class="cls-2" d="M132.79,143.08c0,28.33-23.36,51.29-52.17,51.29s-52.16-23-52.16-51.29S51.81,91.79,80.62,91.79,132.79,114.76,132.79,143.08Z"/>
    </clipPath>
  </defs>
  <g class="cls-3">
    <g id="Layer_1" data-name="Layer 1">
      <g>
        <g>
          <rect class="cls-4" x="293.62" y="32.26" width="195.49" height="135.9"/>
          <g>
            <g>
              <rect class="cls-5" x="416.96" y="81.17" width="2.22" height="9.52"/>
              <rect class="cls-5" x="431.43" y="103.88" width="13.37" height="2.19"/>
              <rect class="cls-5" x="457.03" y="119.26" width="2.23" height="9.52"/>
              <rect class="cls-5" x="416.96" y="119.26" width="2.22" height="9.52"/>
              <rect class="cls-5" x="363.13" y="81.17" width="2.23" height="9.52"/>
              <rect class="cls-5" x="336.82" y="62.12" width="2.23" height="9.52"/>
              <rect class="cls-5" x="363.13" y="109.73" width="2.23" height="9.52"/>
              <rect class="cls-5" x="337.93" y="132.45" width="12.96" height="2.19"/>
            </g>
            <g>
              <rect class="cls-5" x="324.58" y="71.65" width="133.56" height="9.52"/>
              <rect class="cls-6" x="434.78" y="75.31" width="20.03" height="2.19"/>
              <rect class="cls-2" x="404.72" y="71.65" width="26.71" height="9.52"/>
              <rect class="cls-5" x="408.06" y="75.31" width="20.02" height="2.19"/>
              <rect class="cls-6" x="381.35" y="75.31" width="20.02" height="2.19"/>
              <rect class="cls-6" x="354.63" y="75.31" width="20.03" height="2.19"/>
              <rect class="cls-6" x="327.92" y="75.31" width="20.03" height="2.19"/>
            </g>
            <rect class="cls-5" x="404.72" y="90.69" width="26.71" height="28.57"/>
            <rect class="cls-5" x="350.89" y="90.69" width="26.7" height="19.04"/>
            <rect class="cls-5" x="311.23" y="128.78" width="26.7" height="9.52"/>
            <rect class="cls-5" x="444.79" y="128.78" width="26.7" height="19.05"/>
            <rect class="cls-2" x="444.79" y="90.69" width="26.7" height="28.57"/>
            <rect class="cls-5" x="404.72" y="128.78" width="26.71" height="9.52"/>
            <rect class="cls-2" x="324.58" y="52.6" width="26.7" height="9.52"/>
            <rect class="cls-2" x="350.89" y="119.26" width="26.7" height="28.57"/>
            <rect class="cls-7" x="327.92" y="56.27" width="20.03" height="2.19"/>
            <rect class="cls-6" x="314.57" y="132.45" width="20.03" height="2.19"/>
            <g>
              <rect class="cls-6" x="354.23" y="94.35" width="20.03" height="2.19"/>
              <rect class="cls-6" x="359.4" y="103.88" width="9.68" height="2.19"/>
            </g>
            <g>
              <rect class="cls-6" x="448.13" y="132.45" width="20.03" height="2.19"/>
              <rect class="cls-6" x="448.13" y="141.97" width="11.85" height="2.19"/>
            </g>
            <g>
              <rect class="cls-7" x="354.23" y="122.93" width="20.03" height="2.19"/>
              <rect class="cls-7" x="363.13" y="132.45" width="11.13" height="2.19"/>
              <rect class="cls-7" x="354.23" y="132.45" width="5.56" height="2.19"/>
              <rect class="cls-7" x="363.58" y="141.97" width="5.11" height="2.19"/>
              <rect class="cls-7" x="354.23" y="141.97" width="7.89" height="2.19"/>
            </g>
            <rect class="cls-6" x="408.06" y="132.45" width="20.03" height="2.19"/>
            <g>
              <rect class="cls-6" x="418.08" y="94.35" width="10.01" height="2.19"/>
              <rect class="cls-6" x="408.06" y="94.35" width="6.99" height="2.19"/>
              <rect class="cls-6" x="408.06" y="103.88" width="20.03" height="2.19"/>
              <rect class="cls-6" x="408.06" y="113.41" width="14.15" height="2.19"/>
            </g>
            <g>
              <rect class="cls-7" x="448.13" y="94.35" width="20.03" height="2.19"/>
              <rect class="cls-7" x="448.13" y="103.88" width="12.21" height="2.19"/>
              <rect class="cls-7" x="462.93" y="103.88" width="5.23" height="2.19"/>
              <rect class="cls-7" x="448.13" y="113.41" width="8.9" height="2.19"/>
            </g>
          </g>
        </g>
        <g>
          <g>
            <ellipse class="cls-1" cx="263.07" cy="242.53" rx="246.68" ry="242.53"/>
            <g class="cls-8">
              <g>
                <rect class="cls-4" x="294.65" y="32.73" width="195.49" height="135.9"/>
                <g>
                  <g>
                    <rect class="cls-5" x="417.99" y="81.63" width="2.22" height="9.52"/>
                    <rect class="cls-5" x="432.46" y="104.34" width="13.37" height="2.19"/>
                    <rect class="cls-5" x="458.06" y="119.72" width="2.23" height="9.52"/>
                    <rect class="cls-5" x="417.99" y="119.72" width="2.22" height="9.52"/>
                    <rect class="cls-5" x="364.16" y="81.63" width="2.23" height="9.52"/>
                    <rect class="cls-5" x="337.85" y="62.59" width="2.23" height="9.52"/>
                    <rect class="cls-5" x="364.16" y="110.2" width="2.23" height="9.52"/>
                    <rect class="cls-5" x="338.97" y="132.91" width="12.96" height="2.19"/>
                  </g>
                  <g>
                    <rect class="cls-5" x="325.61" y="72.11" width="133.56" height="9.52"/>
                    <rect class="cls-6" x="435.81" y="75.78" width="20.03" height="2.19"/>
                    <rect class="cls-2" x="405.75" y="72.11" width="26.71" height="9.52"/>
                    <rect class="cls-5" x="409.09" y="75.78" width="20.02" height="2.19"/>
                    <rect class="cls-6" x="382.38" y="75.78" width="20.02" height="2.19"/>
                    <rect class="cls-6" x="355.66" y="75.78" width="20.03" height="2.19"/>
                    <rect class="cls-6" x="328.95" y="75.78" width="20.03" height="2.19"/>
                  </g>
                  <rect class="cls-5" x="405.75" y="91.15" width="26.71" height="28.57"/>
                  <rect class="cls-5" x="351.92" y="91.15" width="26.7" height="19.04"/>
                  <rect class="cls-5" x="312.26" y="129.24" width="26.7" height="9.52"/>
                  <rect class="cls-5" x="445.82" y="129.24" width="26.7" height="19.05"/>
                  <rect class="cls-2" x="445.82" y="91.15" width="26.7" height="28.57"/>
                  <rect class="cls-5" x="405.75" y="129.24" width="26.71" height="9.52"/>
                  <rect class="cls-2" x="325.61" y="53.06" width="26.7" height="9.52"/>
                  <rect class="cls-2" x="351.92" y="119.72" width="26.7" height="28.57"/>
                  <rect class="cls-7" x="328.95" y="56.73" width="20.03" height="2.19"/>
                  <rect class="cls-6" x="315.6" y="132.91" width="20.03" height="2.19"/>
                  <g>
                    <rect class="cls-6" x="355.26" y="94.82" width="20.03" height="2.19"/>
                    <rect class="cls-6" x="360.43" y="104.34" width="9.68" height="2.19"/>
                  </g>
                  <g>
                    <rect class="cls-6" x="449.16" y="132.91" width="20.03" height="2.19"/>
                    <rect class="cls-6" x="449.16" y="142.44" width="11.85" height="2.19"/>
                  </g>
                  <g>
                    <rect class="cls-7" x="355.26" y="123.39" width="20.03" height="2.19"/>
                    <rect class="cls-7" x="364.16" y="132.91" width="11.13" height="2.19"/>
                    <rect class="cls-7" x="355.26" y="132.91" width="5.56" height="2.19"/>
                    <rect class="cls-7" x="364.62" y="142.44" width="5.11" height="2.19"/>
                    <rect class="cls-7" x="355.26" y="142.44" width="7.89" height="2.19"/>
                  </g>
                  <rect class="cls-6" x="409.09" y="132.91" width="20.03" height="2.19"/>
                  <g>
                    <rect class="cls-6" x="419.11" y="94.82" width="10.01" height="2.19"/>
                    <rect class="cls-6" x="409.09" y="94.82" width="6.99" height="2.19"/>
                    <rect class="cls-6" x="409.09" y="104.34" width="20.03" height="2.19"/>
                    <rect class="cls-6" x="409.09" y="113.87" width="14.15" height="2.19"/>
                  </g>
                  <g>
                    <rect class="cls-7" x="449.16" y="94.82" width="20.03" height="2.19"/>
                    <rect class="cls-7" x="449.16" y="104.34" width="12.21" height="2.19"/>
                    <rect class="cls-7" x="463.96" y="104.34" width="5.23" height="2.19"/>
                    <rect class="cls-7" x="449.16" y="113.87" width="8.9" height="2.19"/>
                  </g>
                </g>
              </g>
            </g>
          </g>
          <g>
            <g>
              <g>
                <path class="cls-9" d="M47.45,283.6V442.88a13.71,13.71,0,0,0,4.13,9.8,14.18,14.18,0,0,0,10,4.05h272a14.18,14.18,0,0,0,10-4.05,13.71,13.71,0,0,0,4.13-9.8V283.6Z" transform="translate(-16.47 -27.52)"/>
                <path class="cls-6" d="M234.85,444.77a1.13,1.13,0,0,1-1.14,1.11h-72.3a1.12,1.12,0,0,1-1.13-1.11V402.56a1.13,1.13,0,0,1,1.13-1.12h72.3a1.14,1.14,0,0,1,1.14,1.12Z" transform="translate(-16.47 -27.52)"/>
                <g>
                  <path class="cls-6" d="M80.49,314.88a.87.87,0,0,1-.88.87H66.21a.87.87,0,0,1-.87-.87V301.72a.86.86,0,0,1,.87-.86h13.4a.86.86,0,0,1,.88.86Z" transform="translate(-16.47 -27.52)"/>
                  <path class="cls-6" d="M108.26,333a.87.87,0,0,1-.88.87H94a.86.86,0,0,1-.87-.87V319.85A.87.87,0,0,1,94,319h13.39a.87.87,0,0,1,.88.85Z" transform="translate(-16.47 -27.52)"/>
                  <path class="cls-6" d="M112.63,351.17a.86.86,0,0,1-.88.86H98.36a.87.87,0,0,1-.88-.86V338a.88.88,0,0,1,.88-.86h13.39a.87.87,0,0,1,.88.86Z" transform="translate(-16.47 -27.52)"/>
                  <path class="cls-6" d="M103.6,369.31a.87.87,0,0,1-.87.86H89.32a.88.88,0,0,1-.87-.86V356.13a.87.87,0,0,1,.87-.85h13.41a.86.86,0,0,1,.87.85Z" transform="translate(-16.47 -27.52)"/>
                  <path class="cls-6" d="M80.49,389.73a.86.86,0,0,1-.88.86H66.21a.86.86,0,0,1-.87-.86V374.26a.87.87,0,0,1,.87-.85h13.4a.87.87,0,0,1,.88.85Z" transform="translate(-16.47 -27.52)"/>
                  <path class="cls-6" d="M98.89,389.73a.87.87,0,0,1-.88.86H84.62a.86.86,0,0,1-.88-.86V374.26a.87.87,0,0,1,.88-.85H98a.88.88,0,0,1,.88.85Z" transform="translate(-16.47 -27.52)"/>
                  <path class="cls-6" d="M117.29,389.73a.87.87,0,0,1-.88.86H103a.86.86,0,0,1-.87-.86V374.26a.87.87,0,0,1,.87-.85h13.39a.88.88,0,0,1,.88.85Z" transform="translate(-16.47 -27.52)"/>
                  <path class="cls-6" d="M274.44,389.73a.87.87,0,0,1-.88.86h-13.4a.87.87,0,0,1-.87-.86V374.26a.87.87,0,0,1,.87-.85h13.4a.88.88,0,0,1,.88.85Z" transform="translate(-16.47 -27.52)"/>
                  <path class="cls-6" d="M292.88,389.73a.86.86,0,0,1-.87.86H278.63a.87.87,0,0,1-.89-.86v-6.87a.87.87,0,0,1,.89-.86H292a.86.86,0,0,1,.87.86Z" transform="translate(-16.47 -27.52)"/>
                  <path class="cls-6" d="M329.78,389.73a.86.86,0,0,1-.87.86h-13.4a.87.87,0,0,1-.88-.86v-6.87a.88.88,0,0,1,.88-.86h13.4a.87.87,0,0,1,.87.86Z" transform="translate(-16.47 -27.52)"/>
                  <path class="cls-6" d="M140.49,389.73a.86.86,0,0,1-.86.86H121.41a.87.87,0,0,1-.87-.86V374.26a.87.87,0,0,1,.87-.85h18.22a.86.86,0,0,1,.86.85Z" transform="translate(-16.47 -27.52)"/>
                  <path class="cls-6" d="M256,389.73a.86.86,0,0,1-.88.86H236.91a.88.88,0,0,1-.88-.86V374.26a.88.88,0,0,1,.88-.85h18.21a.87.87,0,0,1,.88.85Z" transform="translate(-16.47 -27.52)"/>
                  <path class="cls-6" d="M232.74,389.73a.87.87,0,0,1-.89.86H144.67a.87.87,0,0,1-.88-.86V374.26a.88.88,0,0,1,.88-.85h87.18a.88.88,0,0,1,.89.85Z" transform="translate(-16.47 -27.52)"/>
                  <path class="cls-6" d="M122,369.31a.87.87,0,0,1-.87.86h-13.4a.88.88,0,0,1-.87-.86V356.13a.87.87,0,0,1,.87-.85h13.4a.86.86,0,0,1,.87.85Z" transform="translate(-16.47 -27.52)"/>
                  <path class="cls-6" d="M140.49,369.31a.87.87,0,0,1-.86.86h-13.4a.87.87,0,0,1-.88-.86V356.13a.86.86,0,0,1,.88-.85h13.4a.86.86,0,0,1,.86.85Z" transform="translate(-16.47 -27.52)"/>
                  <path class="cls-6" d="M159,369.31a.88.88,0,0,1-.88.86h-13.4a.88.88,0,0,1-.88-.86V356.13a.87.87,0,0,1,.88-.85h13.4a.87.87,0,0,1,.88.85Z" transform="translate(-16.47 -27.52)"/>
                  <path class="cls-6" d="M177.39,369.31a.88.88,0,0,1-.87.86h-13.4a.88.88,0,0,1-.87-.86V356.13a.87.87,0,0,1,.87-.85h13.4a.87.87,0,0,1,.87.85Z" transform="translate(-16.47 -27.52)"/>
                  <path class="cls-6" d="M195.83,369.31a.87.87,0,0,1-.87.86h-13.4a.88.88,0,0,1-.87-.86V356.13a.87.87,0,0,1,.87-.85H195a.86.86,0,0,1,.87.85Z" transform="translate(-16.47 -27.52)"/>
                  <path class="cls-6" d="M214.28,369.31a.86.86,0,0,1-.87.86H200a.87.87,0,0,1-.88-.86V356.13a.86.86,0,0,1,.88-.85h13.39a.85.85,0,0,1,.87.85Z" transform="translate(-16.47 -27.52)"/>
                  <path class="cls-6" d="M232.74,369.31a.88.88,0,0,1-.89.86H218.46a.88.88,0,0,1-.87-.86V356.13a.87.87,0,0,1,.87-.85h13.39a.87.87,0,0,1,.89.85Z" transform="translate(-16.47 -27.52)"/>
                  <path class="cls-6" d="M251.18,369.31a.87.87,0,0,1-.87.86h-13.4a.88.88,0,0,1-.88-.86V356.13a.88.88,0,0,1,.88-.85h13.4a.86.86,0,0,1,.87.85Z" transform="translate(-16.47 -27.52)"/>
                  <path class="cls-6" d="M269.63,369.31a.86.86,0,0,1-.87.86H255.37a.87.87,0,0,1-.89-.86V356.13a.87.87,0,0,1,.89-.85h13.39a.85.85,0,0,1,.87.85Z" transform="translate(-16.47 -27.52)"/>
                  <path class="cls-6" d="M288.08,369.31a.87.87,0,0,1-.88.86H273.81a.87.87,0,0,1-.87-.86V356.13a.86.86,0,0,1,.87-.85H287.2a.86.86,0,0,1,.88.85Z" transform="translate(-16.47 -27.52)"/>
                  <path class="cls-6" d="M329.78,369.31a.87.87,0,0,1-.86.86H292.41a.88.88,0,0,1-.88-.86V356.13a.87.87,0,0,1,.88-.85h36.51a.86.86,0,0,1,.86.85Z" transform="translate(-16.47 -27.52)"/>
                  <path class="cls-6" d="M131.07,351.17a.85.85,0,0,1-.86.86H116.8a.86.86,0,0,1-.87-.86V338a.87.87,0,0,1,.87-.86h13.41a.86.86,0,0,1,.86.86Z" transform="translate(-16.47 -27.52)"/>
                  <path class="cls-6" d="M149.52,351.17a.86.86,0,0,1-.87.86h-13.4a.86.86,0,0,1-.86-.86V338a.87.87,0,0,1,.86-.86h13.4a.87.87,0,0,1,.87.86Z" transform="translate(-16.47 -27.52)"/>
                  <path class="cls-6" d="M168,351.17a.86.86,0,0,1-.87.86H153.7a.86.86,0,0,1-.87-.86V338a.87.87,0,0,1,.87-.86h13.4a.87.87,0,0,1,.87.86Z" transform="translate(-16.47 -27.52)"/>
                  <path class="cls-6" d="M186.42,351.17a.87.87,0,0,1-.87.86H172.14a.86.86,0,0,1-.87-.86V338a.87.87,0,0,1,.87-.86h13.41a.88.88,0,0,1,.87.86Z" transform="translate(-16.47 -27.52)"/>
                  <path class="cls-6" d="M204.88,351.17a.88.88,0,0,1-.88.86H190.6a.88.88,0,0,1-.88-.86V338a.88.88,0,0,1,.88-.86H204a.88.88,0,0,1,.88.86Z" transform="translate(-16.47 -27.52)"/>
                  <path class="cls-6" d="M223.31,351.17a.86.86,0,0,1-.87.86H209a.85.85,0,0,1-.86-.86V338a.86.86,0,0,1,.86-.86h13.4a.86.86,0,0,1,.87.86Z" transform="translate(-16.47 -27.52)"/>
                  <path class="cls-6" d="M241.76,351.17a.86.86,0,0,1-.87.86h-13.4a.86.86,0,0,1-.87-.86V338a.87.87,0,0,1,.87-.86h13.4a.86.86,0,0,1,.87.86Z" transform="translate(-16.47 -27.52)"/>
                  <path class="cls-6" d="M260.21,351.17a.86.86,0,0,1-.87.86h-13.4a.86.86,0,0,1-.87-.86V338a.87.87,0,0,1,.87-.86h13.4a.87.87,0,0,1,.87.86Z" transform="translate(-16.47 -27.52)"/>
                  <path class="cls-6" d="M278.66,351.17a.86.86,0,0,1-.88.86H264.39a.86.86,0,0,1-.88-.86V338a.87.87,0,0,1,.88-.86h13.39a.87.87,0,0,1,.88.86Z" transform="translate(-16.47 -27.52)"/>
                  <path class="cls-6" d="M297.11,351.17a.86.86,0,0,1-.87.86h-13.4a.87.87,0,0,1-.88-.86V338a.88.88,0,0,1,.88-.86h13.4a.87.87,0,0,1,.87.86Z" transform="translate(-16.47 -27.52)"/>
                  <path class="cls-6" d="M315.56,351.17a.87.87,0,0,1-.88.86h-13.4a.85.85,0,0,1-.86-.86V338a.86.86,0,0,1,.86-.86h13.4a.88.88,0,0,1,.88.86Z" transform="translate(-16.47 -27.52)"/>
                  <path class="cls-6" d="M126.71,333a.86.86,0,0,1-.87.87h-13.4a.88.88,0,0,1-.89-.87V319.85a.88.88,0,0,1,.89-.85h13.4a.87.87,0,0,1,.87.85Z" transform="translate(-16.47 -27.52)"/>
                  <path class="cls-6" d="M145.16,333a.87.87,0,0,1-.88.87h-13.4A.86.86,0,0,1,130,333V319.85a.87.87,0,0,1,.87-.85h13.4a.88.88,0,0,1,.88.85Z" transform="translate(-16.47 -27.52)"/>
                  <path class="cls-6" d="M163.61,333a.87.87,0,0,1-.88.87h-13.4a.87.87,0,0,1-.87-.87V319.85a.87.87,0,0,1,.87-.85h13.4a.88.88,0,0,1,.88.85Z" transform="translate(-16.47 -27.52)"/>
                  <path class="cls-6" d="M182,333a.86.86,0,0,1-.86.87h-13.4a.87.87,0,0,1-.88-.87V319.85a.87.87,0,0,1,.88-.85h13.4a.86.86,0,0,1,.86.85Z" transform="translate(-16.47 -27.52)"/>
                  <path class="cls-6" d="M200.5,333a.87.87,0,0,1-.88.87h-13.4a.86.86,0,0,1-.86-.87V319.85a.86.86,0,0,1,.86-.85h13.4a.87.87,0,0,1,.88.85Z" transform="translate(-16.47 -27.52)"/>
                  <path class="cls-6" d="M218.94,333a.86.86,0,0,1-.87.87h-13.4a.86.86,0,0,1-.87-.87V319.85a.87.87,0,0,1,.87-.85h13.4a.87.87,0,0,1,.87.85Z" transform="translate(-16.47 -27.52)"/>
                  <path class="cls-6" d="M237.4,333a.86.86,0,0,1-.87.87h-13.4a.87.87,0,0,1-.88-.87V319.85a.87.87,0,0,1,.88-.85h13.4a.87.87,0,0,1,.87.85Z" transform="translate(-16.47 -27.52)"/>
                  <path class="cls-6" d="M255.85,333a.88.88,0,0,1-.89.87H241.57a.86.86,0,0,1-.87-.87V319.85a.87.87,0,0,1,.87-.85H255a.88.88,0,0,1,.89.85Z" transform="translate(-16.47 -27.52)"/>
                  <path class="cls-6" d="M274.29,333a.86.86,0,0,1-.86.87H260a.86.86,0,0,1-.87-.87V319.85A.87.87,0,0,1,260,319h13.41a.86.86,0,0,1,.86.85Z" transform="translate(-16.47 -27.52)"/>
                  <path class="cls-6" d="M292.74,333a.86.86,0,0,1-.87.87h-13.4a.86.86,0,0,1-.87-.87V319.85a.87.87,0,0,1,.87-.85h13.4a.87.87,0,0,1,.87.85Z" transform="translate(-16.47 -27.52)"/>
                  <path class="cls-6" d="M311.19,333a.86.86,0,0,1-.87.87H296.91A.87.87,0,0,1,296,333V319.85a.87.87,0,0,1,.87-.85h13.41a.87.87,0,0,1,.87.85Z" transform="translate(-16.47 -27.52)"/>
                  <path class="cls-6" d="M89.81,333a.87.87,0,0,1-.88.87H66.21a.86.86,0,0,1-.87-.87V319.85a.87.87,0,0,1,.87-.85H88.93a.87.87,0,0,1,.88.85Z" transform="translate(-16.47 -27.52)"/>
                  <path class="cls-6" d="M329.78,314.88a.88.88,0,0,1-.87.87H306.17a.88.88,0,0,1-.86-.87V301.72a.87.87,0,0,1,.86-.86h22.74a.87.87,0,0,1,.87.86Z" transform="translate(-16.47 -27.52)"/>
                  <path class="cls-6" d="M94.18,351.17a.86.86,0,0,1-.88.86H66.21a.86.86,0,0,1-.87-.86V338a.87.87,0,0,1,.87-.86H93.3a.87.87,0,0,1,.88.86Z" transform="translate(-16.47 -27.52)"/>
                  <path class="cls-6" d="M85.16,369.31a.88.88,0,0,1-.88.86H66.21a.87.87,0,0,1-.87-.86V356.13a.86.86,0,0,1,.87-.85H84.28a.87.87,0,0,1,.88.85Z" transform="translate(-16.47 -27.52)"/>
                  <path class="cls-6" d="M98.93,314.88a.86.86,0,0,1-.87.87H84.67a.87.87,0,0,1-.87-.87V301.72a.86.86,0,0,1,.87-.86H98.06a.86.86,0,0,1,.87.86Z" transform="translate(-16.47 -27.52)"/>
                  <path class="cls-6" d="M117.38,314.88a.86.86,0,0,1-.87.87H103.12a.87.87,0,0,1-.87-.87V301.72a.86.86,0,0,1,.87-.86h13.39a.86.86,0,0,1,.87.86Z" transform="translate(-16.47 -27.52)"/>
                  <path class="cls-6" d="M135.84,314.88a.88.88,0,0,1-.89.87H121.56a.87.87,0,0,1-.87-.87V301.72a.86.86,0,0,1,.87-.86H135a.87.87,0,0,1,.89.86Z" transform="translate(-16.47 -27.52)"/>
                  <path class="cls-6" d="M154.29,314.88a.88.88,0,0,1-.88.87H140a.88.88,0,0,1-.88-.87V301.72a.87.87,0,0,1,.88-.86h13.4a.87.87,0,0,1,.88.86Z" transform="translate(-16.47 -27.52)"/>
                  <path class="cls-6" d="M172.72,314.88a.86.86,0,0,1-.87.87h-13.4a.88.88,0,0,1-.87-.87V301.72a.87.87,0,0,1,.87-.86h13.4a.86.86,0,0,1,.87.86Z" transform="translate(-16.47 -27.52)"/>
                  <path class="cls-6" d="M191.18,314.88a.88.88,0,0,1-.88.87H176.91a.87.87,0,0,1-.87-.87V301.72a.86.86,0,0,1,.87-.86H190.3a.87.87,0,0,1,.88.86Z" transform="translate(-16.47 -27.52)"/>
                  <path class="cls-6" d="M209.62,314.88a.87.87,0,0,1-.87.87H195.36a.87.87,0,0,1-.88-.87V301.72a.86.86,0,0,1,.88-.86h13.39a.86.86,0,0,1,.87.86Z" transform="translate(-16.47 -27.52)"/>
                  <path class="cls-6" d="M228.07,314.88a.88.88,0,0,1-.88.87H213.8a.88.88,0,0,1-.88-.87V301.72a.87.87,0,0,1,.88-.86h13.39a.87.87,0,0,1,.88.86Z" transform="translate(-16.47 -27.52)"/>
                  <path class="cls-6" d="M246.52,314.88a.87.87,0,0,1-.87.87h-13.4a.87.87,0,0,1-.87-.87V301.72a.86.86,0,0,1,.87-.86h13.4a.86.86,0,0,1,.87.86Z" transform="translate(-16.47 -27.52)"/>
                  <path class="cls-6" d="M265,314.88a.88.88,0,0,1-.88.87H250.69a.88.88,0,0,1-.87-.87V301.72a.87.87,0,0,1,.87-.86H264.1a.87.87,0,0,1,.88.86Z" transform="translate(-16.47 -27.52)"/>
                  <path class="cls-6" d="M283.42,314.88a.88.88,0,0,1-.88.87H269.15a.87.87,0,0,1-.88-.87V301.72a.86.86,0,0,1,.88-.86h13.39a.87.87,0,0,1,.88.86Z" transform="translate(-16.47 -27.52)"/>
                  <path class="cls-6" d="M301.87,314.88a.87.87,0,0,1-.88.87h-13.4a.87.87,0,0,1-.87-.87V301.72a.86.86,0,0,1,.87-.86H301a.86.86,0,0,1,.88.86Z" transform="translate(-16.47 -27.52)"/>
                  <g>
                    <path class="cls-6" d="M296.19,382.48v7.25a.84.84,0,0,0,.25.61.89.89,0,0,0,.62.25h13.41a.89.89,0,0,0,.61-.25.84.84,0,0,0,.25-.61v-7.25Z" transform="translate(-16.47 -27.52)"/>
                    <path class="cls-6" d="M311.33,381.51v-7.25a.83.83,0,0,0-.25-.59.9.9,0,0,0-.61-.26H297.06a.91.91,0,0,0-.62.26.83.83,0,0,0-.25.59v7.25Z" transform="translate(-16.47 -27.52)"/>
                  </g>
                  <text x="-16.47" y="-27.52"/>                </g>
              </g>
              <g>
                <path class="cls-10" d="M61.54,110.47a14.19,14.19,0,0,0-10,4.06,13.71,13.71,0,0,0-4.13,9.79V283.6H347.67V124.32a13.71,13.71,0,0,0-4.13-9.79,14.19,14.19,0,0,0-10-4.06Z" transform="translate(-16.47 -27.52)"/>
                <g>
                  <path class="cls-11" d="M200.93,118.15a3.37,3.37,0,0,1-6.73,0,3.37,3.37,0,0,1,6.73,0Z" transform="translate(-16.47 -27.52)"/>
                  <path class="cls-6" d="M198.94,118.15a1.38,1.38,0,1,1-1.37-1.34A1.37,1.37,0,0,1,198.94,118.15Z" transform="translate(-16.47 -27.52)"/>
                </g>
                <g>
                  <g>
                    <rect class="cls-11" x="303.44" y="249.84" width="19.72" height="12.47"/>
                    <rect class="cls-10" x="303.44" y="256.08" width="19.72" height="6.23"/>
                  </g>
                  <g>
                    <rect class="cls-11" x="39.01" y="249.84" width="19.72" height="12.47"/>
                    <rect class="cls-10" x="39.01" y="256.08" width="19.72" height="6.23"/>
                  </g>
                </g>
                <g>
                  <rect class="cls-12" x="181.09" y="100.21" width="132.21" height="138.6"/>
                  <g>
                    <g>
                      <rect class="cls-13" x="190.82" y="120.39" width="33.86" height="5.1"/>
                      <rect class="cls-13" x="230.27" y="120.39" width="33.86" height="5.1"/>
                      <rect class="cls-13" x="269.71" y="120.39" width="33.86" height="5.1"/>
                    </g>
                    <rect class="cls-14" x="190.72" y="144.24" width="30.78" height="5.1"/>
                    <rect class="cls-14" x="190.72" y="158.19" width="30.78" height="22.65"/>
                    <rect class="cls-14" x="227.88" y="158.19" width="30.78" height="22.65"/>
                    <rect class="cls-14" x="227.88" y="158.19" width="30.78" height="22.65"/>
                    <g>
                      <rect class="cls-13" x="190.72" y="186.28" width="30.78" height="5.1"/>
                      <rect class="cls-14" x="190.72" y="208.46" width="67.94" height="5.1"/>
                      <rect class="cls-14" x="288.24" y="219.81" width="15.39" height="5.1"/>
                      <rect class="cls-13" x="190.72" y="219.81" width="30.78" height="5.1"/>
                      <rect class="cls-14" x="190.72" y="197.75" width="12.71" height="5.1"/>
                      <rect class="cls-14" x="208.8" y="197.75" width="12.71" height="5.1"/>
                      <rect class="cls-14" x="227.88" y="186.28" width="30.78" height="5.1"/>
                      <rect class="cls-13" x="288.24" y="186.28" width="15.39" height="5.1"/>
                    </g>
                    <rect class="cls-14" x="227.88" y="144.24" width="75.75" height="5.1"/>
                    <g>
                      <rect class="cls-14" x="265.04" y="158.19" width="38.59" height="2.04"/>
                      <rect class="cls-14" x="265.04" y="162.91" width="38.59" height="2.04"/>
                      <rect class="cls-14" x="265.04" y="167.63" width="19.3" height="2.04"/>
                    </g>
                  </g>
                </g>
                <g>
                  <rect class="cls-2" x="48.87" y="100.21" width="132.22" height="138.6"/>
                  <g>
                    <rect class="cls-7" x="63.83" y="110.56" width="6.99" height="3.63"/>
                    <rect class="cls-7" x="63.83" y="134.46" width="6.99" height="3.63"/>
                    <rect class="cls-7" x="72.62" y="110.56" width="32.92" height="3.63"/>
                    <rect class="cls-7" x="72.62" y="134.46" width="25.21" height="3.63"/>
                    <rect class="cls-7" x="70.82" y="119.65" width="11.1" height="3.63"/>
                    <rect class="cls-7" x="70.82" y="161.71" width="11.1" height="3.63"/>
                    <rect class="cls-7" x="84.55" y="161.71" width="29.04" height="3.63"/>
                    <rect class="cls-7" x="77.1" y="188.51" width="9.15" height="3.63"/>
                    <rect class="cls-7" x="91.13" y="224.84" width="16.08" height="3.63"/>
                    <rect class="cls-7" x="140.72" y="206.67" width="11.91" height="3.63"/>
                    <rect class="cls-7" x="116.87" y="161.71" width="20.88" height="3.63"/>
                    <rect class="cls-7" x="142" y="161.71" width="12.78" height="3.63"/>
                    <rect class="cls-7" x="70.82" y="143.55" width="16.57" height="3.64"/>
                    <rect class="cls-7" x="70.82" y="152.63" width="23.5" height="3.64"/>
                    <rect class="cls-7" x="77.1" y="197.59" width="26.94" height="3.63"/>
                    <rect class="cls-7" x="77.1" y="206.67" width="24.76" height="3.63"/>
                    <rect class="cls-7" x="109.86" y="206.67" width="25.66" height="3.63"/>
                    <rect class="cls-7" x="109.86" y="224.84" width="25.66" height="3.63"/>
                    <rect class="cls-7" x="63.83" y="188.51" width="9.52" height="3.63"/>
                    <rect class="cls-7" x="77.1" y="224.84" width="10.95" height="3.63"/>
                    <rect class="cls-7" x="82.7" y="215.76" width="16.81" height="3.63"/>
                    <rect class="cls-7" x="101.95" y="215.76" width="43.57" height="3.63"/>
                    <rect class="cls-7" x="96.83" y="152.63" width="23.5" height="3.64"/>
                    <rect class="cls-7" x="145.13" y="152.63" width="13.73" height="3.64"/>
                    <rect class="cls-7" x="121.96" y="152.63" width="14.68" height="3.64"/>
                    <rect class="cls-7" x="92.81" y="143.55" width="25.45" height="3.64"/>
                    <rect class="cls-7" x="88.85" y="119.65" width="10.22" height="3.63"/>
                  </g>
                </g>
              </g>
              <g>
                <path class="cls-10" d="M143.22,143.08c0,34-28,61.55-62.6,61.55S18,177.08,18,143.08s28-61.55,62.6-61.55S143.22,109.09,143.22,143.08Z" transform="translate(-16.47 -27.52)"/>
                <g>
                  <path class="cls-2" d="M132.79,143.08c0,28.33-23.36,51.29-52.17,51.29s-52.16-23-52.16-51.29S51.81,91.79,80.62,91.79,132.79,114.76,132.79,143.08Z" transform="translate(-16.47 -27.52)"/>
                  <g class="cls-15">
                    <g>
                      <rect class="cls-12" x="15.99" y="63.61" width="8.25" height="3.31"/>
                      <rect class="cls-1" x="15.99" y="86.44" width="8.25" height="3.3"/>
                      <rect class="cls-12" x="26.37" y="63.61" width="38.82" height="3.31"/>
                      <rect class="cls-1" x="26.37" y="86.44" width="29.74" height="3.3"/>
                      <rect class="cls-6" x="24.24" y="72.28" width="13.09" height="3.3"/>
                      <rect class="cls-6" x="24.24" y="112.45" width="13.09" height="3.3"/>
                      <rect class="cls-6" x="40.43" y="112.45" width="34.25" height="3.3"/>
                      <rect class="cls-12" x="31.64" y="129.53" width="10.79" height="3.31"/>
                      <rect class="cls-1" x="48.2" y="164.22" width="18.97" height="3.29"/>
                      <rect class="cls-1" x="106.68" y="146.86" width="14.05" height="3.32"/>
                      <rect class="cls-1" x="78.55" y="112.45" width="24.63" height="3.3"/>
                      <rect class="cls-6" x="108.2" y="112.45" width="15.08" height="3.3"/>
                      <rect class="cls-6" x="24.24" y="95.11" width="19.55" height="3.31"/>
                      <rect class="cls-6" x="24.24" y="103.78" width="27.72" height="3.31"/>
                      <rect class="cls-6" x="31.64" y="138.2" width="31.77" height="3.3"/>
                      <rect class="cls-6" x="31.64" y="146.86" width="29.2" height="3.32"/>
                      <rect class="cls-6" x="70.29" y="146.86" width="30.27" height="3.32"/>
                      <rect class="cls-1" x="70.29" y="164.22" width="30.27" height="3.29"/>
                      <rect class="cls-12" x="15.99" y="129.53" width="11.23" height="3.31"/>
                      <rect class="cls-6" x="31.64" y="164.22" width="12.91" height="3.29"/>
                      <rect class="cls-1" x="38.25" y="155.55" width="19.83" height="3.29"/>
                      <rect class="cls-6" x="60.95" y="155.55" width="51.39" height="3.29"/>
                      <rect class="cls-6" x="54.92" y="103.78" width="27.72" height="3.31"/>
                      <rect class="cls-12" x="111.88" y="103.78" width="16.2" height="3.31"/>
                      <rect class="cls-6" x="84.55" y="103.78" width="17.32" height="3.31"/>
                      <rect class="cls-6" x="50.18" y="95.11" width="30.03" height="3.31"/>
                      <rect class="cls-6" x="45.5" y="72.28" width="12.05" height="3.3"/>
                    </g>
                  </g>
                </g>
              </g>
            </g>
            <g>
              <path class="cls-6" d="M489,295.42c0,30-24.78,54.4-55.33,54.4s-55.34-24.36-55.34-54.4S403.12,241,433.68,241,489,265.37,489,295.42Z" transform="translate(-16.47 -27.52)"/>
              <path class="cls-16" d="M509.47,325.21a6,6,0,0,0-1.59-1.77,5.68,5.68,0,0,0-1.05-1,6,6,0,0,0-1.05-1,306.69,306.69,0,0,1-2.09-2.06,26382782806357.2,26382782806357.2,0,0,1-2.1-2.06,5.68,5.68,0,0,0-1-1,306.69,306.69,0,0,1-2.09-2.06,6,6,0,0,0-1.05-1,6,6,0,0,0-1-1,5.68,5.68,0,0,0-1.05-1,6,6,0,0,0-1-1,5.68,5.68,0,0,0-1.05-1,6.07,6.07,0,0,0-1-1,6,6,0,0,0-1.05-1,5.74,5.74,0,0,0-1.05-1,5.62,5.62,0,0,0-1-1,36.49,36.49,0,0,0-10.24-17.08c-.34-.36-17.86-17.58-18.21-17.91a37.57,37.57,0,0,0-26.95-11.3c-20.65,0-37.39,16.46-37.39,36.76a36.32,36.32,0,0,0,11.48,26.48c.35.36,17.86,17.58,18.21,17.91a37.71,37.71,0,0,0,61-10.23l4.88,1.31h0l10.86,2.91a6,6,0,0,0,4.54-.57,5.85,5.85,0,0,0,2.8-3.55A5.79,5.79,0,0,0,509.47,325.21Z" transform="translate(-16.47 -27.52)"/>
              <path class="cls-6" d="M490.78,310.75a5.88,5.88,0,0,1-2.8,3.55,6.11,6.11,0,0,1-4.54.57l-17.32-4.65,3.16-11.35,17.31,4.65a6,6,0,0,1,3.62,2.76A5.79,5.79,0,0,1,490.78,310.75Z" transform="translate(-16.47 -27.52)"/>
              <path class="cls-9" d="M469.28,298.87l-3.16,11.35,6.46,1.74a40.65,40.65,0,0,0,3.14-11.35Z" transform="translate(-16.47 -27.52)"/>
              <path class="cls-6" d="M471.06,295.42c0,20.3-16.74,36.75-37.38,36.75s-37.39-16.45-37.39-36.75,16.74-36.76,37.39-36.76S471.06,275.12,471.06,295.42Z" transform="translate(-16.47 -27.52)"/>
              <path class="cls-12" d="M465.08,295.42c0,17.05-14.06,30.88-31.4,30.88s-31.41-13.83-31.41-30.88,14.06-30.88,31.41-30.88S465.08,278.37,465.08,295.42Z" transform="translate(-16.47 -27.52)"/>
              <path class="cls-13" d="M411.24,304.24c0-17.05,14.06-30.88,31.41-30.88a31.63,31.63,0,0,1,17.26,5.09,31.54,31.54,0,0,0-26.23-13.91c-17.35,0-31.41,13.83-31.41,30.88a30.72,30.72,0,0,0,14.15,25.79A30.33,30.33,0,0,1,411.24,304.24Z" transform="translate(-16.47 -27.52)"/>
            </g>
            <g>
              <path class="cls-6" d="M432.07,478.81a21.2,21.2,0,0,1-21.32,21H395.24a21.21,21.21,0,0,1-21.33-21v-60a21.21,21.21,0,0,1,21.33-21h15.51a21.2,21.2,0,0,1,21.32,21Z" transform="translate(-16.47 -27.52)"/>
              <path class="cls-17" d="M422.25,401.2a20.88,20.88,0,0,1,.34,3.64v45.51A35,35,0,0,1,412,475.42a36.28,36.28,0,0,1-25.5,10.39h-.77a21.43,21.43,0,0,1-11.5-3.36,21.3,21.3,0,0,0,21,17.33h15.51a21.2,21.2,0,0,0,21.32-21v-60A20.92,20.92,0,0,0,422.25,401.2Z" transform="translate(-16.47 -27.52)"/>
              <path class="cls-10" d="M407.84,419.78A4.85,4.85,0,1,1,403,415,4.8,4.8,0,0,1,407.84,419.78Z" transform="translate(-16.47 -27.52)"/>
            </g>
            <rect class="cls-12" x="84.25" y="403.44" width="104.15" height="61.44"/>
            <rect class="cls-18" y="301.35" width="63.17" height="62.11"/>
            <g>
              <path class="cls-2" d="M530.71,407.81c0,22.65-18.67,41-41.7,41s-41.71-18.35-41.71-41,18.67-41,41.71-41S530.71,385.17,530.71,407.81Z" transform="translate(-16.47 -27.52)"/>
              <text class="cls-19" transform="translate(441.39 392.25) scale(1.04 1)">J<tspan class="cls-20" x="12.43" y="0">a</tspan><tspan class="cls-21" x="28.34" y="0">v</tspan><tspan x="44.36" y="0">a</tspan></text>
            </g>
            <rect class="cls-6" x="262.67" y="180.2" width="105.24" height="46.56"/>
          </g>
          <text class="cls-22" transform="translate(286.64 213.57) scale(1.02 1)">SQL</text>
          <text class="cls-23" transform="translate(8.59 342.92) scale(1.02 1)">CSS</text>
          <text class="cls-19" transform="translate(99.51 445.53) scale(0.93 1)">HTML</text>
        </g>
      </g>
    </g>
  </g>
</svg>
