<svg xmlns="http://www.w3.org/2000/svg" xmlns:xlink="http://www.w3.org/1999/xlink" width="552.571" height="531.449" viewBox="0 0 552.571 531.449">
  <defs>
    <linearGradient id="linear-gradient" x1="0.541" y1="0.087" x2="0.541" y2="1.087" gradientUnits="objectBoundingBox">
      <stop offset="0.2" stop-color="gray" stop-opacity="0.4"/>
      <stop offset="0.46" stop-color="gray" stop-opacity="0.502"/>
      <stop offset="1" stop-opacity="0.6"/>
    </linearGradient>
    <linearGradient id="linear-gradient-2" x1="0.602" y1="-0.327" x2="0.602" y2="0.673" gradientUnits="objectBoundingBox">
      <stop offset="0" stop-color="gray" stop-opacity="0.251"/>
      <stop offset="0.54" stop-color="gray" stop-opacity="0.122"/>
      <stop offset="1" stop-color="gray" stop-opacity="0.102"/>
    </linearGradient>
  </defs>
  <g id="Group_275" data-name="Group 275" transform="translate(-377.328 -360.896)">
    <path id="Path_412" data-name="Path 412" d="M256.313.1C397.678-.036,512.162,109.253,512.02,244.2c-.009,8.637-1.822,23.059-2.775,31.72C495.751,398.607,388.117,488.663,255.8,488.788,114.435,488.922-.049,379.633.093,244.685S114.949.231,256.313.1Z" transform="matrix(0.996, -0.087, 0.087, 0.996, 377.226, 405.424)" fill="#54b192"/>
    <g id="Group_2" data-name="Group 2" transform="translate(420.159 461.346)">
      <path id="Path_1" data-name="Path 1" d="M464.235,530.2c0,23.25-100.821,108.813-226.785,108.813S12.4,547.79,12.4,524.592s99.128,30.266,225.051,30.266S464.235,506.946,464.235,530.2Z" transform="translate(-5.153 -247.117)" fill="#3f3d56"/>
      <path id="Path_2" data-name="Path 2" d="M460.7,273.814v.943a35.948,35.948,0,0,1-12.331,26.025c-8.262,7.174-19.306,10.944-30.682,13.353-1.785.367-3.57.733-5.356,1.047-.913.157-1.827.314-2.7.471-25.285,4.189-51.109,4.975-76.85,5.76-26.9.838-53.808,1.676-80.712,2.095l-5.356.1c-40.854.576-81.666.1-122.354-2.828-12.622-.89-25.368-2.095-37.906-4.084-1.785-.262-3.571-.576-5.356-.89-16.607-2.985-32.716-7.593-47.414-15.081a98.29,98.29,0,0,1-10.172-5.917C14.3,288.633,6.532,280.831,2.671,271.248a40.635,40.635,0,0,1-2.657-18.17,53.829,53.829,0,0,1,.913-6.755,69.157,69.157,0,0,1,5.231-15.552c5.979-12.777,14.988-24.245,22.752-36.236,16.566-25.606,27.361-57.915,12.082-84.149-4.4-7.54-10.712-14.138-14.324-22.045a41.536,41.536,0,0,1-3.488-13.824,61.189,61.189,0,0,1-.208-6.755,115.173,115.173,0,0,1,1.578-15.6c2.491-16.076,7.141-33.408,21.506-43.462C55.939,1.782,68.436-.365,81.1.054q2.678.079,5.356.314A129.682,129.682,0,0,1,100.82,2.463c28.814,5.812,55.427,17.961,82.289,28.9,20.468,8.326,41.643,16.128,63.606,19.846,1.785.314,3.57.576,5.356.838a140.233,140.233,0,0,0,15.569,1.361c26.073.943,56.506-6.179,73.819-24.663,16.732-17.909,48.12-19.322,70.872-8.64l.332.157q2.553,1.257,4.982,2.671c16.773,9.949,28.025,26.968,29.6,44.824a44.472,44.472,0,0,1,.125,6.65v.052c-1.079,21.941-15.32,40.373-29.727,58.8-1.785,2.3-3.571,4.556-5.356,6.86-4.692,6.074-9.217,12.2-13.161,18.485a91.574,91.574,0,0,0-4.941,8.954,64.785,64.785,0,0,0-3.529,9.007,48.333,48.333,0,0,0-1.951,10.106,32.543,32.543,0,0,0,2.076,14.453l.042.1c3.861,9.635,12,16.442,21.465,22.517q2.616,1.649,5.356,3.3c10.255,6.074,21.257,11.782,29.644,19.27a52.932,52.932,0,0,1,6.311,6.7c.789,1.047,1.536,2.095,2.242,3.247a33.112,33.112,0,0,1,4.858,17.123C460.7,273.5,460.7,273.657,460.7,273.814Z" transform="translate(0.119 -0.004)" fill="#38d39f"/>
      <path id="Path_3" data-name="Path 3" d="M460.7,273.814v.943a35.948,35.948,0,0,1-12.331,26.025c-8.262,7.174-19.306,10.944-30.682,13.353-1.785.367-3.57.733-5.356,1.047-.913.157-1.827.314-2.7.471-25.285,4.189-51.109,4.975-76.85,5.76-26.9.838-53.808,1.676-80.712,2.095l-5.356.1c-40.854.576-81.666.1-122.354-2.828-12.622-.89-25.368-2.095-37.906-4.084-1.785-.262-3.571-.576-5.356-.89-16.607-2.985-32.716-7.593-47.414-15.081a98.29,98.29,0,0,1-10.172-5.917C14.3,288.633,6.532,280.831,2.671,271.248a40.635,40.635,0,0,1-2.657-18.17,53.829,53.829,0,0,1,.913-6.755,69.157,69.157,0,0,1,5.231-15.552c5.979-12.777,14.988-24.245,22.752-36.236,16.566-25.606,27.361-57.915,12.082-84.149-4.4-7.54-10.712-14.138-14.324-22.045a41.536,41.536,0,0,1-3.488-13.824,61.189,61.189,0,0,1-.208-6.755,115.173,115.173,0,0,1,1.578-15.6c2.491-16.076,7.141-33.408,21.506-43.462C55.939,1.782,68.436-.365,81.1.054q2.678.079,5.356.314A129.682,129.682,0,0,1,100.82,2.463c28.814,5.812,55.427,17.961,82.289,28.9,20.468,8.326,41.643,16.128,63.606,19.846,1.785.314,3.57.576,5.356.838a140.233,140.233,0,0,0,15.569,1.361c26.073.943,56.506-6.179,73.819-24.663,16.732-17.909,48.12-19.322,70.872-8.64l.332.157q2.553,1.257,4.982,2.671c16.773,9.949,28.025,26.968,29.6,44.824a44.472,44.472,0,0,1,.125,6.65v.052c-1.079,21.941-15.32,40.373-29.727,58.8-1.785,2.3-3.571,4.556-5.356,6.86-4.692,6.074-9.217,12.2-13.161,18.485a91.574,91.574,0,0,0-4.941,8.954,64.785,64.785,0,0,0-3.529,9.007,48.333,48.333,0,0,0-1.951,10.106,32.543,32.543,0,0,0,2.076,14.453l.042.1c3.861,9.635,12,16.442,21.465,22.517q2.616,1.649,5.356,3.3c10.255,6.074,21.257,11.782,29.644,19.27a52.932,52.932,0,0,1,6.311,6.7c.789,1.047,1.536,2.095,2.242,3.247a33.112,33.112,0,0,1,4.858,17.123C460.7,273.5,460.7,273.657,460.7,273.814Z" transform="translate(0.119 -0.004)" fill="url(#linear-gradient)"/>
      <path id="Path_4" data-name="Path 4" d="M1000.768,41.175V151.559c-2.489,2.3-4.979,4.556-7.468,6.86V38.4Z" transform="translate(-599.926 -18.294)" fill="#3f3d56"/>
      <path id="Path_5" data-name="Path 5" d="M465.693,136v.052H55.88a63.325,63.325,0,0,1-.2-6.755H465.573A46.744,46.744,0,0,1,465.693,136Z" transform="translate(-23.37 -61.595)" fill="#3f3d56"/>
      <ellipse id="Ellipse_1" data-name="Ellipse 1" cx="2.2" cy="1.99" rx="2.2" ry="1.99" transform="translate(98.432 35.605)" fill="#e7effd"/>
      <ellipse id="Ellipse_2" data-name="Ellipse 2" cx="2.2" cy="1.99" rx="2.2" ry="1.99" transform="translate(68.093 31.678)" fill="#e7effd"/>
      <ellipse id="Ellipse_3" data-name="Ellipse 3" cx="0.926" cy="0.838" rx="0.926" ry="0.838" transform="translate(117.043 36.757)" fill="#e7effd"/>
      <ellipse id="Ellipse_4" data-name="Ellipse 4" cx="0.926" cy="0.838" rx="0.926" ry="0.838" transform="translate(93.566 34.82)" fill="#e7effd"/>
      <ellipse id="Ellipse_5" data-name="Ellipse 5" cx="0.926" cy="0.838" rx="0.926" ry="0.838" transform="translate(92.64 93.677)" fill="#e7effd"/>
      <ellipse id="Ellipse_6" data-name="Ellipse 6" cx="0.926" cy="0.838" rx="0.926" ry="0.838" transform="translate(367.431 49.168)" fill="#e7effd"/>
      <ellipse id="Ellipse_7" data-name="Ellipse 7" cx="0.926" cy="0.838" rx="0.926" ry="0.838" transform="translate(148.189 49.953)" fill="#e7effd"/>
      <ellipse id="Ellipse_8" data-name="Ellipse 8" cx="0.926" cy="0.838" rx="0.926" ry="0.838" transform="translate(341.409 48.277)" fill="#e7effd"/>
      <ellipse id="Ellipse_9" data-name="Ellipse 9" cx="0.926" cy="0.838" rx="0.926" ry="0.838" transform="translate(412.189 50.791)" fill="#e7effd"/>
      <path id="Path_6" data-name="Path 6" d="M484.769,413.433v.943A36.371,36.371,0,0,1,472.7,440.662c-8.086,7.174-18.894,10.944-30.027,13.353-1.747.367-3.494.733-5.242,1.047-.894.157-1.788.314-2.641.471-6.095,1.047-12.23,1.833-18.365,2.513-8.248.89-16.537,1.519-24.826,1.99-10.646.628-21.332.943-31.977,1.309q-31.266,1.021-62.573,1.78l-7.395.157-9.02.157-5.241.1c-32.912.471-65.783.209-98.572-1.518-2.194-.1-4.348-.21-6.542-.367q-7.314-.393-14.627-.943c-9.752-.733-19.625-1.623-29.377-2.932-2.6-.367-5.16-.733-7.72-1.152-1.747-.262-3.494-.576-5.242-.89-1.95-.366-3.86-.733-5.77-1.152-14.221-2.985-27.954-7.331-40.591-13.929A91.678,91.678,0,0,1,57,434.745V342.584c1.788-2.671,3.576-5.393,5.323-8.116,2.072-3.3,4.063-6.65,5.892-10.106h39.331V293.1h69.277v68.545H289.656V307.186H419.84a63.992,63.992,0,0,0-3.413,8.693v.314h-.163a49.276,49.276,0,0,0-1.91,10.106,33.2,33.2,0,0,0,2.032,14.453v.209l.041.1c3.779,9.635,11.742,16.442,21.006,22.516q2.56,1.65,5.241,3.3c9.914,6.022,20.6,11.625,28.767,19.06l.244.21a46.825,46.825,0,0,1,6.014,6.493.733.733,0,0,1,.162.209c.772,1.047,1.5,2.095,2.194,3.247a33.687,33.687,0,0,1,4.754,16.914A1.3,1.3,0,0,0,484.769,413.433Z" transform="translate(-23.932 -139.623)" fill="#38d39f"/>
      <path id="Path_7" data-name="Path 7" d="M484.769,413.433v.943A36.371,36.371,0,0,1,472.7,440.662c-8.086,7.174-18.894,10.944-30.027,13.353-1.747.367-3.494.733-5.242,1.047-.894.157-1.788.314-2.641.471-6.095,1.047-12.23,1.833-18.365,2.513-8.248.89-16.537,1.519-24.826,1.99-10.646.628-21.332.943-31.977,1.309q-31.266,1.021-62.573,1.78l-7.395.157-9.02.157-5.241.1c-32.912.471-65.783.209-98.572-1.518-2.194-.1-4.348-.21-6.542-.367q-7.314-.393-14.627-.943c-9.752-.733-19.625-1.623-29.377-2.932-2.6-.367-5.16-.733-7.72-1.152-1.747-.262-3.494-.576-5.242-.89-1.95-.366-3.86-.733-5.77-1.152-14.221-2.985-27.954-7.331-40.591-13.929A91.678,91.678,0,0,1,57,434.745V342.584c1.788-2.671,3.576-5.393,5.323-8.116,2.072-3.3,4.063-6.65,5.892-10.106h39.331V293.1h69.277v68.545H289.656V307.186H419.84a63.992,63.992,0,0,0-3.413,8.693v.314h-.163a49.276,49.276,0,0,0-1.91,10.106,33.2,33.2,0,0,0,2.032,14.453v.209l.041.1c3.779,9.635,11.742,16.442,21.006,22.516q2.56,1.65,5.241,3.3c9.914,6.022,20.6,11.625,28.767,19.06l.244.21a46.825,46.825,0,0,1,6.014,6.493.733.733,0,0,1,.162.209c.772,1.047,1.5,2.095,2.194,3.247a33.687,33.687,0,0,1,4.754,16.914A1.3,1.3,0,0,0,484.769,413.433Z" transform="translate(-23.932 -139.623)" opacity="0.3"/>
      <rect id="Rectangle_1" data-name="Rectangle 1" width="16.557" height="10.106" transform="translate(51.42 197.306)" opacity="0.4"/>
      <rect id="Rectangle_2" data-name="Rectangle 2" width="16.557" height="10.106" transform="translate(77.935 197.306)" opacity="0.4"/>
      <rect id="Rectangle_3" data-name="Rectangle 3" width="16.557" height="10.106" transform="translate(271.18 176.517)" opacity="0.4"/>
      <rect id="Rectangle_4" data-name="Rectangle 4" width="16.557" height="10.106" transform="translate(302.899 176.517)" opacity="0.4"/>
      <rect id="Rectangle_5" data-name="Rectangle 5" width="16.557" height="10.106" transform="translate(337.001 176.517)" opacity="0.4"/>
      <rect id="Rectangle_6" data-name="Rectangle 6" width="16.557" height="10.106" transform="translate(271.18 207.412)" opacity="0.4"/>
      <rect id="Rectangle_7" data-name="Rectangle 7" width="16.557" height="10.106" transform="translate(302.899 207.412)" opacity="0.4"/>
      <rect id="Rectangle_8" data-name="Rectangle 8" width="16.557" height="10.106" transform="translate(337.001 207.412)" fill="#e52478"/>
      <rect id="Rectangle_9" data-name="Rectangle 9" width="16.557" height="10.106" transform="translate(271.18 238.307)" opacity="0.4"/>
      <rect id="Rectangle_10" data-name="Rectangle 10" width="16.557" height="10.106" transform="translate(302.899 238.307)" opacity="0.4"/>
      <rect id="Rectangle_11" data-name="Rectangle 11" width="16.557" height="10.106" transform="translate(337.001 238.307)" opacity="0.4"/>
      <rect id="Rectangle_12" data-name="Rectangle 12" width="16.557" height="10.106" transform="translate(271.18 269.202)" opacity="0.4"/>
      <rect id="Rectangle_13" data-name="Rectangle 13" width="16.557" height="10.106" transform="translate(302.899 269.202)" opacity="0.4"/>
      <rect id="Rectangle_14" data-name="Rectangle 14" width="16.557" height="10.106" transform="translate(337.001 269.202)" opacity="0.4"/>
      <rect id="Rectangle_15" data-name="Rectangle 15" width="16.557" height="10.106" transform="translate(271.18 300.044)" opacity="0.4"/>
      <rect id="Rectangle_16" data-name="Rectangle 16" width="16.557" height="10.106" transform="translate(302.899 300.044)" opacity="0.4"/>
      <rect id="Rectangle_17" data-name="Rectangle 17" width="16.557" height="10.106" transform="translate(337.001 300.044)" opacity="0.4"/>
      <path id="Path_8" data-name="Path 8" d="M932.61,337.2a36.52,36.52,0,0,0-2.721,10.106H920.8V337.2Z" transform="translate(-564.305 -160.631)" opacity="0.4"/>
      <rect id="Rectangle_18" data-name="Rectangle 18" width="16.557" height="10.106" transform="translate(356.351 207.412)" fill="#e52478"/>
      <rect id="Rectangle_19" data-name="Rectangle 19" width="16.557" height="10.106" transform="translate(356.351 238.307)" opacity="0.4"/>
      <rect id="Rectangle_20" data-name="Rectangle 20" width="16.557" height="10.106" transform="translate(356.351 269.202)" opacity="0.4"/>
      <rect id="Rectangle_21" data-name="Rectangle 21" width="16.557" height="10.106" transform="translate(356.351 300.044)" opacity="0.4"/>
      <rect id="Rectangle_22" data-name="Rectangle 22" width="16.557" height="10.106" transform="translate(101.697 164.735)" opacity="0.4"/>
      <rect id="Rectangle_23" data-name="Rectangle 23" width="16.557" height="10.106" transform="translate(101.697 187.409)" fill="#e52478"/>
      <rect id="Rectangle_24" data-name="Rectangle 24" width="16.557" height="10.106" transform="translate(101.697 210.03)" opacity="0.4"/>
      <rect id="Rectangle_25" data-name="Rectangle 25" width="16.557" height="10.106" transform="translate(101.697 232.704)" opacity="0.4"/>
      <rect id="Rectangle_26" data-name="Rectangle 26" width="16.557" height="10.106" transform="translate(101.697 255.377)" opacity="0.4"/>
      <rect id="Rectangle_27" data-name="Rectangle 27" width="16.557" height="10.106" transform="translate(101.697 277.999)" opacity="0.4"/>
      <rect id="Rectangle_28" data-name="Rectangle 28" width="16.557" height="10.106" transform="translate(101.697 300.673)" opacity="0.4"/>
      <rect id="Rectangle_29" data-name="Rectangle 29" width="16.557" height="10.106" transform="translate(51.42 223.697)" opacity="0.4"/>
      <rect id="Rectangle_30" data-name="Rectangle 30" width="16.557" height="10.106" transform="translate(77.935 223.697)" opacity="0.4"/>
      <rect id="Rectangle_31" data-name="Rectangle 31" width="16.557" height="10.106" transform="translate(51.42 250.141)" opacity="0.4"/>
      <rect id="Rectangle_32" data-name="Rectangle 32" width="16.557" height="10.106" transform="translate(77.935 250.141)" opacity="0.4"/>
      <rect id="Rectangle_33" data-name="Rectangle 33" width="16.557" height="10.106" transform="translate(51.42 276.533)" opacity="0.4"/>
      <rect id="Rectangle_34" data-name="Rectangle 34" width="16.557" height="10.106" transform="translate(77.935 276.533)" opacity="0.4"/>
      <rect id="Rectangle_35" data-name="Rectangle 35" width="82.787" height="9.059" transform="translate(159.959 233.803)" opacity="0.4"/>
      <rect id="Rectangle_36" data-name="Rectangle 36" width="82.787" height="9.059" transform="translate(159.959 262.604)" opacity="0.4"/>
      <rect id="Rectangle_37" data-name="Rectangle 37" width="82.787" height="9.059" transform="translate(159.959 291.404)" opacity="0.4"/>
      <path id="Path_9" data-name="Path 9" d="M202.968.414V316.693c-2.489-.262-4.979-.576-7.468-.89V.1Q199.234.179,202.968.414Z" transform="translate(-108 -0.05)" fill="#3f3d56"/>
      <path id="Path_10" data-name="Path 10" d="M601.868,98.585V370.093l-7.468.1V97.8C596.889,98.062,599.379,98.376,601.868,98.585Z" transform="translate(-348.702 -46.59)" fill="#3f3d56"/>
      <path id="Path_11" data-name="Path 11" d="M451.035,477.055H.3a54.152,54.152,0,0,1,.908-6.755H444.764A47.451,47.451,0,0,1,451.035,477.055Z" transform="translate(-0.058 -224.034)" fill="#3f3d56"/>
      <path id="Path_12" data-name="Path 12" d="M993.3,427.2q3.648,1.649,7.468,3.3v87.134c-2.489.366-4.979.733-7.468,1.047Z" transform="translate(-599.926 -203.503)" fill="#3f3d56"/>
      <path id="Path_13" data-name="Path 13" d="M335.126,228.657h-1.447V227.4h-.232v1.257H332v.262h1.447v1.257h.232v-1.257h1.447Z" transform="translate(-194.371 -108.326)" fill="#e7effd"/>
      <path id="Path_14" data-name="Path 14" d="M846.426,177.509h-1.447V176.2h-.289v1.309H843.3v.209h1.39v1.309h.289v-1.309h1.447Z" transform="translate(-493.79 -83.937)" fill="#e7effd"/>
      <path id="Path_15" data-name="Path 15" d="M393.368,167.557h-1.389V166.3h-.289v1.257H390.3v.262h1.389v1.257h.289v-1.257h1.389Z" transform="translate(-228.506 -79.221)" fill="#e7effd"/>
      <ellipse id="Ellipse_10" data-name="Ellipse 10" cx="0.926" cy="0.838" rx="0.926" ry="0.838" transform="translate(161.916 169.867)" fill="#e7effd"/>
      <ellipse id="Ellipse_11" data-name="Ellipse 11" cx="0.926" cy="0.838" rx="0.926" ry="0.838" transform="translate(314.203 94.515)" fill="#e7effd"/>
      <ellipse id="Ellipse_12" data-name="Ellipse 12" cx="0.926" cy="0.838" rx="0.926" ry="0.838" transform="translate(356.075 134.469)" fill="#e7effd"/>
      <ellipse id="Ellipse_13" data-name="Ellipse 13" cx="0.926" cy="0.838" rx="0.926" ry="0.838" transform="translate(276.214 141.695)" fill="#e7effd"/>
      <path id="Path_16" data-name="Path 16" d="M553.766,354.682s-19.857,4.346-27.731,12.463c-2.605,2.723-6.542,4.66-10.594,6.074V360.966c4.516-6.912,9.147-14.557,9.147-14.557.232-.366,1.853-5.655,1.853-5.655,3.705-2.671-.232-11.887-.232-11.887s2.258-5.865,1.042-7.017-.232-4.137.81-5.5.81-3.037.81-4.137-1.679-2.828-4.342-3.77.232-2.461,1.853-2.828,2.084-3.98.232-5.865.232-3.037,1.216-5.079-3.3-1.728-3.3-1.728V273.832h0s-1.274-6.231-2.489-17.228-6.021-12.1-6.021-12.1a62.685,62.685,0,0,1-7.468-2.671,50.829,50.829,0,0,0-7.873-2.618,44.589,44.589,0,0,1-10.131-1.257A34.68,34.68,0,0,0,483.6,236.6l-.753-.314a25.9,25.9,0,0,1-12.563-12.044l-.347-.785a28.622,28.622,0,0,0,3.3-3.98v2.2h0v.052c3.3-5.289,12.852-6.493,13.779-12.515a4.084,4.084,0,0,0,.058-.838V207.7c-.116-1.676-.753-3.351-.868-5.027a6.214,6.214,0,0,1,0-1.466v.052c.405-4.66,4.342-8.745,6.079-13.3a14.427,14.427,0,0,0,.926-3.77v-.052c.058-.367.058-.785.116-1.152v-1.1a16.911,16.911,0,0,0-6.484-12.777c-3.3-2.618-7.642-4.242-9.958-7.593-1.042-1.571-1.563-3.456-2.779-4.975-2.2-2.88-6.195-4.032-10.016-4.451s-7.7-.262-11.347-1.361c-2.605-.785-4.921-2.147-7.526-2.828a15.272,15.272,0,0,0-15.457,5.027c-1.389,1.833-2.258,3.98-4.11,5.393-3.763,2.88-10.247,1.623-13.547,4.975-1.853,1.833-2.026,4.346-1.795,6.912v.1c0,.209.058.419.058.576v.262a.711.711,0,0,0,.058.314c.116.943.289,1.833.405,2.723,0,.157.058.262.058.419l.116.838c0,.209.058.419.058.576s.058.524.058.733a1.949,1.949,0,0,0,.058.576,37.513,37.513,0,0,1-4.747,20.16c-3.126,5.551-7.816,10.682-8.626,16.861a18.18,18.18,0,0,0-.116,3.089v.367c0,.1.058.367.058.524s.058.419.058.628c0,.1.058.262.058.366.058.262.058.576.116.838l.058.157c.811,4.242,2.663,8.378,3.705,12.672a33.949,33.949,0,0,1,.753,4.765v.052a13.775,13.775,0,0,1,.058,1.519v2.095a49.83,49.83,0,0,1-4.805,1.361c-2.895.367-11.4,7.174-10.768,8.9s-3.821,13.615-3.937,13.981h0l-6.947,43.462s-3.705,3.194-2.547,5.289-.232,5.655-.232,5.655-6.253,2.461-4.863,3.98.753,4.346-.174,6.231-2.489,5.289,0,5.865.579,7.959.579,7.959,8.742-.89,8.105,3.77c-.232,1.466,6.079,5.6,8.742,7.226V377.67a77.345,77.345,0,0,1-10.363-3.194c-5.384-2.252-35.6-6.6-42.2,6.441s9.089,30.423,13.026,32.309c0,0,3.705,2.618,4.574,3.98s5.558,1.728,5.558,1.728,4.979,2.095,6.195,3.194c.926.838,8.452,3.037,17.426,4.713h0s-7.237,15.081,4.574,13.824,17.6-6.493,25.878-6.493c3.358,0,9.494-.419,15.747-.943a45.174,45.174,0,0,1,4.631.995,68.384,68.384,0,0,0,10.768,2.095s9.321,4.556,14.3,3.4a2.617,2.617,0,0,0,1.1-.524h.116a6.584,6.584,0,0,0,3.01-2.3c6.195.576,13.315,1.414,15.979,2.3,5.152,1.78,41.973-.681,41.973-.681s23.794.419,30.568,2.3,4.4-19.008-8.163-21.365a55.375,55.375,0,0,0-10.189-.89,20.955,20.955,0,0,0,2.374-2.618c4.516-.367,7.526-.628,7.526-.628s11.984-5.289,18.815-8.535a43.037,43.037,0,0,0,11.579-8.326s6.021-3.4,8.51-4.713,3.705-5.655,3.705-5.655C601.528,349.551,553.766,354.682,553.766,354.682Zm-53.9-48.384v-1.885c.637.419.579,1.1,0,1.885Zm.174,13.353c.521.576.984,1.152,1.332,1.571,1.331,1.571-1.1,2.3-.926,4.922.058.576.116,1.414.174,2.3h0c-.232-3.77-.463-6.86-.579-8.8Z" transform="translate(-229.689 -70.243)" fill="url(#linear-gradient-2)"/>
      <path id="Path_17" data-name="Path 17" d="M392.4,583.679s-11.579-2.461-16.963-4.66-35.6-6.545-42.2,6.389,9.089,30.109,13.026,31.994,42.2-23.773,42.2-23.773l30.22,11.52,5.789-17.856Z" transform="translate(-203.064 -274.629)" fill="#65617d"/>
      <path id="Path_18" data-name="Path 18" d="M480,597h88.808c11.752,0,21.3,8.64,21.3,19.27v2.775c0,10.63-9.552,19.27-21.3,19.27H480c-11.752,0-21.3-8.64-21.3-19.27V616.27C458.642,605.64,468.194,597,480,597Z" transform="translate(-287.512 -284.389)" fill="#65617d"/>
      <path id="Path_19" data-name="Path 19" d="M590.075,617.684a19.111,19.111,0,0,1-3.821,11.415,22.42,22.42,0,0,1-2.895,3.194,24.213,24.213,0,0,1-16.152,6.074h-85.74c-12.621,0-22.868-9.269-22.868-20.684S468.847,597,481.468,597h85.74C579.828,597,590.075,606.268,590.075,617.684Z" transform="translate(-287.46 -284.388)" opacity="0.1"/>
      <path id="Path_20" data-name="Path 20" d="M498.691,638.8s-13.2,3.037-23.91,2.932c-10.768-.157-61.077,18.746-61.077,18.746s-7.237,14.924,4.574,13.719,17.6-6.441,25.878-6.441,34.562-2.618,34.562-2.618l25.241-16.861Z" transform="translate(-251.928 -304.3)" fill="#8a382e"/>
      <path id="Path_21" data-name="Path 21" d="M531.119,321.053l-23.62,4.189-1.563.262s-18.7-4.5-19.336-4.87-17.6-21.05-17.6-21.05,8.568.1,15.342-3.4a4.894,4.894,0,0,0,.695-.419,14.066,14.066,0,0,0,6.368-7.069l.347-.942a17.853,17.853,0,0,0-.174-9.216c-2.316-8.745,3.01-11.154,10.074-10.944,10.189.314,24.083,6.074,24.083,6.074a23.387,23.387,0,0,0,2.2,8.535l.347.785a25.7,25.7,0,0,0,12.563,11.939l.753.314c.753.314,1.563.628,2.374.89C561.977,302.359,531.119,321.053,531.119,321.053Z" transform="translate(-285.24 -127.465)" fill="#8a382e"/>
      <path id="Path_22" data-name="Path 22" d="M544.309,283.041c-9.263,9.478-24.547,11.887-36.82,5.76,1.042-2.671,1.216-6.022.116-10.159-5.616-21.365,34.157-4.87,34.157-4.87A25.034,25.034,0,0,0,544.309,283.041Z" transform="translate(-301.591 -127.522)" opacity="0.1"/>
      <path id="Path_23" data-name="Path 23" d="M545.193,236.22a23.825,23.825,0,0,1-4.839,14.243,28.749,28.749,0,0,1-3.536,3.927,34.355,34.355,0,0,1-21.649,8.692c-.62.052-1.3.052-1.923.052-17.617,0-31.947-12.044-31.947-26.968S495.567,209.2,513.246,209.2c17.617.052,31.947,12.148,31.947,27.02Z" transform="translate(-289.478 -99.657)" fill="#8a382e"/>
      <path id="Path_24" data-name="Path 24" d="M531.119,345.93l-23.62,4.189-1.563.262s-18.7-4.5-19.336-4.87S469,324.46,469,324.46s8.568.1,15.342-3.4a4.9,4.9,0,0,0,.695-.419,28.924,28.924,0,0,0,20.147,7.959,38.172,38.172,0,0,0,4.226-.262c3.3-.471,6.658-.785,10.016-1.047,6.426-.628,16.21-2.356,21.363-7.488l.753.314c.753.314,1.563.628,2.374.89C561.977,327.236,531.119,345.93,531.119,345.93Z" transform="translate(-285.236 -152.342)" opacity="0.1"/>
      <path id="Path_25" data-name="Path 25" d="M519.835,400.884c.147,4.137,3,50.531,3,50.531H435.15l.59-29.219.492-23.354.147-7.7.688-26.6-2.556-2.409L420.7,349.148h0c.1-.366,3.834-12.2,3.342-13.824s6.684-8.431,9.142-8.8a41.791,41.791,0,0,0,4.129-1.309c4.129-1.571,9.683-3.823,10.272-3.456.885.471,9.486-.367,9.83-.419h0s6.34,8.745,17.743,8.692a20.756,20.756,0,0,0,3.588-.314c2.8-.471,5.652-.785,8.5-1.047,5.7-.628,14.6-2.566,18.775-8.274a26.064,26.064,0,0,1,5.9,1.361,32.631,32.631,0,0,0,8.6,1.257,43.531,43.531,0,0,1,6.685,2.618,47.913,47.913,0,0,0,6.34,2.618s4.03,1.1,5.112,11.991,2.114,17.018,2.114,17.018l-20.889,19.27C519.835,376.534,519.688,396.747,519.835,400.884Z" transform="translate(-255.837 -156.775)" fill="#38d39f"/>
      <path id="Path_26" data-name="Path 26" d="M418.105,521.419l3.647,5.236L435.3,531l9.321-15.4-8.568-5.236-13.779-4.87-7.873,4.137Z" transform="translate(-245.642 -240.802)" fill="#8a382e"/>
      <path id="Path_27" data-name="Path 27" d="M619.252,565.227s19.22-1.309,27.094-9.373S674.077,543.5,674.077,543.5s47.82-5.079,28.947,33.147c0,0-1.216,4.294-3.705,5.6s-8.51,4.661-8.51,4.661L617.4,581.094Z" transform="translate(-377.481 -258.795)" fill="#65617d"/>
      <path id="Path_28" data-name="Path 28" d="M629.715,622.4a19.112,19.112,0,0,1-3.821,11.415c-12.331.995-39.715,3.3-45.446,4.765-7.063,1.78-21.247-1.309-22.81-1.676l-.174-.052s-2.721-7.54-4.052-12.358c-.579-2.2-.869-3.823-.521-3.927,1.274-.367,12.621-3.194,12.447-1.571s34.157-12.1,34.157-12.1l1.042,11.991C604.068,622.609,629.715,617.216,629.715,622.4Z" transform="translate(-335.513 -289.104)" opacity="0.1"/>
      <path id="Path_29" data-name="Path 29" d="M666,612.97l-1.448,4.87a41.592,41.592,0,0,1-11.578,8.221c-6.831,3.194-18.815,8.431-18.815,8.431s-44.057,3.351-51.525,5.236-22.983-1.676-22.983-1.676-5.789-15.919-4.574-16.285,12.621-3.194,12.447-1.571,34.157-12.1,34.157-12.1Z" transform="translate(-343.457 -289.676)" fill="#65617d"/>
      <path id="Path_30" data-name="Path 30" d="M534.9,681.083s21.652,1.361,26.8,3.142,41.972-.681,41.972-.681,23.794.419,30.568,2.252,4.4-18.851-8.163-21.155-30.278,1.1-30.278,1.1-19.973-2.356-22.4-2.618-18.41.157-18.41.157Z" transform="translate(-329.493 -315.845)" fill="#8a382e"/>
      <path id="Path_31" data-name="Path 31" d="M387.8,598.9s28.657,2.356,36.531,6.6Z" transform="translate(-230.565 -285.294)" opacity="0.1"/>
      <path id="Path_32" data-name="Path 32" d="M673.6,566.5s-22.4,4.922-31.2,12.2Z" transform="translate(-380.997 -269.86)" opacity="0.1"/>
      <path id="Path_33" data-name="Path 33" d="M390.7,587.6c.463.157,13.2,1.623,12.852,2.723S390.7,587.6,390.7,587.6Z" transform="translate(-229.74 -279.911)" opacity="0.1"/>
      <path id="Path_34" data-name="Path 34" d="M356.1,632.225l1.679,5.6s3.705,2.618,4.574,3.927,5.558,1.676,5.558,1.676,4.979,2.042,6.195,3.194,14.7,4.66,27.326,6.179,36.01,4.294,40.988,5.812a62.785,62.785,0,0,0,10.768,2.042s9.321,4.5,14.3,3.351,13.431-21.522,13.431-21.522-32.71-6.912-33.752-9.164S414.688,620.6,414.688,620.6l-18.642.419Z" transform="translate(-222.258 -295.631)" opacity="0.1"/>
      <path id="Path_35" data-name="Path 35" d="M354,624.655l1.679,5.6s3.705,2.618,4.574,3.927,5.558,1.676,5.558,1.676,4.979,2.042,6.195,3.194,14.7,4.66,27.326,6.179,36.01,4.294,40.988,5.812a62.773,62.773,0,0,0,10.768,2.042s9.321,4.5,14.3,3.351,13.431-21.522,13.431-21.522-32.71-6.912-33.752-9.164-47.183-19.27-47.183-19.27L383.41,603.5Z" transform="translate(-220.947 -287.485)" fill="#65617d"/>
      <path id="Path_36" data-name="Path 36" d="M423.257,371.8l-5.59,1.885-10.648,43.043s-5.679,3.194-3.9,5.236-.355,5.6-.355,5.6-9.584,2.461-7.454,3.927,1.154,4.294-.266,6.179-3.816,5.236,0,5.812.621,7.855.621,7.855,13.4-.89,12.423,3.718c-.444,1.885,15.174,7.855,15.174,7.855s-17.659-18.9,21.918-16.285L448.547,436s3.372-6.022,0-7.855.8-10.735.8-10.735l.71-38.645Z" transform="translate(-252.226 -177.112)" fill="#38d39f"/>
      <path id="Path_37" data-name="Path 37" d="M417.4,478c.463.681,14.415,2.095,15.284,4.346S417.4,478,417.4,478Z" transform="translate(-245.717 -227.702)" opacity="0.1"/>
      <path id="Path_38" data-name="Path 38" d="M409.8,494.3s1.91-5.341,6.368-4.4S409.8,494.3,409.8,494.3Z" transform="translate(-240.389 -233.317)" opacity="0.1"/>
      <path id="Path_39" data-name="Path 39" d="M405.6,507.273s3.358-7.122,7.873-6.6S405.6,507.273,405.6,507.273Z" transform="translate(-238.076 -238.49)" opacity="0.1"/>
      <path id="Path_40" data-name="Path 40" d="M638.152,504.95,636.7,512.8s-14.878,24.716-17.6,25.082-17.368-16.494-17.368-16.494L597.8,504.9l15.457-2.671,6.889-6.127C620.147,496.152,637.515,497.671,638.152,504.95Z" transform="translate(-356.105 -236.324)" fill="#8a382e"/>
      <path id="Path_41" data-name="Path 41" d="M644.028,381.164l6.8,3.689v19.582s5.258-.38,4,1.736-3.785,3.309-1.472,5.262,1.753,5.641-.281,6.021-5.538,1.953-2.243,2.929,5.258,2.712,5.258,3.906.281,2.929-.981,4.285-2.524,4.448-.981,5.641-1.262,7.16-1.262,7.16,4.767,9.493.281,12.2c0,0-2.033,5.424-2.243,5.8,0,0,3.154-18.877-28.392-10.9,0,0-.561-7.214-.771-9.873s2.734-3.417,1.122-5.045-5.678-5.262-3.785-6.184,1.262-2.712.49-4.068-3.365-1.356-.982-2.983,3.856-3.2,2.384-3.96-3.856-3.309-1.893-4.448,2.033-18.009,2.033-18.009S629.026,368.959,644.028,381.164Z" transform="translate(-367.436 -179.972)" fill="#38d39f"/>
      <path id="Path_42" data-name="Path 42" d="M650.8,444.717s7.932-1.938,8.221,0S650.8,444.717,650.8,444.717Z" transform="translate(-381.922 -211.437)" opacity="0.1"/>
      <path id="Path_43" data-name="Path 43" d="M635.3,454.647s10.884-2.461,12.273-.524S635.3,454.647,635.3,454.647Z" transform="translate(-373.518 -215.974)" opacity="0.1"/>
      <path id="Path_44" data-name="Path 44" d="M631.1,465.08s16.384-2.042,17.426.943S631.1,465.08,631.1,465.08Z" transform="translate(-371.907 -221.222)" opacity="0.1"/>
      <path id="Path_45" data-name="Path 45" d="M635.3,478c.579.157,15.747,1.1,16.036,3.718S635.3,478,635.3,478Z" transform="translate(-374.139 -227.702)" opacity="0.1"/>
      <path id="Path_46" data-name="Path 46" d="M431.179,494.1H548.76a5.81,5.81,0,0,1,6.079,5.5v55.663a5.81,5.81,0,0,1-6.079,5.5H431.179a5.81,5.81,0,0,1-6.079-5.5V499.6A5.81,5.81,0,0,1,431.179,494.1Z" transform="translate(-266.162 -235.371)" fill="#3f3d56"/>
      <ellipse id="Ellipse_14" data-name="Ellipse 14" cx="4.805" cy="4.346" rx="4.805" ry="4.346" transform="translate(218.332 287.738)" fill="#e7effd"/>
      <path id="Path_47" data-name="Path 47" d="M462.7,416.1s12.447,8.588,22.057,2.042C484.7,418.142,468.489,419.5,462.7,416.1Z" transform="translate(-273.232 -198.215)" opacity="0.1"/>
      <path id="Path_48" data-name="Path 48" d="M571.4,420.5s12.447,8.588,22.057,2.042C593.457,422.542,577.189,423.9,571.4,420.5Z" transform="translate(-337.433 -200.311)" opacity="0.1"/>
      <path id="Path_49" data-name="Path 49" d="M521.6,236.282a24.957,24.957,0,0,1-4.516,14.243c-.232-7.488-2.2-15.029-6.716-21.26-4.11-5.76-16.673-15.814-25.357-12.986a5.788,5.788,0,0,0-3.763,3.665c-.868,2.932,1.621,4.189,3.242,6.493a18.361,18.361,0,0,1,3.01,13.458,11.19,11.19,0,0,1-.463,1.885c-1.331,4.608-4.458,9.9-1.273,13.667,2.258,2.618,7.063,3.561,7.7,6.807a5.153,5.153,0,0,1,.058.943c-.174,2.2-2.2,4.137-3.126,6.284-1.042,2.566-.463,5.079.637,7.645,1.447,3.351,3.705,6.7,4.284,10.263s-.637,6.807-2.026,10.106c-1.332,3.142-2.895,6.284-3.416,9.53-.984,6.231,1.505,13.405-2.779,18.327a3.182,3.182,0,0,1-1.911,1.152c-2.779.262-2.316-4.241-4.516-5.76.232,2.618.463,5.341-.579,7.8s-3.763,4.556-6.658,4.137l-.984-5.865a18.581,18.581,0,0,1-6.889,3.875,43.479,43.479,0,0,1,7.179-17.594c-7.295,3.194-11.521,10.054-15.342,16.495-2.374,4.032-4.805,8.431-3.995,12.934.347,1.833,1.216,3.561,1.389,5.446s-.579,4.032-2.432,4.713a4.649,4.649,0,0,1-4.8-1.362l-.232-.209c-.116-.157-.232-.262-.347-.419a4.883,4.883,0,0,1-.579-.89,14.453,14.453,0,0,1-1.158-3.456l-.116-.524c-1.91-7.645-3.647-15.552-2.258-23.3.521-2.828,1.447-5.655,1.332-8.588a15.107,15.107,0,0,0-1.1-4.765c-1.679-4.294-4.921-8.221-6.773-12.515,0-.052-.058-.052-.058-.1-.984-2.3-1.447-5.132.347-6.964a16.02,16.02,0,0,1,3.474-2.095c3.589-2.095,5.21-6.127,5.847-10a31.991,31.991,0,0,0,.463-5.236c4.863-1.571,11.4-3.823,12.1-3.456,1.042.471,11.173-.367,11.579-.419a14.482,14.482,0,0,0,7.121-7.436l.347-.943c-14.473-7.069-19.915-23.407-12.1-36.5s25.878-18.013,40.352-10.944c9.784,4.765,15.8,13.876,15.8,23.721Z" transform="translate(-265.621 -99.718)" opacity="0.1"/>
      <path id="Path_50" data-name="Path 50" d="M487.225,213.338c-1.39,4.608-4.458,9.9-1.274,13.667,2.258,2.618,7.063,3.561,7.7,6.807.521,2.618-2.026,4.765-3.068,7.226-2.432,5.865,3.937,11.677,4.921,17.909,1.042,6.755-4.4,12.882-5.442,19.637-.984,6.231,1.505,13.405-2.779,18.327a3.182,3.182,0,0,1-1.91,1.152c-2.779.262-2.316-4.241-4.516-5.76.232,2.618.463,5.341-.579,7.8a6.693,6.693,0,0,1-6.658,4.137l-.984-5.865a19.455,19.455,0,0,1-6.889,3.927,43.48,43.48,0,0,1,7.179-17.594C465.63,287.9,461.4,294.764,457.583,301.2c-2.374,4.032-4.805,8.431-3.995,12.986.347,1.833,1.216,3.561,1.389,5.446s-.579,4.032-2.432,4.713a4.68,4.68,0,0,1-4.979-1.571,11.113,11.113,0,0,1-2.026-4.765c-1.968-7.8-3.821-15.866-2.373-23.773.521-2.88,1.447-5.708,1.331-8.588-.232-6.336-5.384-11.52-7.931-17.385-.984-2.3-1.447-5.132.347-6.964a16.02,16.02,0,0,1,3.474-2.095c3.589-2.147,5.21-6.127,5.847-10a31.459,31.459,0,0,0-.405-12.515c-1.447-6.179-4.805-12.148-3.937-18.432.811-6.127,5.442-11.206,8.626-16.7a36.379,36.379,0,0,0,4.458-23.093c-.521-3.665-1.505-7.959,1.274-10.735,3.3-3.3,9.726-2.042,13.547-4.922,1.853-1.414,2.779-3.561,4.11-5.341a15.284,15.284,0,0,1,15.458-4.975c2.605.681,4.921,2.042,7.526,2.775,3.647,1.047,7.526.943,11.347,1.361s7.816,1.571,10.015,4.4c1.158,1.519,1.679,3.351,2.779,4.922,2.316,3.351,6.658,4.975,9.958,7.54a16.373,16.373,0,0,1,5.442,18.642c-1.968,4.975-6.542,9.373-6.137,14.61.174,2.147,1.158,4.294.868,6.441-.926,5.97-10.479,7.174-13.778,12.358.289-8.588-1.563-17.385-6.716-24.559-4.11-5.76-16.673-15.814-25.357-13.039a5.787,5.787,0,0,0-3.763,3.666c-.868,2.932,1.621,4.189,3.242,6.493A18.447,18.447,0,0,1,487.225,213.338Z" transform="translate(-268.174 -72.428)" fill="#e52478"/>
      <g id="Group_1" data-name="Group 1" transform="translate(167.523 99.856)" opacity="0.2">
        <path id="Path_51" data-name="Path 51" d="M451.043,304.316a33.955,33.955,0,0,0-.81-8.012c-1.216-5.236-3.821-10.368-4.053-15.6-.347,5.865,2.663,11.52,4.053,17.28A33.364,33.364,0,0,1,451.043,304.316Z" transform="translate(-440.073 -233.572)"/>
        <path id="Path_52" data-name="Path 52" d="M484.163,404.661c.521-.838,1.042-1.676,1.563-2.461-7.295,3.194-11.521,10.054-15.342,16.495-2.2,3.718-4.458,7.8-4.11,11.939.289-3.561,2.2-7.069,4.11-10.263C473.916,414.453,477.853,408.117,484.163,404.661Z" transform="translate(-448.53 -291.45)"/>
        <path id="Path_53" data-name="Path 53" d="M459.927,453.355a4,4,0,0,1-2.432,3.3,4.774,4.774,0,0,1-4.979-1.571,11.114,11.114,0,0,1-2.026-4.765c-1.389-5.6-2.779-11.311-2.895-17.018-.116,6.231,1.331,12.568,2.895,18.694a11.115,11.115,0,0,0,2.026,4.765,4.774,4.774,0,0,0,4.979,1.571c1.91-.681,2.663-2.88,2.489-4.713A.434.434,0,0,1,459.927,453.355Z" transform="translate(-440.677 -306.265)"/>
        <path id="Path_54" data-name="Path 54" d="M523.47,258.4a15.57,15.57,0,0,1-.695,3.98c-.984,3.4-2.953,7.226-2.605,10.473.29-2.828,1.795-5.969,2.605-8.8A18.948,18.948,0,0,0,523.47,258.4Z" transform="translate(-471.222 -222.95)"/>
        <path id="Path_55" data-name="Path 55" d="M468.712,201.173a34.424,34.424,0,0,0-.348-5.97c-.231-1.466-.463-2.985-.579-4.5a32.446,32.446,0,0,0,.579,6.231A25.249,25.249,0,0,1,468.712,201.173Z" transform="translate(-449.173 -190.7)"/>
        <path id="Path_56" data-name="Path 56" d="M533.164,308.257a.181.181,0,0,0-.058-.157c-.463,1.938-2.2,3.718-3.01,5.708a7.88,7.88,0,0,0-.521,3.666,5.98,5.98,0,0,1,.521-1.99C531.138,313.022,533.685,310.823,533.164,308.257Z" transform="translate(-475.185 -246.625)"/>
        <path id="Path_57" data-name="Path 57" d="M444.421,385.565c-.232-6.336-5.384-11.52-7.931-17.385a10.24,10.24,0,0,1-.81-2.88,8.8,8.8,0,0,0,.81,4.556c2.489,5.812,7.468,10.892,7.874,17.071A10.305,10.305,0,0,0,444.421,385.565Z" transform="translate(-435.651 -273.872)"/>
        <path id="Path_58" data-name="Path 58" d="M543.588,229.907c-4.168-5.76-16.673-15.814-25.357-13.039a5.788,5.788,0,0,0-3.763,3.665,3.327,3.327,0,0,0-.058,1.99,2.083,2.083,0,0,1,.058-.262,5.918,5.918,0,0,1,3.763-3.665c8.626-2.828,21.189,7.279,25.357,13.039,4.689,6.493,6.6,14.348,6.716,22.15C550.478,245.354,548.625,236.871,543.588,229.907Z" transform="translate(-468.762 -202.939)"/>
        <path id="Path_59" data-name="Path 59" d="M590.278,265.352c-.926,5.97-10.421,7.122-13.779,12.358v1.728c3.3-5.237,12.852-6.441,13.779-12.358a9.152,9.152,0,0,0,0-1.78C590.336,265.3,590.336,265.352,590.278,265.352Z" transform="translate(-494.958 -226.236)"/>
        <path id="Path_60" data-name="Path 60" d="M605.018,221.013c-1.968,4.975-6.542,9.373-6.137,14.609v.21c.405-4.66,4.342-8.64,6.079-13.143A15.18,15.18,0,0,0,606,216.3,15.238,15.238,0,0,1,605.018,221.013Z" transform="translate(-504.372 -202.895)"/>
        <path id="Path_61" data-name="Path 61" d="M520.026,418.078a3.183,3.183,0,0,1-1.91,1.152c-2.779.262-2.316-4.242-4.516-5.76.058.576.116,1.2.174,1.78,2.084,1.623,1.679,5.917,4.4,5.655a3.361,3.361,0,0,0,1.911-1.152c2.489-2.828,2.721-6.336,2.663-10.054C522.631,412.789,522.11,415.722,520.026,418.078Z" transform="translate(-468.473 -295.023)"/>
        <path id="Path_62" data-name="Path 62" d="M502.031,428.418c-1.042,2.461-3.763,4.556-6.658,4.137-.347-1.937-.637-3.927-.984-5.865a18.912,18.912,0,0,1-6.542,3.77c-.116.576-.232,1.2-.347,1.78a18.693,18.693,0,0,0,6.889-3.927c.347,1.99.637,3.927.984,5.865,2.895.419,5.616-1.676,6.658-4.137a12.022,12.022,0,0,0,.753-5.341A9.973,9.973,0,0,1,502.031,428.418Z" transform="translate(-457.483 -302.168)"/>
        <path id="Path_63" data-name="Path 63" d="M529.416,375.218a26.286,26.286,0,0,0-.232,4.765,27.7,27.7,0,0,1,.232-3.09c1.042-6.441,6.021-12.305,5.558-18.694C534.569,363.96,530.343,369.354,529.416,375.218Z" transform="translate(-475.026 -270.49)"/>
      </g>
      <path id="Path_64" data-name="Path 64" d="M826.624,561.2s-3.937,16.547,13.547,18.537l1.1-1.833C841.271,577.852,827.724,566.332,826.624,561.2Z" transform="translate(-486.38 -267.335)" fill="#38d39f"/>
      <path id="Path_65" data-name="Path 65" d="M850.867,570.173l-4.053.785-.405.1S835.525,563.1,835.7,545.3a42.117,42.117,0,0,0,5.21,7.436C845.135,557.868,850.056,564.727,850.867,570.173Z" transform="translate(-491.977 -259.761)" fill="#38d39f"/>
      <path id="Path_66" data-name="Path 66" d="M857.243,566.328a2.9,2.9,0,0,1-2.2.262c-10.421-2.2-6.947-32.989-6.947-32.989.579.262,1.216,4.189,3.589,9.216C855.911,551.718,860.543,564.076,857.243,566.328Z" transform="translate(-497.972 -254.187)" fill="#38d39f"/>
      <path id="Path_67" data-name="Path 67" d="M891.289,561.2s.695,16.547-16.789,18.537l-1.1-1.833C873.4,577.852,890.189,566.332,891.289,561.2Z" transform="translate(-514.813 -267.335)" fill="#38d39f"/>
      <path id="Path_68" data-name="Path 68" d="M882.21,545.3a30.21,30.21,0,0,1-13.952,25.763l-.405-.1-4.052-.785c.81-5.446,5.731-12.358,10.015-17.49A41.513,41.513,0,0,1,882.21,545.3Z" transform="translate(-509.275 -259.761)" fill="#38d39f"/>
      <path id="Path_69" data-name="Path 69" d="M865.969,564.7a6.377,6.377,0,0,1-2.316,1.624h0a5.478,5.478,0,0,1-.868.262c-2.547.524-3.474-1.152-3.3-3.98.232-5.079,3.763-13.876,6.947-20.422a26.154,26.154,0,0,1,6.542-8.588C872.916,533.6,872.8,557.583,865.969,564.7Z" transform="translate(-505.59 -254.187)" fill="#38d39f"/>
      <path id="Path_70" data-name="Path 70" d="M861.445,512.9s-11.694,37.44-1.621,43.043S864.05,516.251,861.445,512.9Z" transform="translate(-502.55 -244.327)" fill="#38d39f"/>
      <path id="Path_71" data-name="Path 71" d="M826.624,561.2s-3.937,16.547,13.547,18.537l1.1-1.833C841.271,577.852,827.724,566.332,826.624,561.2Z" transform="translate(-486.38 -267.335)" opacity="0.1"/>
      <path id="Path_72" data-name="Path 72" d="M850.867,570.173l-4.053.785-.405.1S835.525,563.1,835.7,545.3a42.117,42.117,0,0,0,5.21,7.436C845.135,557.868,850.056,564.727,850.867,570.173Z" transform="translate(-491.977 -259.761)" opacity="0.1"/>
      <path id="Path_73" data-name="Path 73" d="M857.243,566.328a2.9,2.9,0,0,1-2.2.262c-10.421-2.2-6.947-32.989-6.947-32.989.579.262,1.216,4.189,3.589,9.216C855.911,551.718,860.543,564.076,857.243,566.328Z" transform="translate(-497.972 -254.187)" opacity="0.1"/>
      <path id="Path_74" data-name="Path 74" d="M891.289,561.2s.695,16.547-16.789,18.537l-1.1-1.833C873.4,577.852,890.189,566.332,891.289,561.2Z" transform="translate(-514.813 -267.335)" opacity="0.1"/>
      <path id="Path_75" data-name="Path 75" d="M882.21,545.3a30.21,30.21,0,0,1-13.952,25.763l-.405-.1-4.052-.785c.81-5.446,5.731-12.358,10.015-17.49A41.513,41.513,0,0,1,882.21,545.3Z" transform="translate(-509.275 -259.761)" opacity="0.1"/>
      <path id="Path_76" data-name="Path 76" d="M865.969,564.7a6.377,6.377,0,0,1-2.316,1.624h0a5.478,5.478,0,0,1-.868.262c-2.547.524-3.474-1.152-3.3-3.98.232-5.079,3.763-13.876,6.947-20.422a26.154,26.154,0,0,1,6.542-8.588C872.916,533.6,872.8,557.583,865.969,564.7Z" transform="translate(-505.59 -254.187)" opacity="0.1"/>
      <path id="Path_77" data-name="Path 77" d="M861.445,512.9s-11.694,37.44-1.621,43.043S864.05,516.251,861.445,512.9Z" transform="translate(-502.55 -244.327)" opacity="0.1"/>
      <path id="Path_78" data-name="Path 78" d="M826.826,561.2s-2.316,16.547,15.168,18.537l1.1-1.833C843.094,577.852,827.926,566.332,826.826,561.2Z" transform="translate(-486.96 -267.335)" fill="#38d39f"/>
      <path id="Path_79" data-name="Path 79" d="M852.488,570.173l-4.053.785-.405.1S835.525,563.1,835.7,545.3c0,0,3.184,3.09,6.831,7.436C846.756,557.868,851.677,564.727,852.488,570.173Z" transform="translate(-492.34 -259.761)" fill="#38d39f"/>
      <path id="Path_80" data-name="Path 80" d="M857.415,576.89l-4.053.785c-3.879-3.037-5.384-11.049-5.963-18.275C851.684,564.584,856.605,571.444,857.415,576.89Z" transform="translate(-497.709 -266.477)" opacity="0.1"/>
      <path id="Path_81" data-name="Path 81" d="M859.176,566.328a2.9,2.9,0,0,1-2.2.262c-10.421-2.2-8.568-32.989-8.568-32.989.579.262,2.837,4.189,5.21,9.216C857.9,551.718,862.533,564.076,859.176,566.328Z" transform="translate(-498.681 -254.187)" fill="#38d39f"/>
      <path id="Path_82" data-name="Path 82" d="M892.468,561.2s2.316,16.547-15.168,18.537l-1.1-1.833C876.2,577.852,891.368,566.332,892.468,561.2Z" transform="translate(-516.105 -267.335)" fill="#38d39f"/>
      <path id="Path_83" data-name="Path 83" d="M883.389,545.3c.116,17.8-12.331,25.763-12.331,25.763l-.405-.1-4.053-.785c.81-5.446,5.732-12.358,10.016-17.49C880.2,548.39,883.389,545.3,883.389,545.3Z" transform="translate(-510.548 -259.761)" fill="#38d39f"/>
      <path id="Path_84" data-name="Path 84" d="M876.516,559.4c-.521,6.7-1.91,14.138-5.21,17.594a4.436,4.436,0,0,1-.753.681l-4.052-.786C867.31,571.444,872.231,564.584,876.516,559.4Z" transform="translate(-508.928 -266.477)" opacity="0.1"/>
      <path id="Path_85" data-name="Path 85" d="M868.769,564.7a6.378,6.378,0,0,1-2.316,1.624h0a5.474,5.474,0,0,1-.869.262c-2.547.524-3.474-1.152-3.3-3.98.232-5.079,3.763-13.876,6.947-20.422,2.258-4.765,4.4-8.326,4.921-8.588C874.1,533.6,875.6,557.583,868.769,564.7Z" transform="translate(-506.89 -254.187)" fill="#38d39f"/>
      <path id="Path_86" data-name="Path 86" d="M862.673,574.712a2.905,2.905,0,0,1-1.621-.471c-4.921-2.776-5.037-13.144-3.821-23.04C861.4,560.1,866.031,572.46,862.673,574.712Z" transform="translate(-502.483 -262.571)" opacity="0.1"/>
      <path id="Path_87" data-name="Path 87" d="M868.784,572.516a2.474,2.474,0,0,1-2.316,1.624h0a3.091,3.091,0,0,1-1.389-.471,6.84,6.84,0,0,1-2.779-3.247c.232-5.079,3.763-13.877,6.947-20.422C870.347,559.111,870.695,568.8,868.784,572.516Z" transform="translate(-505.971 -262)" opacity="0.1"/>
      <path id="Path_88" data-name="Path 88" d="M862.362,512.9s-10.016,37.44,0,43.043S864.968,516.251,862.362,512.9Z" transform="translate(-503.776 -244.327)" fill="#38d39f"/>
      <path id="Path_89" data-name="Path 89" d="M868.5,591.7H826.7v6.231h6.368l.173.733,2.547,12.148H860.1l2.547-12.148.174-.733H868.5Z" transform="translate(-492.825 -281.864)" fill="#d4dfec"/>
      <path id="Path_90" data-name="Path 90" d="M868.5,591.7H826.7v6.231h6.368l.173.733,2.547,12.148h24.257l2.605-12.148.116-.733H868.5Z" transform="translate(-492.825 -281.864)" opacity="0.1"/>
      <path id="Path_91" data-name="Path 91" d="M870.4,598.7,869.7,602l-2.547,12.149H842.842L840.295,602l-.695-3.3Z" transform="translate(-497.872 -285.198)" fill="#d4dfec"/>
      <path id="Path_92" data-name="Path 92" d="M870.4,598.7,869.7,602h-29.41l-.695-3.3Z" transform="translate(-497.872 -285.198)" opacity="0.1"/>
      <rect id="Rectangle_38" data-name="Rectangle 38" width="41.799" height="6.284" transform="translate(335.006 309.836)" fill="#d4dfec"/>
      <path id="Path_93" data-name="Path 93" d="M257.587,511.348a10.24,10.24,0,0,0-1.389,2.409,3.432,3.432,0,0,1-.289.681l-.521-.157a7.647,7.647,0,0,0-2.2-.157,4.337,4.337,0,0,1,.058-.838c.116-2.985-.29-7.069-3.416-5.341-3.01,1.676-.868,4.5,1.1,6.284a3.64,3.64,0,0,0,.521.419c-1.737,1.152-2.084,3.77-2.374,6.546s-2.895,5.76-4.574,7.488a3.521,3.521,0,0,0-.463.472A6.683,6.683,0,0,0,239.061,528l-.232-.785c-1.389-4.556-4.284-12.41-7.989-14.138l.463-.576c1.563-1.833,3.3-4.608.753-5.289s-2.837,2.356-2.663,4.713c0,.262.058.576.058.838a4.011,4.011,0,0,0-2.721,1.2,2.723,2.723,0,0,0-.405-.419c-2.084-2.252-5.963-5.812-7.179-3.142-1.1,2.514,2.316,5.76,4.689,7.7l.174.1c-1.621,5.917,5.384,10.735,9.205,12.829.174.1.347.209.463.262-5.21,5.551-8.452,15.971-8.452,15.971l14.647,2.409s9.668-7.54,8.452-14.662h.116c9.668-1.728,11.868-11.1,10.363-16.652l.174-.052a11.079,11.079,0,0,0,4.458-3.037C266.039,511.872,260.366,508,257.587,511.348Z" transform="translate(-130.695 -241.571)" fill="#38d39f"/>
      <path id="Path_94" data-name="Path 94" d="M257.587,511.348a10.24,10.24,0,0,0-1.389,2.409,3.432,3.432,0,0,1-.289.681l-.521-.157a7.647,7.647,0,0,0-2.2-.157,4.337,4.337,0,0,1,.058-.838c.116-2.985-.29-7.069-3.416-5.341-3.01,1.676-.868,4.5,1.1,6.284a3.64,3.64,0,0,0,.521.419c-1.737,1.152-2.084,3.77-2.374,6.546s-2.895,5.76-4.574,7.488a3.521,3.521,0,0,0-.463.472A6.683,6.683,0,0,0,239.061,528l-.232-.785c-1.389-4.556-4.284-12.41-7.989-14.138l.463-.576c1.563-1.833,3.3-4.608.753-5.289s-2.837,2.356-2.663,4.713c0,.262.058.576.058.838a4.011,4.011,0,0,0-2.721,1.2,2.723,2.723,0,0,0-.405-.419c-2.084-2.252-5.963-5.812-7.179-3.142-1.1,2.514,2.316,5.76,4.689,7.7l.174.1c-1.621,5.917,5.384,10.735,9.205,12.829.174.1.347.209.463.262-5.21,5.551-8.452,15.971-8.452,15.971l14.647,2.409s9.668-7.54,8.452-14.662h.116c9.668-1.728,11.868-11.1,10.363-16.652l.174-.052a11.079,11.079,0,0,0,4.458-3.037C266.039,511.872,260.366,508,257.587,511.348Z" transform="translate(-130.695 -241.571)" opacity="0.1"/>
      <path id="Path_95" data-name="Path 95" d="M229.114,517.278l-1.737,4.5s-.926-.628-2.142-1.571c-2.374-1.885-5.789-5.184-4.689-7.7,1.158-2.723,5.037.89,7.179,3.142C228.535,516.6,229.114,517.278,229.114,517.278Z" transform="translate(-129.302 -243.678)" fill="#38d39f"/>
      <path id="Path_96" data-name="Path 96" d="M240.251,512.7c-.521.628-1.1,1.2-1.679,1.78a16.363,16.363,0,0,1-.289-2.356c-.116-2.3.116-5.394,2.663-4.713S241.815,510.816,240.251,512.7Z" transform="translate(-139.53 -241.667)" fill="#38d39f"/>
      <path id="Path_97" data-name="Path 97" d="M276.114,513.67c-.058,1.466-.232,2.671-.232,2.671a21.426,21.426,0,0,1-2.142-1.728c-1.91-1.833-4.053-4.608-1.1-6.284C275.825,506.6,276.23,510.737,276.114,513.67Z" transform="translate(-158.884 -241.955)" fill="#38d39f"/>
      <path id="Path_98" data-name="Path 98" d="M291.289,517.886a10.582,10.582,0,0,1-4.458,3.037,7.083,7.083,0,0,1-1.505.471l-2.026-2.566a17.752,17.752,0,0,1,.81-2.461,10.242,10.242,0,0,1,1.39-2.409C288.337,510.66,294.01,514.535,291.289,517.886Z" transform="translate(-166.263 -244.233)" fill="#38d39f"/>
      <path id="Path_99" data-name="Path 99" d="M231.189,519.4a19.446,19.446,0,0,1,1.389,1.571l-1.737,4.5s-.926-.628-2.142-1.571a8.665,8.665,0,0,1,1.91-3.98A2.632,2.632,0,0,0,231.189,519.4Z" transform="translate(-133.923 -247.423)" opacity="0.1"/>
      <path id="Path_100" data-name="Path 100" d="M240.268,517.069c-.521.629-1.1,1.2-1.679,1.781a16.369,16.369,0,0,1-.289-2.356A2.984,2.984,0,0,1,240.268,517.069Z" transform="translate(-139.429 -246.034)" opacity="0.1"/>
      <path id="Path_101" data-name="Path 101" d="M244.63,535.691l-4.226,1.676c-.753-.367-1.505-.733-2.258-1.152-4.458-2.461-13.431-8.745-7.41-16.076s11.058,5.865,13.026,12.306C244.282,534.382,244.63,535.691,244.63,535.691Z" transform="translate(-134.659 -246.748)" fill="#38d39f"/>
      <path id="Path_102" data-name="Path 102" d="M275.7,519.843a3.473,3.473,0,0,1,2.316-.943c-.058,1.466-.232,2.67-.232,2.67A20.757,20.757,0,0,1,275.7,519.843Z" transform="translate(-161.344 -247.185)" opacity="0.1"/>
      <path id="Path_103" data-name="Path 103" d="M286.831,524.356a7.094,7.094,0,0,1-1.505.471l-2.026-2.566a17.738,17.738,0,0,1,.81-2.461C285.442,520.481,286.426,522.209,286.831,524.356Z" transform="translate(-165.882 -247.614)" opacity="0.1"/>
      <path id="Path_104" data-name="Path 104" d="M265,541.351a3.2,3.2,0,0,1-.695.1c-14.242,1.938-4.689-4.974-4.689-4.974s.637-.524,1.505-1.414c1.737-1.728,4.284-4.713,4.574-7.488.463-4.189.984-8.116,6.426-6.964C277.451,521.767,278.493,538.89,265,541.351Z" transform="translate(-151.246 -247.905)" fill="#38d39f"/>
      <rect id="Rectangle_39" data-name="Rectangle 39" width="27.21" height="6.441" transform="translate(91.35 325.493)" fill="#d4dfec"/>
      <rect id="Rectangle_40" data-name="Rectangle 40" width="35.546" height="22.569" transform="translate(87.782 304.443)" fill="#d4dfec"/>
      <rect id="Rectangle_41" data-name="Rectangle 41" width="27.21" height="6.441" transform="translate(91.35 325.493)" opacity="0.1"/>
      <rect id="Rectangle_42" data-name="Rectangle 42" width="35.546" height="22.569" transform="translate(87.782 304.443)" opacity="0.1"/>
      <rect id="Rectangle_43" data-name="Rectangle 43" width="27.21" height="6.441" transform="translate(92.573 325.493)" fill="#d4dfec"/>
      <path id="Path_105" data-name="Path 105" d="M250.558,545.6c.579,1.938.926,3.247.926,3.247l-4.226,1.676c-.753-.366-1.505-.733-2.258-1.152A10.675,10.675,0,0,1,250.558,545.6Z" transform="translate(-143.636 -259.904)" opacity="0.1"/>
      <path id="Path_106" data-name="Path 106" d="M265,554.684a3.2,3.2,0,0,1-.695.1c-14.242,1.937-4.689-4.974-4.689-4.974s.637-.524,1.505-1.414A8.309,8.309,0,0,1,265,554.684Z" transform="translate(-150.508 -261.237)" opacity="0.1"/>
      <path id="Path_107" data-name="Path 107" d="M231.2,566.27s7.989-25.815,19.163-17.856-4.574,20.213-4.574,20.213Z" transform="translate(-136.574 -260.518)" fill="#38d39f"/>
      <ellipse id="Ellipse_15" data-name="Ellipse 15" cx="0.868" cy="0.785" rx="0.868" ry="0.785" transform="translate(98.221 276.637)" opacity="0.1"/>
      <ellipse id="Ellipse_16" data-name="Ellipse 16" cx="0.868" cy="0.785" rx="0.868" ry="0.785" transform="translate(98.139 280.408)" opacity="0.1"/>
      <ellipse id="Ellipse_17" data-name="Ellipse 17" cx="0.868" cy="0.785" rx="0.868" ry="0.785" transform="translate(116.72 277.37)" opacity="0.1"/>
      <ellipse id="Ellipse_18" data-name="Ellipse 18" cx="0.868" cy="0.785" rx="0.868" ry="0.785" transform="translate(101.788 296.745)" opacity="0.1"/>
      <ellipse id="Ellipse_19" data-name="Ellipse 19" cx="0.868" cy="0.785" rx="0.868" ry="0.785" transform="translate(115.392 283.654)" opacity="0.1"/>
      <ellipse id="Ellipse_20" data-name="Ellipse 20" cx="0.868" cy="0.785" rx="0.868" ry="0.785" transform="translate(108.798 292.032)" opacity="0.1"/>
      <ellipse id="Ellipse_21" data-name="Ellipse 21" cx="0.868" cy="0.785" rx="0.868" ry="0.785" transform="translate(100.42 278.261)" opacity="0.1"/>
      <ellipse id="Ellipse_22" data-name="Ellipse 22" cx="0.868" cy="0.785" rx="0.868" ry="0.785" transform="translate(114.978 279.832)" opacity="0.1"/>
      <ellipse id="Ellipse_23" data-name="Ellipse 23" cx="0.868" cy="0.785" rx="0.868" ry="0.785" transform="translate(112.779 286.063)" opacity="0.1"/>
      <path id="Path_413" data-name="Path 413" d="M.78,0a.844.844,0,0,1,.792.874.816.816,0,0,1-.78.862A.844.844,0,0,1,0,.862.816.816,0,0,1,.78,0Z" transform="translate(106.013 297.624) rotate(-85.935)" opacity="0.1"/>
      <ellipse id="Ellipse_25" data-name="Ellipse 25" cx="0.868" cy="0.785" rx="0.868" ry="0.785" transform="translate(104.65 292.137)" opacity="0.1"/>
      <ellipse id="Ellipse_26" data-name="Ellipse 26" cx="0.868" cy="0.785" rx="0.868" ry="0.785" transform="translate(101.374 283.183)" opacity="0.1"/>
      <rect id="Rectangle_44" data-name="Rectangle 44" width="27.21" height="2.356" transform="translate(92.573 325.493)" opacity="0.1"/>
      <rect id="Rectangle_45" data-name="Rectangle 45" width="35.546" height="22.569" transform="translate(89.039 304.443)" fill="#d4dfec"/>
      <ellipse id="Ellipse_27" data-name="Ellipse 27" cx="0.868" cy="0.785" rx="0.868" ry="0.785" transform="translate(106.931 299.782)" opacity="0.1"/>
      <ellipse id="Ellipse_28" data-name="Ellipse 28" cx="0.868" cy="0.785" rx="0.868" ry="0.785" transform="translate(103.074 300.777)" opacity="0.1"/>
    </g>
  </g>
</svg>
