<svg xmlns="http://www.w3.org/2000/svg" xmlns:xlink="http://www.w3.org/1999/xlink" width="486.57" height="452" viewBox="0 0 486.57 452">
  <defs>
    <style>
      .cls-1 {
        fill: #abe0e5;
      }

      .cls-2 {
        fill: #353f49;
      }

      .cls-3 {
        isolation: isolate;
      }

      .cls-4 {
        clip-path: url(#clip-path);
      }

      .cls-5 {
        fill: #f2f2f2;
      }

      .cls-6 {
        fill: #cccbca;
      }

      .cls-19, .cls-23, .cls-7 {
        fill: #fff;
      }

      .cls-8 {
        fill: #656a73;
      }

      .cls-9 {
        fill: #d9d8d7;
      }

      .cls-10 {
        fill: #232e38;
      }

      .cls-11 {
        fill: #474f59;
      }

      .cls-12 {
        fill: #f68360;
      }

      .cls-13 {
        fill: #ed6d47;
      }

      .cls-14 {
        fill: #ff9978;
      }

      .cls-15 {
        clip-path: url(#clip-path-2);
      }

      .cls-16, .cls-17 {
        fill: #e6e5e5;
      }

      .cls-16 {
        mix-blend-mode: multiply;
      }

      .cls-18 {
        fill: #91d3d9;
      }

      .cls-19, .cls-22 {
        font-size: 31.29px;
      }

      .cls-19, .cls-23 {
        stroke: #fff;
      }

      .cls-19, .cls-22, .cls-23 {
        stroke-miterlimit: 10;
        font-family: MyriadPro-Regular, Myriad Pro;
      }

      .cls-20 {
        letter-spacing: -0.01em;
      }

      .cls-21 {
        letter-spacing: 0em;
      }

      .cls-22 {
        stroke: #000;
      }

      .cls-23 {
        font-size: 26.08px;
      }
    </style>
    <clipPath id="clip-path" transform="translate(-31.43 -34)">
      <ellipse class="cls-1" cx="280.35" cy="260" rx="233.41" ry="226"/>
    </clipPath>
    <clipPath id="clip-path-2" transform="translate(-31.43 -34)">
      <path class="cls-2" d="M141.49,141.68c0,26.4-22.1,47.8-49.36,47.8s-49.36-21.4-49.36-47.8S64.86,93.89,92.13,93.89,141.49,115.29,141.49,141.68Z"/>
    </clipPath>
  </defs>
  <g class="cls-3">
    <g id="Layer_1" data-name="Layer 1">
      <g>
        <g>
          <ellipse class="cls-1" cx="248.92" cy="226" rx="233.41" ry="226"/>
          <g class="cls-4">
            <g>
              <rect class="cls-5" x="278.8" y="30.5" width="184.97" height="126.64"/>
              <g>
                <g>
                  <rect class="cls-6" x="395.51" y="76.07" width="2.1" height="8.87"/>
                  <rect class="cls-6" x="409.19" y="97.23" width="12.65" height="2.04"/>
                  <rect class="cls-6" x="433.42" y="111.56" width="2.11" height="8.87"/>
                  <rect class="cls-6" x="395.51" y="111.56" width="2.1" height="8.87"/>
                  <rect class="cls-6" x="344.57" y="76.07" width="2.11" height="8.87"/>
                  <rect class="cls-6" x="319.68" y="58.32" width="2.11" height="8.87"/>
                  <rect class="cls-6" x="344.57" y="102.69" width="2.11" height="8.87"/>
                  <rect class="cls-6" x="320.73" y="123.85" width="12.26" height="2.04"/>
                </g>
                <g>
                  <rect class="cls-6" x="308.1" y="67.19" width="126.38" height="8.87"/>
                  <rect class="cls-7" x="412.36" y="70.61" width="18.95" height="2.04"/>
                  <rect class="cls-2" x="383.92" y="67.19" width="25.27" height="8.87"/>
                  <rect class="cls-6" x="387.08" y="70.61" width="18.95" height="2.04"/>
                  <rect class="cls-7" x="361.81" y="70.61" width="18.95" height="2.04"/>
                  <rect class="cls-7" x="336.52" y="70.61" width="18.95" height="2.04"/>
                  <rect class="cls-7" x="311.25" y="70.61" width="18.95" height="2.04"/>
                </g>
                <rect class="cls-6" x="383.92" y="84.94" width="25.27" height="26.62"/>
                <rect class="cls-6" x="332.99" y="84.94" width="25.27" height="17.75"/>
                <rect class="cls-6" x="295.46" y="120.43" width="25.27" height="8.87"/>
                <rect class="cls-6" x="421.84" y="120.43" width="25.27" height="17.75"/>
                <rect class="cls-2" x="421.84" y="84.94" width="25.27" height="26.62"/>
                <rect class="cls-6" x="383.92" y="120.43" width="25.27" height="8.87"/>
                <rect class="cls-2" x="308.1" y="49.45" width="25.27" height="8.87"/>
                <rect class="cls-2" x="332.99" y="111.56" width="25.27" height="26.62"/>
                <rect class="cls-8" x="311.25" y="52.86" width="18.95" height="2.04"/>
                <rect class="cls-7" x="298.62" y="123.85" width="18.95" height="2.04"/>
                <g>
                  <rect class="cls-7" x="336.15" y="88.36" width="18.95" height="2.04"/>
                  <rect class="cls-7" x="341.04" y="97.23" width="9.16" height="2.04"/>
                </g>
                <g>
                  <rect class="cls-7" x="425" y="123.85" width="18.95" height="2.04"/>
                  <rect class="cls-7" x="425" y="132.73" width="11.21" height="2.04"/>
                </g>
                <g>
                  <rect class="cls-8" x="336.15" y="114.98" width="18.95" height="2.04"/>
                  <rect class="cls-8" x="344.57" y="123.85" width="10.53" height="2.04"/>
                  <rect class="cls-8" x="336.15" y="123.85" width="5.27" height="2.04"/>
                  <rect class="cls-8" x="345" y="132.73" width="4.84" height="2.04"/>
                  <rect class="cls-8" x="336.15" y="132.73" width="7.47" height="2.04"/>
                </g>
                <rect class="cls-7" x="387.08" y="123.85" width="18.95" height="2.04"/>
                <g>
                  <rect class="cls-7" x="396.56" y="88.36" width="9.47" height="2.04"/>
                  <rect class="cls-7" x="387.08" y="88.36" width="6.61" height="2.04"/>
                  <rect class="cls-7" x="387.08" y="97.23" width="18.95" height="2.04"/>
                  <rect class="cls-7" x="387.08" y="106.11" width="13.39" height="2.04"/>
                </g>
                <g>
                  <rect class="cls-8" x="425" y="88.36" width="18.95" height="2.04"/>
                  <rect class="cls-8" x="425" y="97.23" width="11.55" height="2.04"/>
                  <rect class="cls-8" x="439" y="97.23" width="4.95" height="2.04"/>
                  <rect class="cls-8" x="425" y="106.11" width="8.42" height="2.04"/>
                </g>
              </g>
            </g>
          </g>
        </g>
        <g>
          <g>
            <g>
              <path class="cls-9" d="M60.74,272.62V421.05a12.66,12.66,0,0,0,3.9,9.12A13.54,13.54,0,0,0,74.07,434h257.4a13.51,13.51,0,0,0,9.43-3.78,12.66,12.66,0,0,0,3.9-9.12V272.62Z" transform="translate(-31.43 -34)"/>
              <path class="cls-7" d="M238.06,422.8a1.07,1.07,0,0,1-1.08,1H168.56a1.06,1.06,0,0,1-1.06-1V383.47a1.06,1.06,0,0,1,1.06-1H237a1.07,1.07,0,0,1,1.08,1Z" transform="translate(-31.43 -34)"/>
              <g>
                <path class="cls-7" d="M92,301.77a.81.81,0,0,1-.83.81H78.49a.82.82,0,0,1-.82-.81V289.51a.81.81,0,0,1,.82-.8H91.17a.8.8,0,0,1,.83.8Z" transform="translate(-31.43 -34)"/>
                <path class="cls-7" d="M118.27,318.68a.81.81,0,0,1-.82.81H104.77a.82.82,0,0,1-.82-.81V306.4a.82.82,0,0,1,.82-.8h12.68a.81.81,0,0,1,.82.8Z" transform="translate(-31.43 -34)"/>
                <path class="cls-7" d="M122.41,335.59a.81.81,0,0,1-.83.79H108.91a.81.81,0,0,1-.83-.79V323.31a.83.83,0,0,1,.83-.81h12.67a.82.82,0,0,1,.83.81Z" transform="translate(-31.43 -34)"/>
                <path class="cls-7" d="M113.87,352.48a.82.82,0,0,1-.83.81H100.36a.82.82,0,0,1-.82-.81V340.21a.81.81,0,0,1,.82-.8H113a.82.82,0,0,1,.83.8Z" transform="translate(-31.43 -34)"/>
                <path class="cls-7" d="M92,371.52a.8.8,0,0,1-.83.8H78.49a.81.81,0,0,1-.82-.8V357.11a.81.81,0,0,1,.82-.8H91.17a.81.81,0,0,1,.83.8Z" transform="translate(-31.43 -34)"/>
                <path class="cls-7" d="M109.41,371.52a.81.81,0,0,1-.83.8H95.9a.81.81,0,0,1-.82-.8V357.11a.81.81,0,0,1,.82-.8h12.68a.82.82,0,0,1,.83.8Z" transform="translate(-31.43 -34)"/>
                <path class="cls-7" d="M126.82,371.52a.82.82,0,0,1-.83.8H113.32a.81.81,0,0,1-.83-.8V357.11a.82.82,0,0,1,.83-.8H126a.82.82,0,0,1,.83.8Z" transform="translate(-31.43 -34)"/>
                <path class="cls-7" d="M275.52,371.52a.82.82,0,0,1-.83.8H262a.82.82,0,0,1-.83-.8V357.11a.82.82,0,0,1,.83-.8h12.68a.82.82,0,0,1,.83.8Z" transform="translate(-31.43 -34)"/>
                <path class="cls-7" d="M293,371.52a.81.81,0,0,1-.82.8H279.48a.81.81,0,0,1-.84-.8v-6.4a.81.81,0,0,1,.84-.8h12.67a.81.81,0,0,1,.82.8Z" transform="translate(-31.43 -34)"/>
                <path class="cls-7" d="M327.88,371.52a.81.81,0,0,1-.83.8H314.38a.81.81,0,0,1-.83-.8v-6.4a.81.81,0,0,1,.83-.8h12.67a.81.81,0,0,1,.83.8Z" transform="translate(-31.43 -34)"/>
                <path class="cls-7" d="M148.77,371.52a.8.8,0,0,1-.81.8H130.72a.81.81,0,0,1-.82-.8V357.11a.81.81,0,0,1,.82-.8H148a.8.8,0,0,1,.81.8Z" transform="translate(-31.43 -34)"/>
                <path class="cls-7" d="M258.06,371.52a.8.8,0,0,1-.82.8H240a.82.82,0,0,1-.84-.8V357.11a.83.83,0,0,1,.84-.8h17.23a.81.81,0,0,1,.82.8Z" transform="translate(-31.43 -34)"/>
                <path class="cls-7" d="M236.06,371.52a.81.81,0,0,1-.84.8H152.73a.82.82,0,0,1-.84-.8V357.11a.82.82,0,0,1,.84-.8h82.49a.82.82,0,0,1,.84.8Z" transform="translate(-31.43 -34)"/>
                <path class="cls-7" d="M131.31,352.48a.81.81,0,0,1-.81.81H117.82a.82.82,0,0,1-.83-.81V340.21a.82.82,0,0,1,.83-.8H130.5a.8.8,0,0,1,.81.8Z" transform="translate(-31.43 -34)"/>
                <path class="cls-7" d="M148.77,352.48a.81.81,0,0,1-.81.81H135.28a.81.81,0,0,1-.83-.81V340.21a.81.81,0,0,1,.83-.8H148a.8.8,0,0,1,.81.8Z" transform="translate(-31.43 -34)"/>
                <path class="cls-7" d="M166.24,352.48a.82.82,0,0,1-.84.81H152.73a.83.83,0,0,1-.84-.81V340.21a.82.82,0,0,1,.84-.8H165.4a.82.82,0,0,1,.84.8Z" transform="translate(-31.43 -34)"/>
                <path class="cls-7" d="M183.69,352.48a.82.82,0,0,1-.83.81H170.19a.82.82,0,0,1-.83-.81V340.21a.82.82,0,0,1,.83-.8h12.67a.82.82,0,0,1,.83.8Z" transform="translate(-31.43 -34)"/>
                <path class="cls-7" d="M201.14,352.48a.82.82,0,0,1-.82.81H187.63a.82.82,0,0,1-.82-.81V340.21a.82.82,0,0,1,.82-.8h12.69a.81.81,0,0,1,.82.8Z" transform="translate(-31.43 -34)"/>
                <path class="cls-7" d="M218.6,352.48a.81.81,0,0,1-.83.81H205.1a.83.83,0,0,1-.84-.81V340.21a.82.82,0,0,1,.84-.8h12.67a.81.81,0,0,1,.83.8Z" transform="translate(-31.43 -34)"/>
                <path class="cls-7" d="M236.06,352.48a.82.82,0,0,1-.84.81H222.54a.82.82,0,0,1-.82-.81V340.21a.82.82,0,0,1,.82-.8h12.68a.82.82,0,0,1,.84.8Z" transform="translate(-31.43 -34)"/>
                <path class="cls-7" d="M253.51,352.48a.82.82,0,0,1-.83.81H240a.83.83,0,0,1-.84-.81V340.21a.83.83,0,0,1,.84-.8h12.67a.82.82,0,0,1,.83.8Z" transform="translate(-31.43 -34)"/>
                <path class="cls-7" d="M271,352.48a.8.8,0,0,1-.82.81H257.47a.82.82,0,0,1-.84-.81V340.21a.82.82,0,0,1,.84-.8h12.67a.8.8,0,0,1,.82.8Z" transform="translate(-31.43 -34)"/>
                <path class="cls-7" d="M288.43,352.48a.83.83,0,0,1-.84.81H274.92a.82.82,0,0,1-.83-.81V340.21a.82.82,0,0,1,.83-.8h12.67a.82.82,0,0,1,.84.8Z" transform="translate(-31.43 -34)"/>
                <path class="cls-7" d="M327.88,352.48a.82.82,0,0,1-.82.81H292.52a.82.82,0,0,1-.83-.81V340.21a.82.82,0,0,1,.83-.8h34.54a.81.81,0,0,1,.82.8Z" transform="translate(-31.43 -34)"/>
                <path class="cls-7" d="M139.86,335.59a.8.8,0,0,1-.82.79H126.36a.81.81,0,0,1-.83-.79V323.31a.82.82,0,0,1,.83-.81H139a.82.82,0,0,1,.82.81Z" transform="translate(-31.43 -34)"/>
                <path class="cls-7" d="M157.32,335.59a.81.81,0,0,1-.83.79H143.81a.8.8,0,0,1-.81-.79V323.31a.82.82,0,0,1,.81-.81h12.68a.82.82,0,0,1,.83.81Z" transform="translate(-31.43 -34)"/>
                <path class="cls-7" d="M174.77,335.59a.8.8,0,0,1-.82.79H161.27a.8.8,0,0,1-.82-.79V323.31a.82.82,0,0,1,.82-.81H174a.82.82,0,0,1,.82.81Z" transform="translate(-31.43 -34)"/>
                <path class="cls-7" d="M192.24,335.59a.82.82,0,0,1-.83.79H178.72a.8.8,0,0,1-.82-.79V323.31a.82.82,0,0,1,.82-.81h12.69a.84.84,0,0,1,.83.81Z" transform="translate(-31.43 -34)"/>
                <path class="cls-7" d="M209.7,335.59a.82.82,0,0,1-.84.79H196.18a.82.82,0,0,1-.83-.79V323.31a.84.84,0,0,1,.83-.81h12.68a.83.83,0,0,1,.84.81Z" transform="translate(-31.43 -34)"/>
                <path class="cls-7" d="M227.14,335.59a.8.8,0,0,1-.82.79H213.64a.8.8,0,0,1-.82-.79V323.31a.82.82,0,0,1,.82-.81h12.68a.82.82,0,0,1,.82.81Z" transform="translate(-31.43 -34)"/>
                <path class="cls-7" d="M244.59,335.59a.8.8,0,0,1-.82.79H231.1a.81.81,0,0,1-.83-.79V323.31a.82.82,0,0,1,.83-.81h12.67a.82.82,0,0,1,.82.81Z" transform="translate(-31.43 -34)"/>
                <path class="cls-7" d="M262.06,335.59a.81.81,0,0,1-.83.79H248.55a.8.8,0,0,1-.82-.79V323.31a.82.82,0,0,1,.82-.81h12.68a.83.83,0,0,1,.83.81Z" transform="translate(-31.43 -34)"/>
                <path class="cls-7" d="M279.51,335.59a.81.81,0,0,1-.83.79H266a.8.8,0,0,1-.82-.79V323.31a.82.82,0,0,1,.82-.81h12.68a.82.82,0,0,1,.83.81Z" transform="translate(-31.43 -34)"/>
                <path class="cls-7" d="M297,335.59a.81.81,0,0,1-.83.79H283.47a.82.82,0,0,1-.84-.79V323.31a.83.83,0,0,1,.84-.81h12.67a.83.83,0,0,1,.83.81Z" transform="translate(-31.43 -34)"/>
                <path class="cls-7" d="M314.42,335.59a.81.81,0,0,1-.83.79H300.91a.8.8,0,0,1-.81-.79V323.31a.81.81,0,0,1,.81-.81h12.68a.83.83,0,0,1,.83.81Z" transform="translate(-31.43 -34)"/>
                <path class="cls-7" d="M135.74,318.68a.82.82,0,0,1-.83.81H122.23a.83.83,0,0,1-.84-.81V306.4a.83.83,0,0,1,.84-.8h12.68a.82.82,0,0,1,.83.8Z" transform="translate(-31.43 -34)"/>
                <path class="cls-7" d="M153.19,318.68a.82.82,0,0,1-.83.81H139.68a.82.82,0,0,1-.82-.81V306.4a.82.82,0,0,1,.82-.8h12.68a.82.82,0,0,1,.83.8Z" transform="translate(-31.43 -34)"/>
                <path class="cls-7" d="M170.65,318.68a.83.83,0,0,1-.84.81H157.14a.82.82,0,0,1-.83-.81V306.4a.83.83,0,0,1,.83-.8h12.67a.83.83,0,0,1,.84.8Z" transform="translate(-31.43 -34)"/>
                <path class="cls-7" d="M188.09,318.68a.81.81,0,0,1-.81.81H174.6a.82.82,0,0,1-.84-.81V306.4a.82.82,0,0,1,.84-.8h12.68a.82.82,0,0,1,.81.8Z" transform="translate(-31.43 -34)"/>
                <path class="cls-7" d="M205.56,318.68a.82.82,0,0,1-.84.81H192.05a.82.82,0,0,1-.82-.81V306.4a.82.82,0,0,1,.82-.8h12.67a.82.82,0,0,1,.84.8Z" transform="translate(-31.43 -34)"/>
                <path class="cls-7" d="M223,318.68a.81.81,0,0,1-.82.81H209.5a.82.82,0,0,1-.82-.81V306.4a.82.82,0,0,1,.82-.8h12.68a.81.81,0,0,1,.82.8Z" transform="translate(-31.43 -34)"/>
                <path class="cls-7" d="M240.47,318.68a.82.82,0,0,1-.83.81H227a.82.82,0,0,1-.83-.81V306.4a.82.82,0,0,1,.83-.8h12.68a.82.82,0,0,1,.83.8Z" transform="translate(-31.43 -34)"/>
                <path class="cls-7" d="M257.93,318.68a.83.83,0,0,1-.84.81H244.42a.82.82,0,0,1-.83-.81V306.4a.82.82,0,0,1,.83-.8h12.67a.83.83,0,0,1,.84.8Z" transform="translate(-31.43 -34)"/>
                <path class="cls-7" d="M275.37,318.68a.81.81,0,0,1-.81.81H261.87a.81.81,0,0,1-.82-.81V306.4a.81.81,0,0,1,.82-.8h12.69a.82.82,0,0,1,.81.8Z" transform="translate(-31.43 -34)"/>
                <path class="cls-7" d="M292.83,318.68a.82.82,0,0,1-.82.81H279.33a.82.82,0,0,1-.82-.81V306.4a.82.82,0,0,1,.82-.8H292a.82.82,0,0,1,.82.8Z" transform="translate(-31.43 -34)"/>
                <path class="cls-7" d="M310.29,318.68a.82.82,0,0,1-.82.81H296.78a.82.82,0,0,1-.82-.81V306.4a.82.82,0,0,1,.82-.8h12.69a.82.82,0,0,1,.82.8Z" transform="translate(-31.43 -34)"/>
                <path class="cls-7" d="M100.82,318.68a.82.82,0,0,1-.83.81H78.49a.82.82,0,0,1-.82-.81V306.4a.82.82,0,0,1,.82-.8H100a.82.82,0,0,1,.83.8Z" transform="translate(-31.43 -34)"/>
                <path class="cls-7" d="M327.88,301.77a.82.82,0,0,1-.83.81H305.54a.81.81,0,0,1-.81-.81V289.51a.8.8,0,0,1,.81-.8h21.51a.82.82,0,0,1,.83.8Z" transform="translate(-31.43 -34)"/>
                <path class="cls-7" d="M105,335.59a.81.81,0,0,1-.84.79H78.49a.8.8,0,0,1-.82-.79V323.31a.82.82,0,0,1,.82-.81h25.63a.83.83,0,0,1,.84.81Z" transform="translate(-31.43 -34)"/>
                <path class="cls-7" d="M96.42,352.48a.82.82,0,0,1-.83.81H78.49a.82.82,0,0,1-.82-.81V340.21a.81.81,0,0,1,.82-.8h17.1a.82.82,0,0,1,.83.8Z" transform="translate(-31.43 -34)"/>
                <path class="cls-7" d="M109.45,301.77a.81.81,0,0,1-.83.81H96a.82.82,0,0,1-.83-.81V289.51a.81.81,0,0,1,.83-.8h12.66a.8.8,0,0,1,.83.8Z" transform="translate(-31.43 -34)"/>
                <path class="cls-7" d="M126.91,301.77a.82.82,0,0,1-.83.81H113.41a.82.82,0,0,1-.82-.81V289.51a.81.81,0,0,1,.82-.8h12.67a.81.81,0,0,1,.83.8Z" transform="translate(-31.43 -34)"/>
                <path class="cls-7" d="M144.38,301.77a.83.83,0,0,1-.84.81H130.86a.82.82,0,0,1-.82-.81V289.51a.81.81,0,0,1,.82-.8h12.68a.82.82,0,0,1,.84.8Z" transform="translate(-31.43 -34)"/>
                <path class="cls-7" d="M161.83,301.77a.82.82,0,0,1-.83.81H148.32a.82.82,0,0,1-.83-.81V289.51a.81.81,0,0,1,.83-.8H161a.81.81,0,0,1,.83.8Z" transform="translate(-31.43 -34)"/>
                <path class="cls-7" d="M179.27,301.77a.81.81,0,0,1-.82.81H165.77a.82.82,0,0,1-.83-.81V289.51a.82.82,0,0,1,.83-.8h12.68a.8.8,0,0,1,.82.8Z" transform="translate(-31.43 -34)"/>
                <path class="cls-7" d="M196.74,301.77a.83.83,0,0,1-.84.81H183.24a.82.82,0,0,1-.83-.81V289.51a.81.81,0,0,1,.83-.8H195.9a.82.82,0,0,1,.84.8Z" transform="translate(-31.43 -34)"/>
                <path class="cls-7" d="M214.19,301.77a.82.82,0,0,1-.83.81H200.69a.82.82,0,0,1-.83-.81V289.51a.81.81,0,0,1,.83-.8h12.67a.81.81,0,0,1,.83.8Z" transform="translate(-31.43 -34)"/>
                <path class="cls-7" d="M231.64,301.77a.82.82,0,0,1-.83.81H218.14a.83.83,0,0,1-.84-.81V289.51a.82.82,0,0,1,.84-.8h12.67a.81.81,0,0,1,.83.8Z" transform="translate(-31.43 -34)"/>
                <path class="cls-7" d="M249.1,301.77a.82.82,0,0,1-.82.81H235.6a.82.82,0,0,1-.83-.81V289.51a.81.81,0,0,1,.83-.8h12.68a.81.81,0,0,1,.82.8Z" transform="translate(-31.43 -34)"/>
                <path class="cls-7" d="M266.56,301.77a.82.82,0,0,1-.83.81H253.05a.82.82,0,0,1-.82-.81V289.51a.81.81,0,0,1,.82-.8h12.68a.81.81,0,0,1,.83.8Z" transform="translate(-31.43 -34)"/>
                <path class="cls-7" d="M284,301.77a.83.83,0,0,1-.84.81H270.51a.82.82,0,0,1-.83-.81V289.51a.81.81,0,0,1,.83-.8h12.67a.82.82,0,0,1,.84.8Z" transform="translate(-31.43 -34)"/>
                <path class="cls-7" d="M301.47,301.77a.82.82,0,0,1-.83.81H288a.82.82,0,0,1-.82-.81V289.51a.81.81,0,0,1,.82-.8h12.68a.81.81,0,0,1,.83.8Z" transform="translate(-31.43 -34)"/>
                <g>
                  <path class="cls-7" d="M296.1,364.76v6.76a.78.78,0,0,0,.23.57.89.89,0,0,0,.59.23H309.6a.85.85,0,0,0,.58-.23.77.77,0,0,0,.25-.57v-6.76Z" transform="translate(-31.43 -34)"/>
                  <path class="cls-7" d="M310.43,363.86v-6.75a.75.75,0,0,0-.25-.56.82.82,0,0,0-.58-.24H296.92a.86.86,0,0,0-.59.24.76.76,0,0,0-.23.56v6.75Z" transform="translate(-31.43 -34)"/>
                </g>
                <text x="-31.43" y="-34"/>              </g>
            </g>
            <g>
              <path class="cls-10" d="M74.07,111.3a13.54,13.54,0,0,0-9.43,3.78,12.66,12.66,0,0,0-3.9,9.12V272.62H344.8V124.2a12.66,12.66,0,0,0-3.9-9.12,13.51,13.51,0,0,0-9.43-3.78Z" transform="translate(-31.43 -34)"/>
              <g>
                <path class="cls-11" d="M206,118.45a3.19,3.19,0,1,1-3.18-3.08A3.14,3.14,0,0,1,206,118.45Z" transform="translate(-31.43 -34)"/>
                <path class="cls-7" d="M204.08,118.45a1.3,1.3,0,0,1-2.6,0,1.3,1.3,0,0,1,2.6,0Z" transform="translate(-31.43 -34)"/>
              </g>
              <g>
                <g>
                  <rect class="cls-11" x="287.12" y="232.81" width="18.66" height="11.62"/>
                  <rect class="cls-10" x="287.12" y="238.62" width="18.66" height="5.81"/>
                </g>
                <g>
                  <rect class="cls-11" x="36.91" y="232.81" width="18.66" height="11.62"/>
                  <rect class="cls-10" x="36.91" y="238.62" width="18.66" height="5.81"/>
                </g>
              </g>
              <g>
                <rect class="cls-12" x="171.34" y="93.38" width="125.1" height="129.15"/>
                <g>
                  <g>
                    <rect class="cls-13" x="180.55" y="112.18" width="32.04" height="4.75"/>
                    <rect class="cls-13" x="217.88" y="112.18" width="32.04" height="4.75"/>
                    <rect class="cls-13" x="255.2" y="112.18" width="32.04" height="4.75"/>
                  </g>
                  <rect class="cls-14" x="180.46" y="134.4" width="29.13" height="4.75"/>
                  <rect class="cls-14" x="180.46" y="147.41" width="29.13" height="21.11"/>
                  <rect class="cls-14" x="215.62" y="147.41" width="29.12" height="21.11"/>
                  <rect class="cls-14" x="215.62" y="147.41" width="29.12" height="21.11"/>
                  <g>
                    <rect class="cls-13" x="180.46" y="173.58" width="29.13" height="4.75"/>
                    <rect class="cls-14" x="180.46" y="194.25" width="64.28" height="4.75"/>
                    <rect class="cls-14" x="272.73" y="204.83" width="14.56" height="4.75"/>
                    <rect class="cls-13" x="180.46" y="204.83" width="29.13" height="4.75"/>
                    <rect class="cls-14" x="180.46" y="184.27" width="12.03" height="4.75"/>
                    <rect class="cls-14" x="197.56" y="184.27" width="12.02" height="4.75"/>
                    <rect class="cls-14" x="215.62" y="173.58" width="29.12" height="4.75"/>
                    <rect class="cls-13" x="272.73" y="173.58" width="14.56" height="4.75"/>
                  </g>
                  <rect class="cls-14" x="215.62" y="134.4" width="71.67" height="4.75"/>
                  <g>
                    <rect class="cls-14" x="250.78" y="147.41" width="36.52" height="1.9"/>
                    <rect class="cls-14" x="250.78" y="151.8" width="36.52" height="1.9"/>
                    <rect class="cls-14" x="250.78" y="156.2" width="18.26" height="1.9"/>
                  </g>
                </g>
              </g>
              <g>
                <rect class="cls-2" x="46.24" y="93.38" width="125.11" height="129.15"/>
                <g>
                  <rect class="cls-8" x="60.4" y="103.03" width="6.61" height="3.39"/>
                  <rect class="cls-8" x="60.4" y="125.3" width="6.61" height="3.39"/>
                  <rect class="cls-8" x="68.72" y="103.03" width="31.15" height="3.39"/>
                  <rect class="cls-8" x="68.72" y="125.3" width="23.85" height="3.39"/>
                  <rect class="cls-8" x="67.01" y="111.49" width="10.5" height="3.39"/>
                  <rect class="cls-8" x="67.01" y="150.69" width="10.5" height="3.39"/>
                  <rect class="cls-8" x="80" y="150.69" width="27.48" height="3.39"/>
                  <rect class="cls-8" x="72.95" y="175.66" width="8.66" height="3.39"/>
                  <rect class="cls-8" x="86.23" y="209.51" width="15.22" height="3.39"/>
                  <rect class="cls-8" x="133.15" y="192.58" width="11.27" height="3.39"/>
                  <rect class="cls-8" x="110.58" y="150.69" width="19.76" height="3.39"/>
                  <rect class="cls-8" x="134.36" y="150.69" width="12.09" height="3.39"/>
                  <rect class="cls-8" x="67.01" y="133.76" width="15.68" height="3.39"/>
                  <rect class="cls-8" x="67.01" y="142.23" width="22.24" height="3.39"/>
                  <rect class="cls-8" x="72.95" y="184.12" width="25.49" height="3.39"/>
                  <rect class="cls-8" x="72.95" y="192.58" width="23.42" height="3.39"/>
                  <rect class="cls-8" x="103.95" y="192.58" width="24.28" height="3.39"/>
                  <rect class="cls-8" x="103.95" y="209.51" width="24.28" height="3.39"/>
                  <rect class="cls-8" x="60.4" y="175.66" width="9.01" height="3.39"/>
                  <rect class="cls-8" x="72.95" y="209.51" width="10.36" height="3.39"/>
                  <rect class="cls-8" x="78.25" y="201.05" width="15.9" height="3.39"/>
                  <rect class="cls-8" x="96.46" y="201.05" width="41.22" height="3.39"/>
                  <rect class="cls-8" x="91.63" y="142.23" width="22.24" height="3.39"/>
                  <rect class="cls-8" x="137.32" y="142.23" width="12.99" height="3.39"/>
                  <rect class="cls-8" x="115.4" y="142.23" width="13.89" height="3.39"/>
                  <rect class="cls-8" x="87.82" y="133.76" width="24.09" height="3.39"/>
                  <rect class="cls-8" x="84.07" y="111.49" width="9.67" height="3.39"/>
                </g>
              </g>
            </g>
            <g>
              <path class="cls-10" d="M151.36,141.68c0,31.68-26.52,57.36-59.23,57.36s-59.24-25.68-59.24-57.36S59.41,84.33,92.13,84.33,151.36,110,151.36,141.68Z" transform="translate(-31.43 -34)"/>
              <g>
                <path class="cls-2" d="M141.49,141.68c0,26.4-22.1,47.8-49.36,47.8s-49.36-21.4-49.36-47.8S64.86,93.89,92.13,93.89,141.49,115.29,141.49,141.68Z" transform="translate(-31.43 -34)"/>
                <g class="cls-15">
                  <g>
                    <rect class="cls-12" x="15.13" y="59.27" width="7.8" height="3.08"/>
                    <rect class="cls-1" x="15.13" y="80.54" width="7.8" height="3.07"/>
                    <rect class="cls-12" x="24.95" y="59.27" width="36.74" height="3.08"/>
                    <rect class="cls-1" x="24.95" y="80.54" width="28.14" height="3.07"/>
                    <rect class="cls-7" x="22.93" y="67.36" width="12.39" height="3.07"/>
                    <rect class="cls-7" x="22.93" y="104.78" width="12.39" height="3.08"/>
                    <rect class="cls-7" x="38.26" y="104.78" width="32.41" height="3.08"/>
                    <rect class="cls-12" x="29.94" y="120.7" width="10.21" height="3.08"/>
                    <rect class="cls-1" x="45.6" y="153.03" width="17.94" height="3.07"/>
                    <rect class="cls-1" x="100.94" y="136.85" width="13.29" height="3.09"/>
                    <rect class="cls-1" x="74.33" y="104.78" width="23.31" height="3.08"/>
                    <rect class="cls-7" x="102.37" y="104.78" width="14.27" height="3.08"/>
                    <rect class="cls-7" x="22.93" y="88.63" width="18.5" height="3.08"/>
                    <rect class="cls-7" x="22.93" y="96.7" width="26.23" height="3.08"/>
                    <rect class="cls-7" x="29.94" y="128.78" width="30.06" height="3.08"/>
                    <rect class="cls-7" x="29.94" y="136.85" width="27.63" height="3.09"/>
                    <rect class="cls-7" x="66.51" y="136.85" width="28.64" height="3.09"/>
                    <rect class="cls-1" x="66.51" y="153.03" width="28.64" height="3.07"/>
                    <rect class="cls-12" x="15.13" y="120.7" width="10.63" height="3.08"/>
                    <rect class="cls-7" x="29.94" y="153.03" width="12.22" height="3.07"/>
                    <rect class="cls-1" x="36.19" y="144.95" width="18.76" height="3.06"/>
                    <rect class="cls-7" x="57.67" y="144.95" width="48.62" height="3.06"/>
                    <rect class="cls-7" x="51.97" y="96.7" width="26.23" height="3.08"/>
                    <rect class="cls-12" x="105.86" y="96.7" width="15.33" height="3.08"/>
                    <rect class="cls-7" x="80" y="96.7" width="16.39" height="3.08"/>
                    <rect class="cls-7" x="47.48" y="88.63" width="28.41" height="3.08"/>
                    <rect class="cls-7" x="43.06" y="67.36" width="11.4" height="3.07"/>
                  </g>
                </g>
              </g>
            </g>
          </g>
          <g>
            <path class="cls-7" d="M478.54,283.63c0,28-23.44,50.7-52.35,50.7s-52.36-22.7-52.36-50.7,23.44-50.69,52.36-50.69S478.54,255.64,478.54,283.63Z" transform="translate(-31.43 -34)"/>
            <path class="cls-16" d="M497.9,311.4a5.41,5.41,0,0,0-1.5-1.65,5.73,5.73,0,0,0-1-1,5.24,5.24,0,0,0-1-.95,5.29,5.29,0,0,0-1-1,5,5,0,0,0-1-1,5.61,5.61,0,0,0-1-1,5.61,5.61,0,0,0-1-1,275.32,275.32,0,0,0-2-1.92,4.73,4.73,0,0,0-1-1,5.28,5.28,0,0,0-1-1,5.67,5.67,0,0,0-1-1,5.22,5.22,0,0,0-1-.95,6.48,6.48,0,0,0-1-1,6.41,6.41,0,0,0-1-1,5.67,5.67,0,0,0-1-1,4.94,4.94,0,0,0-1-.95,5.34,5.34,0,0,0-1-1,5.72,5.72,0,0,0-.93-.91,34,34,0,0,0-9.69-15.91c-.32-.33-16.9-16.38-17.23-16.69a35.85,35.85,0,0,0-25.5-10.53c-19.54,0-35.38,15.34-35.38,34.25a33.65,33.65,0,0,0,10.86,24.69c.33.33,16.9,16.37,17.24,16.68a36,36,0,0,0,57.7-9.53l4.61,1.22h0l10.28,2.71a5.74,5.74,0,0,0,4.29-.53,5.47,5.47,0,0,0,2.65-3.31A5.33,5.33,0,0,0,497.9,311.4Z" transform="translate(-31.43 -34)"/>
            <path class="cls-7" d="M480.22,297.92a5.5,5.5,0,0,1-2.65,3.31,5.82,5.82,0,0,1-4.3.53l-16.38-4.33,3-10.58,16.38,4.33a5.64,5.64,0,0,1,3.43,2.58A5.32,5.32,0,0,1,480.22,297.92Z" transform="translate(-31.43 -34)"/>
            <path class="cls-9" d="M459.87,286.85l-3,10.58L463,299a37.08,37.08,0,0,0,3-10.57Z" transform="translate(-31.43 -34)"/>
            <path class="cls-7" d="M461.56,283.63c0,18.92-15.84,34.25-35.37,34.25s-35.38-15.33-35.38-34.25,15.84-34.25,35.38-34.25S461.56,264.72,461.56,283.63Z" transform="translate(-31.43 -34)"/>
            <path class="cls-12" d="M455.9,283.63c0,15.89-13.3,28.78-29.71,28.78s-29.72-12.89-29.72-28.78,13.31-28.77,29.72-28.77S455.9,267.75,455.9,283.63Z" transform="translate(-31.43 -34)"/>
            <path class="cls-13" d="M405,291.86c0-15.89,13.31-28.78,29.72-28.78A30.3,30.3,0,0,1,451,267.82a30,30,0,0,0-24.82-13c-16.41,0-29.72,12.89-29.72,28.77a28.54,28.54,0,0,0,13.39,24A27.92,27.92,0,0,1,405,291.86Z" transform="translate(-31.43 -34)"/>
          </g>
          <g>
            <path class="cls-7" d="M424.67,454.53c0,10.74-9.08,19.53-20.18,19.53H389.82c-11.1,0-20.18-8.79-20.18-19.53V398.62c0-10.75,9.08-19.54,20.18-19.54h14.67c11.1,0,20.18,8.79,20.18,19.54Z" transform="translate(-31.43 -34)"/>
            <path class="cls-17" d="M415.37,382.21a18.12,18.12,0,0,1,.33,3.39V428a32.4,32.4,0,0,1-10,23.36,34.59,34.59,0,0,1-24.13,9.69h-.73A20.56,20.56,0,0,1,370,457.92a20.06,20.06,0,0,0,19.85,16.14h14.67c11.1,0,20.18-8.79,20.18-19.53V398.62A19.41,19.41,0,0,0,415.37,382.21Z" transform="translate(-31.43 -34)"/>
            <path class="cls-10" d="M401.74,399.52a4.59,4.59,0,1,1-4.59-4.45A4.51,4.51,0,0,1,401.74,399.52Z" transform="translate(-31.43 -34)"/>
          </g>
          <rect class="cls-12" x="79.72" y="375.94" width="98.55" height="57.25"/>
          <rect class="cls-18" y="280.81" width="59.78" height="57.88"/>
          <g>
            <path class="cls-2" d="M518,388.37c0,21.1-17.67,38.2-39.46,38.2s-39.46-17.1-39.46-38.2,17.67-38.21,39.46-38.21S518,367.26,518,388.37Z" transform="translate(-31.43 -34)"/>
            <text class="cls-19" transform="translate(417.64 365.51) scale(1.06 1)">J<tspan class="cls-20" x="11.58" y="0">a</tspan><tspan class="cls-21" x="26.41" y="0">v</tspan><tspan x="41.34" y="0">a</tspan></text>
          </g>
          <rect class="cls-7" x="248.54" y="167.92" width="99.58" height="43.39"/>
        </g>
        <text class="cls-22" transform="translate(271.22 199.01) scale(1.03 1)">SQL</text>
        <text class="cls-23" transform="translate(8.13 319.55) scale(1.03 1)">CSS</text>
        <text class="cls-19" transform="translate(94.16 415.16) scale(0.95 1)">HTML</text>
      </g>
    </g>
  </g>
</svg>
