<svg xmlns="http://www.w3.org/2000/svg" xmlns:xlink="http://www.w3.org/1999/xlink" width="315.191" height="304.24" viewBox="0 0 315.191 304.24">
  <defs>
    <linearGradient id="linear-gradient" x1="0.541" y1="0.087" x2="0.541" y2="1.087" gradientUnits="objectBoundingBox">
      <stop offset="0.2" stop-color="gray" stop-opacity="0.4"/>
      <stop offset="0.46" stop-color="gray" stop-opacity="0.502"/>
      <stop offset="1" stop-opacity="0.6"/>
    </linearGradient>
    <linearGradient id="linear-gradient-2" x1="0.602" y1="-0.327" x2="0.602" y2="0.673" gradientUnits="objectBoundingBox">
      <stop offset="0" stop-color="gray" stop-opacity="0.251"/>
      <stop offset="0.54" stop-color="gray" stop-opacity="0.122"/>
      <stop offset="1" stop-color="gray" stop-opacity="0.102"/>
    </linearGradient>
  </defs>
  <g id="Group_275" data-name="Group 275" transform="translate(-377.226 -361)">
    <path id="Path_412" data-name="Path 412" d="M145.852-.307C226.461-.414,291.717,62.148,291.607,139.43c-.007,4.946-1.044,13.206-1.589,18.166C282.3,227.859,220.9,279.456,145.453,279.556,64.844,279.663-.412,217.1-.3,139.819S65.243-.2,145.852-.307Z" transform="matrix(0.996, -0.087, 0.087, 0.996, 377.554, 386.721)" fill="#54b192"/>
    <g id="Group_2" data-name="Group 2" transform="translate(401.825 418.464)">
      <path id="Path_1" data-name="Path 1" d="M270.036,525.308c0,13.315-57.488,62.317-129.312,62.317S12.4,535.384,12.4,522.1s56.523,17.333,128.323,17.333S270.036,511.993,270.036,525.308Z" transform="translate(-8.386 -363.186)" fill="#3f3d56"/>
      <path id="Path_2" data-name="Path 2" d="M262.64,156.814v.54a20.624,20.624,0,0,1-7.031,14.9c-4.711,4.108-11.008,6.268-17.495,7.647-1.018.21-2.036.42-3.054.6-.521.09-1.042.18-1.539.27-14.417,2.4-29.142,2.849-43.82,3.3-15.341.48-30.681.96-46.022,1.2l-3.054.06c-23.295.33-46.566.06-69.766-1.619-7.2-.51-14.465-1.2-21.614-2.339-1.018-.15-2.036-.33-3.054-.51a96.822,96.822,0,0,1-27.035-8.637,55.988,55.988,0,0,1-5.8-3.389C8.1,165.3,3.673,160.833,1.472,155.345A23.364,23.364,0,0,1-.043,144.939a30.955,30.955,0,0,1,.521-3.869,39.726,39.726,0,0,1,2.983-8.907c3.409-7.317,8.546-13.885,12.973-20.752,9.446-14.665,15.6-33.168,6.889-48.192-2.509-4.318-6.108-8.1-8.167-12.625a23.872,23.872,0,0,1-1.989-7.917,35.2,35.2,0,0,1-.118-3.869,66.239,66.239,0,0,1,.9-8.937c1.42-9.207,4.072-19.133,12.263-24.891C31.845,1.023,38.971-.207,46.191.033q1.527.045,3.054.18a73.643,73.643,0,0,1,8.191,1.2c16.43,3.329,31.6,10.286,46.921,16.554,11.671,4.768,23.745,9.237,36.268,11.366,1.018.18,2.036.33,3.054.48a79.62,79.62,0,0,0,8.878.78c14.867.54,32.22-3.539,42.092-14.125,9.54-10.256,27.438-11.066,40.411-4.948l.189.09q1.456.72,2.841,1.529c9.564,5.7,15.98,15.444,16.879,25.67a25.58,25.58,0,0,1,.071,3.809v.03c-.615,12.565-8.736,23.121-16.95,33.677-1.018,1.319-2.036,2.609-3.054,3.929-2.675,3.479-5.256,6.987-7.5,10.586a52.515,52.515,0,0,0-2.817,5.128,37.2,37.2,0,0,0-2.012,5.158,27.787,27.787,0,0,0-1.113,5.788,18.712,18.712,0,0,0,1.184,8.277l.024.06c2.2,5.518,6.842,9.416,12.239,12.9q1.491.945,3.054,1.889c5.847,3.479,12.121,6.747,16.9,11.036a30.259,30.259,0,0,1,3.6,3.839c.45.6.876,1.2,1.278,1.859a19.025,19.025,0,0,1,2.77,9.806C262.64,156.634,262.64,156.724,262.64,156.814Z" transform="translate(0 0)" fill="#38d39f"/>
      <path id="Path_3" data-name="Path 3" d="M262.64,156.814v.54a20.624,20.624,0,0,1-7.031,14.9c-4.711,4.108-11.008,6.268-17.495,7.647-1.018.21-2.036.42-3.054.6-.521.09-1.042.18-1.539.27-14.417,2.4-29.142,2.849-43.82,3.3-15.341.48-30.681.96-46.022,1.2l-3.054.06c-23.295.33-46.566.06-69.766-1.619-7.2-.51-14.465-1.2-21.614-2.339-1.018-.15-2.036-.33-3.054-.51a96.822,96.822,0,0,1-27.035-8.637,55.988,55.988,0,0,1-5.8-3.389C8.1,165.3,3.673,160.833,1.472,155.345A23.364,23.364,0,0,1-.043,144.939a30.955,30.955,0,0,1,.521-3.869,39.726,39.726,0,0,1,2.983-8.907c3.409-7.317,8.546-13.885,12.973-20.752,9.446-14.665,15.6-33.168,6.889-48.192-2.509-4.318-6.108-8.1-8.167-12.625a23.872,23.872,0,0,1-1.989-7.917,35.2,35.2,0,0,1-.118-3.869,66.239,66.239,0,0,1,.9-8.937c1.42-9.207,4.072-19.133,12.263-24.891C31.845,1.023,38.971-.207,46.191.033q1.527.045,3.054.18a73.643,73.643,0,0,1,8.191,1.2c16.43,3.329,31.6,10.286,46.921,16.554,11.671,4.768,23.745,9.237,36.268,11.366,1.018.18,2.036.33,3.054.48a79.62,79.62,0,0,0,8.878.78c14.867.54,32.22-3.539,42.092-14.125,9.54-10.256,27.438-11.066,40.411-4.948l.189.09q1.456.72,2.841,1.529c9.564,5.7,15.98,15.444,16.879,25.67a25.58,25.58,0,0,1,.071,3.809v.03c-.615,12.565-8.736,23.121-16.95,33.677-1.018,1.319-2.036,2.609-3.054,3.929-2.675,3.479-5.256,6.987-7.5,10.586a52.515,52.515,0,0,0-2.817,5.128,37.2,37.2,0,0,0-2.012,5.158,27.787,27.787,0,0,0-1.113,5.788,18.712,18.712,0,0,0,1.184,8.277l.024.06c2.2,5.518,6.842,9.416,12.239,12.9q1.491.945,3.054,1.889c5.847,3.479,12.121,6.747,16.9,11.036a30.259,30.259,0,0,1,3.6,3.839c.45.6.876,1.2,1.278,1.859a19.025,19.025,0,0,1,2.77,9.806C262.64,156.634,262.64,156.724,262.64,156.814Z" transform="translate(0 0)" fill="url(#linear-gradient)"/>
      <path id="Path_4" data-name="Path 4" d="M997.558,39.989v63.216c-1.419,1.32-2.839,2.609-4.258,3.929V38.4Z" transform="translate(-769.118 -26.881)" fill="#3f3d56"/>
      <path id="Path_5" data-name="Path 5" d="M289.463,133.139v.03H55.787a36.424,36.424,0,0,1-.114-3.869H289.394A26.888,26.888,0,0,1,289.463,133.139Z" transform="translate(-37.369 -90.522)" fill="#3f3d56"/>
      <ellipse id="Ellipse_1" data-name="Ellipse 1" cx="1.254" cy="1.14" rx="1.254" ry="1.14" transform="translate(56.007 20.395)" fill="#e7effd"/>
      <ellipse id="Ellipse_2" data-name="Ellipse 2" cx="1.254" cy="1.14" rx="1.254" ry="1.14" transform="translate(38.708 18.146)" fill="#e7effd"/>
      <ellipse id="Ellipse_3" data-name="Ellipse 3" cx="0.528" cy="0.48" rx="0.528" ry="0.48" transform="translate(66.619 21.055)" fill="#e7effd"/>
      <ellipse id="Ellipse_4" data-name="Ellipse 4" cx="0.528" cy="0.48" rx="0.528" ry="0.48" transform="translate(53.233 19.946)" fill="#e7effd"/>
      <ellipse id="Ellipse_5" data-name="Ellipse 5" cx="0.528" cy="0.48" rx="0.528" ry="0.48" transform="translate(52.704 53.653)" fill="#e7effd"/>
      <ellipse id="Ellipse_6" data-name="Ellipse 6" cx="0.528" cy="0.48" rx="0.528" ry="0.48" transform="translate(209.39 28.162)" fill="#e7effd"/>
      <ellipse id="Ellipse_7" data-name="Ellipse 7" cx="0.528" cy="0.48" rx="0.528" ry="0.48" transform="translate(84.378 28.612)" fill="#e7effd"/>
      <ellipse id="Ellipse_8" data-name="Ellipse 8" cx="0.528" cy="0.48" rx="0.528" ry="0.48" transform="translate(194.552 27.653)" fill="#e7effd"/>
      <ellipse id="Ellipse_9" data-name="Ellipse 9" cx="0.528" cy="0.48" rx="0.528" ry="0.48" transform="translate(234.911 29.092)" fill="#e7effd"/>
      <path id="Path_6" data-name="Path 6" d="M300.913,362.014v.54a20.869,20.869,0,0,1-6.881,15.054c-4.61,4.108-10.773,6.268-17.121,7.647-1,.21-1.992.42-2.989.6-.51.09-1.019.18-1.506.27-3.475.6-6.974,1.05-10.472,1.439-4.7.51-9.429.87-14.156,1.14-6.07.36-12.163.54-18.233.75q-17.828.585-35.679,1.02l-4.217.09-5.143.09-2.989.06c-18.766.27-37.509.12-56.206-.87-1.251-.06-2.479-.12-3.73-.21q-4.17-.225-8.34-.54c-5.56-.42-11.19-.93-16.751-1.679-1.483-.21-2.942-.42-4.4-.66-1-.15-1.992-.33-2.989-.51-1.112-.21-2.2-.42-3.29-.66a89.183,89.183,0,0,1-23.145-7.977A52.223,52.223,0,0,1,57,374.22v-52.78c1.019-1.529,2.039-3.089,3.035-4.648,1.182-1.889,2.317-3.809,3.359-5.788H85.821V293.1h39.5v39.255H189.66V301.167h74.23a36.747,36.747,0,0,0-1.946,4.978v.18h-.093a28.33,28.33,0,0,0-1.089,5.788,19.088,19.088,0,0,0,1.158,8.277v.12l.023.06c2.155,5.518,6.7,9.416,11.978,12.9q1.46.945,2.989,1.889c5.653,3.449,11.746,6.658,16.4,10.916l.139.12a26.771,26.771,0,0,1,3.429,3.719.42.42,0,0,1,.093.12c.44.6.857,1.2,1.251,1.859a19.356,19.356,0,0,1,2.711,9.686A.745.745,0,0,0,300.913,362.014Z" transform="translate(-38.264 -205.2)" fill="#38d39f"/>
      <path id="Path_7" data-name="Path 7" d="M300.913,362.014v.54a20.869,20.869,0,0,1-6.881,15.054c-4.61,4.108-10.773,6.268-17.121,7.647-1,.21-1.992.42-2.989.6-.51.09-1.019.18-1.506.27-3.475.6-6.974,1.05-10.472,1.439-4.7.51-9.429.87-14.156,1.14-6.07.36-12.163.54-18.233.75q-17.828.585-35.679,1.02l-4.217.09-5.143.09-2.989.06c-18.766.27-37.509.12-56.206-.87-1.251-.06-2.479-.12-3.73-.21q-4.17-.225-8.34-.54c-5.56-.42-11.19-.93-16.751-1.679-1.483-.21-2.942-.42-4.4-.66-1-.15-1.992-.33-2.989-.51-1.112-.21-2.2-.42-3.29-.66a89.183,89.183,0,0,1-23.145-7.977A52.223,52.223,0,0,1,57,374.22v-52.78c1.019-1.529,2.039-3.089,3.035-4.648,1.182-1.889,2.317-3.809,3.359-5.788H85.821V293.1h39.5v39.255H189.66V301.167h74.23a36.747,36.747,0,0,0-1.946,4.978v.18h-.093a28.33,28.33,0,0,0-1.089,5.788,19.088,19.088,0,0,0,1.158,8.277v.12l.023.06c2.155,5.518,6.7,9.416,11.978,12.9q1.46.945,2.989,1.889c5.653,3.449,11.746,6.658,16.4,10.916l.139.12a26.771,26.771,0,0,1,3.429,3.719.42.42,0,0,1,.093.12c.44.6.857,1.2,1.251,1.859a19.356,19.356,0,0,1,2.711,9.686A.745.745,0,0,0,300.913,362.014Z" transform="translate(-38.264 -205.2)" opacity="0.3"/>
      <rect id="Rectangle_1" data-name="Rectangle 1" width="9.441" height="5.788" transform="translate(29.201 113.001)" opacity="0.4"/>
      <rect id="Rectangle_2" data-name="Rectangle 2" width="9.441" height="5.788" transform="translate(44.32 113.001)" opacity="0.4"/>
      <rect id="Rectangle_3" data-name="Rectangle 3" width="9.441" height="5.788" transform="translate(154.508 101.095)" opacity="0.4"/>
      <rect id="Rectangle_4" data-name="Rectangle 4" width="9.441" height="5.788" transform="translate(172.594 101.095)" opacity="0.4"/>
      <rect id="Rectangle_5" data-name="Rectangle 5" width="9.441" height="5.788" transform="translate(192.039 101.095)" opacity="0.4"/>
      <rect id="Rectangle_6" data-name="Rectangle 6" width="9.441" height="5.788" transform="translate(154.508 118.789)" opacity="0.4"/>
      <rect id="Rectangle_7" data-name="Rectangle 7" width="9.441" height="5.788" transform="translate(172.594 118.789)" opacity="0.4"/>
      <rect id="Rectangle_8" data-name="Rectangle 8" width="9.441" height="5.788" transform="translate(192.039 118.789)" fill="#e52478"/>
      <rect id="Rectangle_9" data-name="Rectangle 9" width="9.441" height="5.788" transform="translate(154.508 136.482)" opacity="0.4"/>
      <rect id="Rectangle_10" data-name="Rectangle 10" width="9.441" height="5.788" transform="translate(172.594 136.482)" opacity="0.4"/>
      <rect id="Rectangle_11" data-name="Rectangle 11" width="9.441" height="5.788" transform="translate(192.039 136.482)" opacity="0.4"/>
      <rect id="Rectangle_12" data-name="Rectangle 12" width="9.441" height="5.788" transform="translate(154.508 154.175)" opacity="0.4"/>
      <rect id="Rectangle_13" data-name="Rectangle 13" width="9.441" height="5.788" transform="translate(172.594 154.175)" opacity="0.4"/>
      <rect id="Rectangle_14" data-name="Rectangle 14" width="9.441" height="5.788" transform="translate(192.039 154.175)" opacity="0.4"/>
      <rect id="Rectangle_15" data-name="Rectangle 15" width="9.441" height="5.788" transform="translate(154.508 171.839)" opacity="0.4"/>
      <rect id="Rectangle_16" data-name="Rectangle 16" width="9.441" height="5.788" transform="translate(172.594 171.839)" opacity="0.4"/>
      <rect id="Rectangle_17" data-name="Rectangle 17" width="9.441" height="5.788" transform="translate(192.039 171.839)" opacity="0.4"/>
      <path id="Path_8" data-name="Path 8" d="M927.534,337.2a20.988,20.988,0,0,0-1.552,5.788H920.8V337.2Z" transform="translate(-717.646 -236.075)" opacity="0.4"/>
      <rect id="Rectangle_18" data-name="Rectangle 18" width="9.441" height="5.788" transform="translate(203.072 118.789)" fill="#e52478"/>
      <rect id="Rectangle_19" data-name="Rectangle 19" width="9.441" height="5.788" transform="translate(203.072 136.482)" opacity="0.4"/>
      <rect id="Rectangle_20" data-name="Rectangle 20" width="9.441" height="5.788" transform="translate(203.072 154.175)" opacity="0.4"/>
      <rect id="Rectangle_21" data-name="Rectangle 21" width="9.441" height="5.788" transform="translate(203.072 171.839)" opacity="0.4"/>
      <rect id="Rectangle_22" data-name="Rectangle 22" width="9.441" height="5.788" transform="translate(57.869 94.348)" opacity="0.4"/>
      <rect id="Rectangle_23" data-name="Rectangle 23" width="9.441" height="5.788" transform="translate(57.869 107.333)" fill="#e52478"/>
      <rect id="Rectangle_24" data-name="Rectangle 24" width="9.441" height="5.788" transform="translate(57.869 120.288)" opacity="0.4"/>
      <rect id="Rectangle_25" data-name="Rectangle 25" width="9.441" height="5.788" transform="translate(57.869 133.273)" opacity="0.4"/>
      <rect id="Rectangle_26" data-name="Rectangle 26" width="9.441" height="5.788" transform="translate(57.869 146.258)" opacity="0.4"/>
      <rect id="Rectangle_27" data-name="Rectangle 27" width="9.441" height="5.788" transform="translate(57.869 159.214)" opacity="0.4"/>
      <rect id="Rectangle_28" data-name="Rectangle 28" width="9.441" height="5.788" transform="translate(57.869 172.199)" opacity="0.4"/>
      <rect id="Rectangle_29" data-name="Rectangle 29" width="9.441" height="5.788" transform="translate(29.201 128.115)" opacity="0.4"/>
      <rect id="Rectangle_30" data-name="Rectangle 30" width="9.441" height="5.788" transform="translate(44.32 128.115)" opacity="0.4"/>
      <rect id="Rectangle_31" data-name="Rectangle 31" width="9.441" height="5.788" transform="translate(29.201 143.259)" opacity="0.4"/>
      <rect id="Rectangle_32" data-name="Rectangle 32" width="9.441" height="5.788" transform="translate(44.32 143.259)" opacity="0.4"/>
      <rect id="Rectangle_33" data-name="Rectangle 33" width="9.441" height="5.788" transform="translate(29.201 158.374)" opacity="0.4"/>
      <rect id="Rectangle_34" data-name="Rectangle 34" width="9.441" height="5.788" transform="translate(44.32 158.374)" opacity="0.4"/>
      <rect id="Rectangle_35" data-name="Rectangle 35" width="47.205" height="5.188" transform="translate(91.09 133.903)" opacity="0.4"/>
      <rect id="Rectangle_36" data-name="Rectangle 36" width="47.205" height="5.188" transform="translate(91.09 150.397)" opacity="0.4"/>
      <rect id="Rectangle_37" data-name="Rectangle 37" width="47.205" height="5.188" transform="translate(91.09 166.891)" opacity="0.4"/>
      <path id="Path_9" data-name="Path 9" d="M199.758.28V181.412c-1.419-.15-2.839-.33-4.258-.51V.1Q197.629.145,199.758.28Z" transform="translate(-145.726 -0.067)" fill="#3f3d56"/>
      <path id="Path_10" data-name="Path 10" d="M598.658,98.25V253.742l-4.258.06V97.8C595.819,97.95,597.239,98.13,598.658,98.25Z" transform="translate(-454.422 -68.468)" fill="#3f3d56"/>
      <path id="Path_11" data-name="Path 11" d="M257.308,474.169H.3A31.142,31.142,0,0,1,.818,470.3H253.733A27.128,27.128,0,0,1,257.308,474.169Z" transform="translate(-0.281 -329.26)" fill="#3f3d56"/>
      <path id="Path_12" data-name="Path 12" d="M993.3,427.2q2.08.945,4.258,1.889v49.9c-1.419.21-2.839.42-4.258.6Z" transform="translate(-769.118 -299.085)" fill="#3f3d56"/>
      <path id="Path_13" data-name="Path 13" d="M333.783,228.12h-.825v-.72h-.132v.72H332v.15h.825v.72h.132v-.72h.825Z" transform="translate(-253.643 -159.202)" fill="#e7effd"/>
      <path id="Path_14" data-name="Path 14" d="M845.082,176.95h-.825v-.75h-.165v.75H843.3v.12h.792v.75h.165v-.75h.825Z" transform="translate(-644.128 -123.357)" fill="#e7effd"/>
      <path id="Path_15" data-name="Path 15" d="M392.05,167.02h-.792v-.72h-.165v.72H390.3v.15h.792v.72h.165v-.72h.792Z" transform="translate(-298.164 -116.426)" fill="#e7effd"/>
      <ellipse id="Ellipse_10" data-name="Ellipse 10" cx="0.528" cy="0.48" rx="0.528" ry="0.48" transform="translate(92.206 97.287)" fill="#e7effd"/>
      <ellipse id="Ellipse_11" data-name="Ellipse 11" cx="0.528" cy="0.48" rx="0.528" ry="0.48" transform="translate(179.039 54.133)" fill="#e7effd"/>
      <ellipse id="Ellipse_12" data-name="Ellipse 12" cx="0.528" cy="0.48" rx="0.528" ry="0.48" transform="translate(202.915 77.014)" fill="#e7effd"/>
      <ellipse id="Ellipse_13" data-name="Ellipse 13" cx="0.528" cy="0.48" rx="0.528" ry="0.48" transform="translate(157.378 81.153)" fill="#e7effd"/>
      <path id="Path_16" data-name="Path 16" d="M458.251,266.133s-11.323,2.489-15.812,7.137a15.438,15.438,0,0,1-6.041,3.479v-7.017c2.575-3.959,5.216-8.337,5.216-8.337.132-.21,1.056-3.239,1.056-3.239,2.113-1.529-.132-6.807-.132-6.807s1.287-3.359.594-4.019-.132-2.369.462-3.149a3.584,3.584,0,0,0,.462-2.369c0-.63-.957-1.619-2.476-2.159s.132-1.409,1.056-1.619,1.188-2.279.132-3.359.132-1.739.693-2.909-1.882-.99-1.882-.99V219.83h0s-.726-3.569-1.419-9.866-3.433-6.927-3.433-6.927a35.643,35.643,0,0,1-4.258-1.529,28.893,28.893,0,0,0-4.489-1.5,25.319,25.319,0,0,1-5.777-.72,19.7,19.7,0,0,0-3.961-.78l-.429-.18a14.8,14.8,0,0,1-7.163-6.9l-.2-.45a16.374,16.374,0,0,0,1.882-2.279v1.26h0v.03c1.882-3.029,7.328-3.719,7.857-7.167a2.349,2.349,0,0,0,.033-.48v-.39c-.066-.96-.429-1.919-.5-2.879a3.575,3.575,0,0,1,0-.84v.03c.231-2.669,2.476-5.008,3.466-7.617a8.292,8.292,0,0,0,.528-2.159v-.03c.033-.21.033-.45.066-.66v-.63a9.7,9.7,0,0,0-3.7-7.317c-1.882-1.5-4.357-2.429-5.678-4.348-.594-.9-.891-1.979-1.585-2.849-1.254-1.649-3.532-2.309-5.711-2.549s-4.39-.15-6.47-.78c-1.486-.45-2.806-1.23-4.291-1.619a8.686,8.686,0,0,0-8.814,2.879c-.792,1.05-1.287,2.279-2.344,3.089-2.146,1.649-5.843.93-7.724,2.849a4.672,4.672,0,0,0-1.023,3.959v.06c0,.12.033.24.033.33v.15a.409.409,0,0,0,.033.18c.066.54.165,1.05.231,1.559,0,.09.033.15.033.24l.066.48c0,.12.033.24.033.33s.033.3.033.42a1.121,1.121,0,0,0,.033.33,21.56,21.56,0,0,1-2.707,11.546c-1.783,3.179-4.457,6.118-4.919,9.656a10.455,10.455,0,0,0-.066,1.769v.21c0,.06.033.21.033.3s.033.24.033.36c0,.06.033.15.033.21.033.15.033.33.066.48l.033.09c.462,2.429,1.518,4.8,2.113,7.257a19.52,19.52,0,0,1,.429,2.729v.03a7.925,7.925,0,0,1,.033.87v1.2a28.318,28.318,0,0,1-2.74.78c-1.651.21-6.5,4.108-6.14,5.1s-2.179,7.8-2.245,8.007h0l-3.961,24.891s-2.113,1.829-1.452,3.029-.132,3.239-.132,3.239-3.565,1.409-2.773,2.279.429,2.489-.1,3.569-1.419,3.029,0,3.359.33,4.558.33,4.558,4.985-.51,4.622,2.159c-.132.84,3.466,3.209,4.985,4.138V279.3a43.963,43.963,0,0,1-5.909-1.829c-3.07-1.29-20.3-3.779-24.065,3.689s5.183,17.423,7.427,18.5a14.8,14.8,0,0,1,2.608,2.279c.5.78,3.169.99,3.169.99a21.35,21.35,0,0,1,3.532,1.829c.528.48,4.82,1.739,9.936,2.7h0s-4.126,8.637,2.608,7.917,10.035-3.719,14.756-3.719c1.915,0,5.414-.24,8.979-.54a25.653,25.653,0,0,1,2.641.57,38.842,38.842,0,0,0,6.14,1.2s5.315,2.609,8.154,1.949a1.489,1.489,0,0,0,.627-.3h.066a3.756,3.756,0,0,0,1.717-1.319,59.069,59.069,0,0,1,9.111,1.319c2.938,1.02,23.933-.39,23.933-.39s13.567.24,17.43,1.32,2.509-10.886-4.654-12.235a31.441,31.441,0,0,0-5.81-.51,11.982,11.982,0,0,0,1.353-1.5c2.575-.21,4.291-.36,4.291-.36s6.833-3.029,10.728-4.888a24.543,24.543,0,0,0,6.6-4.768s3.433-1.949,4.853-2.7,2.113-3.239,2.113-3.239C485.485,263.194,458.251,266.133,458.251,266.133Zm-30.733-27.71v-1.08c.363.24.33.63,0,1.08Zm.1,7.647c.3.33.561.66.759.9.759.9-.627,1.32-.528,2.819.033.33.066.81.1,1.319h0c-.132-2.159-.264-3.929-.33-5.038Z" transform="translate(-273.581 -103.23)" fill="url(#linear-gradient-2)"/>
      <path id="Path_17" data-name="Path 17" d="M366.285,580.617a79.375,79.375,0,0,1-9.672-2.669c-3.07-1.26-20.3-3.749-24.065,3.659s5.183,17.244,7.427,18.323,24.065-13.615,24.065-13.615l17.232,6.6,3.3-10.226Z" transform="translate(-258.443 -403.62)" fill="#65617d"/>
      <path id="Path_18" data-name="Path 18" d="M470.848,597h50.638c6.7,0,12.148,4.948,12.148,11.036v1.589c0,6.088-5.447,11.036-12.148,11.036H470.848c-6.7,0-12.148-4.948-12.148-11.036v-1.589C458.667,601.948,464.113,597,470.848,597Z" transform="translate(-361.207 -417.964)" fill="#65617d"/>
      <path id="Path_19" data-name="Path 19" d="M533.567,608.846a10.976,10.976,0,0,1-2.179,6.538,12.82,12.82,0,0,1-1.651,1.829,13.771,13.771,0,0,1-9.21,3.479H471.639c-7.2,0-13.039-5.308-13.039-11.846S464.443,597,471.639,597h48.889C527.724,597,533.567,602.308,533.567,608.846Z" transform="translate(-361.135 -417.964)" opacity="0.1"/>
      <path id="Path_20" data-name="Path 20" d="M461.22,638.8a69.688,69.688,0,0,1-13.633,1.679c-6.14-.09-34.826,10.736-34.826,10.736s-4.126,8.547,2.608,7.857,10.035-3.689,14.756-3.689,19.707-1.5,19.707-1.5l14.393-9.656Z" transform="translate(-320.635 -447.228)" fill="#8a382e"/>
      <path id="Path_21" data-name="Path 21" d="M504.42,298.2l-13.468,2.4-.891.15s-10.662-2.579-11.025-2.789S469,285.907,469,285.907a21.19,21.19,0,0,0,8.748-1.949,2.786,2.786,0,0,0,.4-.24,8.043,8.043,0,0,0,3.631-4.048l.2-.54a10.268,10.268,0,0,0-.1-5.278c-1.32-5.008,1.717-6.388,5.744-6.268,5.81.18,13.732,3.479,13.732,3.479a13.44,13.44,0,0,0,1.254,4.888l.2.45a14.684,14.684,0,0,0,7.163,6.837l.429.18c.429.18.891.36,1.353.51C522.015,287.5,504.42,298.2,504.42,298.2Z" transform="translate(-364.339 -187.331)" fill="#8a382e"/>
      <path id="Path_22" data-name="Path 22" d="M528.3,276.484a18.257,18.257,0,0,1-20.995,3.3,9.3,9.3,0,0,0,.066-5.818c-3.2-12.235,19.476-2.789,19.476-2.789A14.386,14.386,0,0,0,528.3,276.484Z" transform="translate(-390.021 -187.414)" opacity="0.1"/>
      <path id="Path_23" data-name="Path 23" d="M517.732,224.674a13.684,13.684,0,0,1-2.759,8.157,16.44,16.44,0,0,1-2.016,2.249,19.544,19.544,0,0,1-12.344,4.978c-.354.03-.743.03-1.1.03-10.045,0-18.216-6.9-18.216-15.444s8.135-15.444,18.216-15.444c10.045.03,18.216,6.957,18.216,15.474Z" transform="translate(-372.042 -146.46)" fill="#8a382e"/>
      <path id="Path_24" data-name="Path 24" d="M504.42,334.764l-13.468,2.4-.891.15s-10.662-2.579-11.025-2.789S469,322.469,469,322.469a21.191,21.191,0,0,0,8.748-1.949,2.788,2.788,0,0,0,.4-.24,16.458,16.458,0,0,0,11.488,4.558,21.664,21.664,0,0,0,2.41-.15c1.882-.27,3.8-.45,5.711-.6,3.664-.36,9.243-1.349,12.181-4.288l.429.18c.429.18.891.36,1.353.51C522.015,324.058,504.42,334.764,504.42,334.764Z" transform="translate(-364.337 -223.893)" opacity="0.1"/>
      <path id="Path_25" data-name="Path 25" d="M477.227,366.493c.084,2.369,1.71,28.939,1.71,28.939h-50l.336-16.734.28-13.375.084-4.408.392-15.234-1.457-1.38-7.875-7.437h0c.056-.21,2.186-6.987,1.906-7.917s3.811-4.828,5.213-5.038a23.75,23.75,0,0,0,2.354-.75c2.354-.9,5.521-2.189,5.857-1.979.5.27,5.409-.21,5.605-.24h0a13.159,13.159,0,0,0,10.117,4.978,11.786,11.786,0,0,0,2.046-.18c1.6-.27,3.223-.45,4.848-.6,3.251-.36,8.323-1.469,10.706-4.738a14.806,14.806,0,0,1,3.363.78,18.53,18.53,0,0,0,4.9.72,24.76,24.76,0,0,1,3.812,1.5,27.251,27.251,0,0,0,3.615,1.5s2.3.63,2.915,6.867,1.205,9.746,1.205,9.746l-11.911,11.036C477.227,352.548,477.143,364.124,477.227,366.493Z" transform="translate(-326.814 -226.688)" fill="#38d39f"/>
      <path id="Path_26" data-name="Path 26" d="M416.513,514.617l2.08,3,7.725,2.489,5.315-8.817-4.886-3-7.856-2.789-4.489,2.369Z" transform="translate(-318.293 -353.904)" fill="#8a382e"/>
      <path id="Path_27" data-name="Path 27" d="M618.456,555.846s10.96-.75,15.449-5.368,15.812-7.077,15.812-7.077,27.267-2.909,16.505,18.983c0,0-.693,2.459-2.113,3.209s-4.853,2.669-4.853,2.669L617.4,564.932Z" transform="translate(-480.717 -380.348)" fill="#65617d"/>
      <path id="Path_28" data-name="Path 28" d="M596.631,615.777a10.977,10.977,0,0,1-2.179,6.538c-7.031.57-22.645,1.889-25.913,2.729-4.027,1.02-12.115-.75-13.006-.96l-.1-.03s-1.551-4.318-2.311-7.077c-.33-1.26-.5-2.189-.3-2.249.726-.21,7.2-1.829,7.1-.9S579.4,606.9,579.4,606.9l.594,6.867C582.008,615.9,596.631,612.808,596.631,615.777Z" transform="translate(-428.997 -424.895)" opacity="0.1"/>
      <path id="Path_29" data-name="Path 29" d="M618.254,610.889l-.825,2.789a23.715,23.715,0,0,1-6.6,4.708c-3.9,1.829-10.728,4.828-10.728,4.828s-25.121,1.919-29.379,3-13.105-.96-13.105-.96-3.3-9.117-2.608-9.326,7.2-1.829,7.1-.9,19.476-6.927,19.476-6.927Z" transform="translate(-434.459 -425.735)" fill="#65617d"/>
      <path id="Path_30" data-name="Path 30" d="M534.9,673.371s12.346.78,15.284,1.8,23.933-.39,23.933-.39,13.567.24,17.43,1.29,2.509-10.8-4.655-12.116-17.265.63-17.265.63-11.389-1.349-12.775-1.5-10.5.09-10.5.09Z" transform="translate(-417.896 -464.196)" fill="#8a382e"/>
      <path id="Path_31" data-name="Path 31" d="M387.8,598.9s16.34,1.349,20.83,3.779Z" transform="translate(-298.264 -419.294)" opacity="0.1"/>
      <path id="Path_32" data-name="Path 32" d="M660.193,566.5s-12.775,2.819-17.793,6.987Z" transform="translate(-493.467 -396.611)" opacity="0.1"/>
      <path id="Path_33" data-name="Path 33" d="M390.7,587.6c.264.09,7.526.93,7.328,1.559S390.7,587.6,390.7,587.6Z" transform="translate(-299.039 -411.383)" opacity="0.1"/>
      <path id="Path_34" data-name="Path 34" d="M356.1,627.258l.957,3.209a15.652,15.652,0,0,1,2.608,2.249c.5.75,3.169.96,3.169.96a19.212,19.212,0,0,1,3.532,1.829c.693.66,8.385,2.669,15.581,3.539s20.533,2.459,23.371,3.329a35.664,35.664,0,0,0,6.14,1.17s5.315,2.579,8.154,1.919,7.659-12.325,7.659-12.325-18.651-3.958-19.245-5.248-18.519-7.287-18.519-7.287l-10.629.24Z" transform="translate(-279.902 -434.487)" opacity="0.1"/>
      <path id="Path_35" data-name="Path 35" d="M354,615.615l.957,3.209a15.658,15.658,0,0,1,2.608,2.249c.5.75,3.169.96,3.169.96a19.212,19.212,0,0,1,3.532,1.829c.693.66,8.385,2.669,15.581,3.539s20.533,2.459,23.372,3.329a35.657,35.657,0,0,0,6.14,1.17s5.315,2.579,8.154,1.919,7.658-12.325,7.658-12.325-18.651-3.959-19.245-5.248-26.9-11.036-26.9-11.036l-8.253-1.709Z" transform="translate(-278.252 -422.515)" fill="#65617d"/>
      <path id="Path_36" data-name="Path 36" d="M410.245,371.8l-3.188,1.08-6.072,24.651s-3.238,1.829-2.226,3-.2,3.209-.2,3.209-5.465,1.409-4.25,2.249.658,2.459-.152,3.539-2.176,3,0,3.329.354,4.5.354,4.5,7.64-.51,7.084,2.129c-.253,1.08,8.652,4.5,8.652,4.5s-10.069-10.826,12.5-9.327l1.923-6.088s1.923-3.449,0-4.5.455-6.148.455-6.148l.4-22.132Z" transform="translate(-312.842 -260.299)" fill="#38d39f"/>
      <path id="Path_37" data-name="Path 37" d="M417.4,478c.264.39,8.22,1.2,8.715,2.489S417.4,478,417.4,478Z" transform="translate(-319.625 -334.651)" opacity="0.1"/>
      <path id="Path_38" data-name="Path 38" d="M409.8,492.37s1.089-3.059,3.631-2.519S409.8,492.37,409.8,492.37Z" transform="translate(-313.321 -342.903)" opacity="0.1"/>
      <path id="Path_39" data-name="Path 39" d="M405.6,504.442s1.915-4.078,4.489-3.779S405.6,504.442,405.6,504.442Z" transform="translate(-310.197 -350.506)" opacity="0.1"/>
      <path id="Path_40" data-name="Path 40" d="M620.808,501.168l-.825,4.5s-8.484,14.155-10.035,14.365-9.9-9.446-9.9-9.446l-2.245-9.447,8.814-1.529,3.928-3.509C610.542,496.13,620.445,497,620.808,501.168Z" transform="translate(-460.105 -347.323)" fill="#8a382e"/>
      <path id="Path_41" data-name="Path 41" d="M632.667,379.728l3.877,2.112v11.215s3-.217,2.278.994-2.158,1.9-.839,3.013,1,3.231-.16,3.448-3.158,1.118-1.279,1.678,3,1.553,3,2.237a3.214,3.214,0,0,1-.56,2.454c-.72.777-1.439,2.547-.56,3.231s-.72,4.1-.72,4.1,2.718,5.436.16,6.99c0,0-1.159,3.107-1.279,3.324,0,0,1.8-10.811-16.189-6.244,0,0-.32-4.132-.44-5.654s1.559-1.957.64-2.889-3.238-3.013-2.158-3.541.719-1.553.28-2.33-1.919-.777-.56-1.709,2.2-1.833,1.359-2.268-2.2-1.895-1.079-2.547,1.159-10.314,1.159-10.314S624.113,372.738,632.667,379.728Z" transform="translate(-475.073 -264.501)" fill="#38d39f"/>
      <path id="Path_42" data-name="Path 42" d="M650.8,444.349s4.523-1.11,4.688,0S650.8,444.349,650.8,444.349Z" transform="translate(-497.605 -310.746)" opacity="0.1"/>
      <path id="Path_43" data-name="Path 43" d="M635.3,454.106s6.206-1.409,7-.3S635.3,454.106,635.3,454.106Z" transform="translate(-486.151 -317.414)" opacity="0.1"/>
      <path id="Path_44" data-name="Path 44" d="M631.1,464.789s9.342-1.17,9.936.54S631.1,464.789,631.1,464.789Z" transform="translate(-483.427 -325.128)" opacity="0.1"/>
      <path id="Path_45" data-name="Path 45" d="M635.3,478c.33.09,8.979.63,9.144,2.129S635.3,478,635.3,478Z" transform="translate(-486.505 -334.651)" opacity="0.1"/>
      <path id="Path_46" data-name="Path 46" d="M428.566,494.1h67.045a3.318,3.318,0,0,1,3.466,3.149v31.878a3.318,3.318,0,0,1-3.466,3.149H428.566a3.319,3.319,0,0,1-3.466-3.149V497.249A3.319,3.319,0,0,1,428.566,494.1Z" transform="translate(-334.592 -345.922)" fill="#3f3d56"/>
      <ellipse id="Ellipse_14" data-name="Ellipse 14" cx="2.74" cy="2.489" rx="2.74" ry="2.489" transform="translate(124.374 164.791)" fill="#e7effd"/>
      <path id="Path_47" data-name="Path 47" d="M462.7,416.1s7.1,4.918,12.577,1.17C475.244,417.27,466,418.049,462.7,416.1Z" transform="translate(-354.785 -291.314)" opacity="0.1"/>
      <path id="Path_48" data-name="Path 48" d="M571.4,420.5s7.1,4.918,12.577,1.17C583.977,421.67,574.7,422.449,571.4,420.5Z" transform="translate(-438.111 -294.394)" opacity="0.1"/>
      <path id="Path_49" data-name="Path 49" d="M484.552,224.765a14.336,14.336,0,0,1-2.575,8.157,21.8,21.8,0,0,0-3.829-12.175c-2.344-3.3-9.507-9.057-14.459-7.437a3.307,3.307,0,0,0-2.146,2.1c-.5,1.679.924,2.4,1.849,3.719a10.551,10.551,0,0,1,1.717,7.707,6.43,6.43,0,0,1-.264,1.08c-.759,2.639-2.542,5.668-.726,7.827,1.287,1.5,4.027,2.039,4.39,3.9a2.964,2.964,0,0,1,.033.54c-.1,1.259-1.254,2.369-1.783,3.6a5.512,5.512,0,0,0,.363,4.378c.825,1.919,2.113,3.839,2.443,5.878a10.486,10.486,0,0,1-1.155,5.788,24.662,24.662,0,0,0-1.948,5.458c-.561,3.569.858,7.677-1.585,10.5a1.813,1.813,0,0,1-1.089.66c-1.584.15-1.32-2.429-2.575-3.3a9.292,9.292,0,0,1-.33,4.468,3.775,3.775,0,0,1-3.8,2.369l-.561-3.359a10.582,10.582,0,0,1-3.928,2.219,24.961,24.961,0,0,1,4.093-10.076c-4.159,1.829-6.569,5.758-8.748,9.447-1.353,2.309-2.74,4.828-2.278,7.407.2,1.05.693,2.039.792,3.119a2.536,2.536,0,0,1-1.387,2.7,2.643,2.643,0,0,1-2.74-.78l-.132-.12c-.066-.09-.132-.15-.2-.24a2.8,2.8,0,0,1-.33-.51,8.3,8.3,0,0,1-.66-1.979l-.066-.3c-1.089-4.378-2.08-8.907-1.287-13.345a22.5,22.5,0,0,0,.759-4.918,8.683,8.683,0,0,0-.627-2.729c-.957-2.459-2.806-4.708-3.862-7.167,0-.03-.033-.03-.033-.06-.561-1.32-.825-2.939.2-3.988a9.127,9.127,0,0,1,1.981-1.2c2.047-1.2,2.971-3.509,3.334-5.728a18.4,18.4,0,0,0,.264-3c2.773-.9,6.5-2.189,6.9-1.979.594.27,6.371-.21,6.6-.24a8.278,8.278,0,0,0,4.06-4.258l.2-.54c-8.253-4.048-11.356-13.405-6.9-20.9s14.756-10.316,23.008-6.268c5.579,2.729,9.012,7.947,9.012,13.585Z" transform="translate(-338.71 -146.551)" opacity="0.1"/>
      <path id="Path_50" data-name="Path 50" d="M465.079,187.146c-.792,2.639-2.542,5.668-.726,7.827,1.287,1.5,4.027,2.039,4.39,3.9.3,1.5-1.155,2.729-1.749,4.138-1.386,3.359,2.245,6.688,2.806,10.256.594,3.869-2.509,7.377-3.1,11.246-.561,3.569.858,7.677-1.585,10.5a1.813,1.813,0,0,1-1.089.66c-1.585.15-1.32-2.429-2.575-3.3a9.291,9.291,0,0,1-.33,4.468,3.815,3.815,0,0,1-3.8,2.369l-.561-3.359a11.081,11.081,0,0,1-3.928,2.249,24.961,24.961,0,0,1,4.093-10.076c-4.159,1.829-6.569,5.758-8.748,9.447-1.353,2.309-2.74,4.828-2.278,7.437.2,1.05.693,2.039.792,3.119a2.536,2.536,0,0,1-1.386,2.7,2.661,2.661,0,0,1-2.839-.9,6.378,6.378,0,0,1-1.155-2.729c-1.122-4.468-2.179-9.087-1.353-13.615a23.07,23.07,0,0,0,.759-4.918c-.132-3.629-3.07-6.6-4.522-9.956-.561-1.32-.825-2.939.2-3.989a9.126,9.126,0,0,1,1.981-1.2,7.864,7.864,0,0,0,3.334-5.728,18.094,18.094,0,0,0-.231-7.167c-.825-3.539-2.74-6.957-2.245-10.556.462-3.509,3.1-6.418,4.919-9.566a20.911,20.911,0,0,0,2.542-13.225c-.3-2.1-.858-4.558.726-6.148,1.882-1.889,5.546-1.17,7.724-2.819a13.681,13.681,0,0,0,2.344-3.059A8.693,8.693,0,0,1,466.3,152.3c1.486.39,2.806,1.17,4.291,1.589a38.418,38.418,0,0,0,6.47.78c2.179.24,4.456.9,5.711,2.519.66.87.957,1.919,1.585,2.819,1.32,1.919,3.8,2.849,5.678,4.318a9.4,9.4,0,0,1,3.1,10.676c-1.122,2.849-3.73,5.368-3.5,8.367.1,1.23.66,2.459.5,3.689-.528,3.419-5.975,4.108-7.856,7.077a22.688,22.688,0,0,0-3.829-14.065c-2.344-3.3-9.507-9.057-14.459-7.467a3.307,3.307,0,0,0-2.146,2.1c-.5,1.679.924,2.4,1.849,3.719A10.6,10.6,0,0,1,465.079,187.146Z" transform="translate(-340.295 -106.443)" fill="#e52478"/>
      <g id="Group_1" data-name="Group 1" transform="translate(95.403 57.192)" opacity="0.2">
        <path id="Path_51" data-name="Path 51" d="M448.941,294.225a19.529,19.529,0,0,0-.462-4.588c-.693-3-2.179-5.938-2.311-8.937-.2,3.359,1.518,6.6,2.311,9.9A19.187,19.187,0,0,1,448.941,294.225Z" transform="translate(-442.686 -253.71)"/>
        <path id="Path_52" data-name="Path 52" d="M476.459,403.609c.3-.48.594-.96.891-1.409-4.159,1.829-6.569,5.758-8.748,9.446-1.254,2.129-2.542,4.468-2.344,6.837a14.426,14.426,0,0,1,2.344-5.878C470.616,409.217,472.861,405.589,476.459,403.609Z" transform="translate(-456.141 -338.774)"/>
        <path id="Path_53" data-name="Path 53" d="M454.624,444.786a2.289,2.289,0,0,1-1.386,1.889,2.715,2.715,0,0,1-2.839-.9,6.379,6.379,0,0,1-1.155-2.729,45,45,0,0,1-1.651-9.746,41.122,41.122,0,0,0,1.651,10.706,6.379,6.379,0,0,0,1.155,2.729,2.715,2.715,0,0,0,2.839.9,2.536,2.536,0,0,0,1.419-2.7A.249.249,0,0,1,454.624,444.786Z" transform="translate(-443.648 -360.547)"/>
        <path id="Path_54" data-name="Path 54" d="M522.035,258.4a8.953,8.953,0,0,1-.4,2.279c-.561,1.949-1.684,4.138-1.486,6a32.33,32.33,0,0,1,1.486-5.038A10.9,10.9,0,0,0,522.035,258.4Z" transform="translate(-492.243 -238.098)"/>
        <path id="Path_55" data-name="Path 55" d="M468.3,196.7a19.8,19.8,0,0,0-.2-3.419c-.132-.84-.264-1.709-.33-2.579a18.66,18.66,0,0,0,.33,3.569A14.522,14.522,0,0,1,468.3,196.7Z" transform="translate(-457.164 -190.7)"/>
        <path id="Path_56" data-name="Path 56" d="M531.607,308.19a.1.1,0,0,0-.033-.09c-.264,1.11-1.254,2.129-1.716,3.269a4.531,4.531,0,0,0-.3,2.1,3.437,3.437,0,0,1,.3-1.14C530.451,310.919,531.9,309.659,531.607,308.19Z" transform="translate(-498.547 -272.893)"/>
        <path id="Path_57" data-name="Path 57" d="M440.652,376.906c-.132-3.629-3.07-6.6-4.522-9.956a5.884,5.884,0,0,1-.462-1.649,5.059,5.059,0,0,0,.462,2.609c1.419,3.329,4.258,6.238,4.489,9.776A5.928,5.928,0,0,0,440.652,376.906Z" transform="translate(-435.651 -312.94)"/>
        <path id="Path_58" data-name="Path 58" d="M530.994,224.133c-2.377-3.3-9.507-9.057-14.459-7.467a3.307,3.307,0,0,0-2.146,2.1,1.913,1.913,0,0,0-.033,1.14,1.2,1.2,0,0,1,.033-.15,3.381,3.381,0,0,1,2.146-2.1c4.919-1.619,12.082,4.168,14.459,7.467a22.08,22.08,0,0,1,3.829,12.685A22.352,22.352,0,0,0,530.994,224.133Z" transform="translate(-488.328 -208.688)"/>
        <path id="Path_59" data-name="Path 59" d="M584.356,265.33c-.528,3.419-5.942,4.078-7.856,7.077v.99c1.882-3,7.328-3.689,7.856-7.077a5.26,5.26,0,0,0,0-1.02C584.389,265.3,584.389,265.33,584.356,265.33Z" transform="translate(-530.005 -242.928)"/>
        <path id="Path_60" data-name="Path 60" d="M602.37,219c-1.122,2.849-3.73,5.368-3.5,8.367v.12c.231-2.669,2.476-4.948,3.466-7.527a8.728,8.728,0,0,0,.594-3.659A8.759,8.759,0,0,1,602.37,219Z" transform="translate(-544.981 -208.623)"/>
        <path id="Path_61" data-name="Path 61" d="M517.264,414.5a1.814,1.814,0,0,1-1.089.66c-1.584.15-1.32-2.429-2.575-3.3.033.33.066.69.1,1.02,1.188.93.957,3.389,2.509,3.239a1.915,1.915,0,0,0,1.089-.66c1.419-1.619,1.551-3.629,1.518-5.758A7.305,7.305,0,0,1,517.264,414.5Z" transform="translate(-487.869 -344.025)"/>
        <path id="Path_62" data-name="Path 62" d="M495.786,426.829a3.775,3.775,0,0,1-3.8,2.369c-.2-1.11-.363-2.249-.561-3.359A10.772,10.772,0,0,1,487.7,428c-.066.33-.132.69-.2,1.02a10.647,10.647,0,0,0,3.928-2.249c.2,1.14.363,2.249.561,3.359a3.775,3.775,0,0,0,3.8-2.369,6.912,6.912,0,0,0,.429-3.059A5.734,5.734,0,0,1,495.786,426.829Z" transform="translate(-470.384 -354.526)"/>
        <path id="Path_63" data-name="Path 63" d="M529.308,367.946a15.12,15.12,0,0,0-.132,2.729,15.932,15.932,0,0,1,.132-1.769c.594-3.689,3.433-7.047,3.169-10.706C532.246,361.5,529.836,364.588,529.308,367.946Z" transform="translate(-498.295 -307.969)"/>
      </g>
      <path id="Path_64" data-name="Path 64" d="M826.461,561.2s-2.245,9.476,7.724,10.616l.627-1.05C834.813,570.736,827.088,564.139,826.461,561.2Z" transform="translate(-632.573 -392.9)" fill="#38d39f"/>
      <path id="Path_65" data-name="Path 65" d="M844.346,559.545l-2.311.45-.231.06S835.6,555.5,835.7,545.3a24.123,24.123,0,0,0,2.971,4.258C841.078,552.5,843.884,556.426,844.346,559.545Z" transform="translate(-639.827 -381.768)" fill="#38d39f"/>
      <path id="Path_66" data-name="Path 66" d="M853.073,552.343a1.649,1.649,0,0,1-1.254.15c-5.942-1.259-3.961-18.893-3.961-18.893.33.15.693,2.4,2.047,5.278C852.313,543.976,854.954,551.053,853.073,552.343Z" transform="translate(-648.335 -373.577)" fill="#38d39f"/>
      <path id="Path_67" data-name="Path 67" d="M883.6,561.2s.4,9.476-9.573,10.616l-.627-1.05C873.4,570.736,882.973,564.139,883.6,561.2Z" transform="translate(-669.053 -392.9)" fill="#38d39f"/>
      <path id="Path_68" data-name="Path 68" d="M874.3,545.3a17.309,17.309,0,0,1-7.956,14.754l-.231-.06-2.311-.45c.462-3.119,3.268-7.077,5.711-10.016A23.7,23.7,0,0,1,874.3,545.3Z" transform="translate(-661.769 -381.768)" fill="#38d39f"/>
      <path id="Path_69" data-name="Path 69" d="M863.174,551.413a3.636,3.636,0,0,1-1.321.93h0a3.115,3.115,0,0,1-.495.15c-1.453.3-1.981-.66-1.882-2.279.132-2.909,2.146-7.947,3.961-11.7a14.967,14.967,0,0,1,3.73-4.918C867.135,533.6,867.069,547.335,863.174,551.413Z" transform="translate(-657.805 -373.577)" fill="#38d39f"/>
      <path id="Path_70" data-name="Path 70" d="M858.989,512.9s-6.668,21.442-.924,24.651S860.475,514.819,858.989,512.9Z" transform="translate(-654.466 -359.084)" fill="#38d39f"/>
      <path id="Path_71" data-name="Path 71" d="M826.461,561.2s-2.245,9.476,7.724,10.616l.627-1.05C834.813,570.736,827.088,564.139,826.461,561.2Z" transform="translate(-632.573 -392.9)" opacity="0.1"/>
      <path id="Path_72" data-name="Path 72" d="M844.346,559.545l-2.311.45-.231.06S835.6,555.5,835.7,545.3a24.123,24.123,0,0,0,2.971,4.258C841.078,552.5,843.884,556.426,844.346,559.545Z" transform="translate(-639.827 -381.768)" opacity="0.1"/>
      <path id="Path_73" data-name="Path 73" d="M853.073,552.343a1.649,1.649,0,0,1-1.254.15c-5.942-1.259-3.961-18.893-3.961-18.893.33.15.693,2.4,2.047,5.278C852.313,543.976,854.954,551.053,853.073,552.343Z" transform="translate(-648.335 -373.577)" opacity="0.1"/>
      <path id="Path_74" data-name="Path 74" d="M883.6,561.2s.4,9.476-9.573,10.616l-.627-1.05C873.4,570.736,882.973,564.139,883.6,561.2Z" transform="translate(-669.053 -392.9)" opacity="0.1"/>
      <path id="Path_75" data-name="Path 75" d="M874.3,545.3a17.309,17.309,0,0,1-7.956,14.754l-.231-.06-2.311-.45c.462-3.119,3.268-7.077,5.711-10.016A23.7,23.7,0,0,1,874.3,545.3Z" transform="translate(-661.769 -381.768)" opacity="0.1"/>
      <path id="Path_76" data-name="Path 76" d="M863.174,551.413a3.636,3.636,0,0,1-1.321.93h0a3.115,3.115,0,0,1-.495.15c-1.453.3-1.981-.66-1.882-2.279.132-2.909,2.146-7.947,3.961-11.7a14.967,14.967,0,0,1,3.73-4.918C867.135,533.6,867.069,547.335,863.174,551.413Z" transform="translate(-657.805 -373.577)" opacity="0.1"/>
      <path id="Path_77" data-name="Path 77" d="M858.989,512.9s-6.668,21.442-.924,24.651S860.475,514.819,858.989,512.9Z" transform="translate(-654.466 -359.084)" opacity="0.1"/>
      <path id="Path_78" data-name="Path 78" d="M826.783,561.2s-1.32,9.476,8.649,10.616l.627-1.05C836.058,570.736,827.41,564.139,826.783,561.2Z" transform="translate(-633.11 -392.9)" fill="#38d39f"/>
      <path id="Path_79" data-name="Path 79" d="M845.271,559.545l-2.311.45-.231.06A17.557,17.557,0,0,1,835.7,545.3s1.815,1.769,3.9,4.258C842,552.5,844.809,556.426,845.271,559.545Z" transform="translate(-640.034 -381.768)" fill="#38d39f"/>
      <path id="Path_80" data-name="Path 80" d="M853.111,569.416l-2.311.45c-2.212-1.739-3.07-6.328-3.4-10.466C849.843,562.369,852.649,566.3,853.111,569.416Z" transform="translate(-648.125 -391.64)" opacity="0.1"/>
      <path id="Path_81" data-name="Path 81" d="M854.492,552.343a1.649,1.649,0,0,1-1.254.15c-5.942-1.259-4.886-18.893-4.886-18.893.33.15,1.617,2.4,2.971,5.278C853.766,543.976,856.407,551.053,854.492,552.343Z" transform="translate(-649.058 -373.577)" fill="#38d39f"/>
      <path id="Path_82" data-name="Path 82" d="M885.476,561.2s1.32,9.476-8.649,10.616l-.627-1.05C876.2,570.736,884.849,564.139,885.476,561.2Z" transform="translate(-670.993 -392.9)" fill="#38d39f"/>
      <path id="Path_83" data-name="Path 83" d="M876.173,545.3a17.649,17.649,0,0,1-7.031,14.754l-.231-.06-2.311-.45c.462-3.119,3.268-7.077,5.711-10.016C874.357,547.069,876.173,545.3,876.173,545.3Z" transform="translate(-663.698 -381.768)" fill="#38d39f"/>
      <path id="Path_84" data-name="Path 84" d="M872.211,559.4c-.3,3.839-1.089,8.1-2.971,10.076a2.533,2.533,0,0,1-.429.39l-2.311-.45C866.962,566.3,869.768,562.369,872.211,559.4Z" transform="translate(-662.732 -391.64)" opacity="0.1"/>
      <path id="Path_85" data-name="Path 85" d="M865.974,551.413a3.637,3.637,0,0,1-1.32.93h0a3.114,3.114,0,0,1-.5.15c-1.452.3-1.981-.66-1.882-2.279.132-2.909,2.146-7.947,3.961-11.7a22.34,22.34,0,0,1,2.806-4.918C869.011,533.6,869.869,547.335,865.974,551.413Z" transform="translate(-659.75 -373.577)" fill="#38d39f"/>
      <path id="Path_86" data-name="Path 86" d="M860.057,564.665a1.651,1.651,0,0,1-.924-.27c-2.806-1.59-2.872-7.527-2.179-13.2C859.331,556.3,861.972,563.375,860.057,564.665Z" transform="translate(-654.796 -385.899)" opacity="0.1"/>
      <path id="Path_87" data-name="Path 87" d="M866,562.9a1.411,1.411,0,0,1-1.32.93h0a1.757,1.757,0,0,1-.792-.27A3.913,3.913,0,0,1,862.3,561.7c.132-2.909,2.146-7.947,3.961-11.7C866.889,555.218,867.087,560.766,866,562.9Z" transform="translate(-659.24 -385.059)" opacity="0.1"/>
      <path id="Path_88" data-name="Path 88" d="M860.449,512.9s-5.711,21.442,0,24.651S861.935,514.819,860.449,512.9Z" transform="translate(-656.103 -359.084)" fill="#38d39f"/>
      <path id="Path_89" data-name="Path 89" d="M850.534,591.7H826.7v3.569h3.631l.1.42,1.453,6.957h13.865l1.452-6.957.1-.42h3.235Z" transform="translate(-636.444 -414.253)" fill="#d4dfec"/>
      <path id="Path_90" data-name="Path 90" d="M850.534,591.7H826.7v3.569h3.631l.1.42,1.453,6.957h13.831l1.485-6.957.066-.42h3.268Z" transform="translate(-636.444 -414.253)" opacity="0.1"/>
      <path id="Path_91" data-name="Path 91" d="M857.162,598.7l-.4,1.889-1.453,6.957H841.449L840,600.589l-.4-1.889Z" transform="translate(-644.866 -419.154)" fill="#d4dfec"/>
      <path id="Path_92" data-name="Path 92" d="M857.162,598.7l-.4,1.889H840l-.4-1.889Z" transform="translate(-644.866 -419.154)" opacity="0.1"/>
      <rect id="Rectangle_38" data-name="Rectangle 38" width="23.834" height="3.599" transform="translate(190.901 177.447)" fill="#d4dfec"/>
      <path id="Path_93" data-name="Path 93" d="M240.973,509.539a5.871,5.871,0,0,0-.792,1.379,1.97,1.97,0,0,1-.165.39l-.3-.09a4.342,4.342,0,0,0-1.254-.09,2.5,2.5,0,0,1,.033-.48c.066-1.709-.165-4.049-1.948-3.059-1.717.96-.5,2.579.627,3.6a2.08,2.08,0,0,0,.3.24c-.99.66-1.188,2.159-1.353,3.749s-1.651,3.3-2.608,4.288a2.015,2.015,0,0,0-.264.27,3.8,3.8,0,0,0-2.839-.66l-.132-.45c-.792-2.609-2.443-7.107-4.555-8.1l.264-.33c.891-1.05,1.882-2.639.429-3.029s-1.617,1.349-1.518,2.7c0,.15.033.33.033.48a2.283,2.283,0,0,0-1.551.69,1.558,1.558,0,0,0-.231-.24c-1.188-1.289-3.4-3.329-4.093-1.8-.627,1.44,1.32,3.3,2.674,4.408l.1.06c-.924,3.389,3.07,6.148,5.249,7.347.1.06.2.12.264.15-2.971,3.179-4.82,9.147-4.82,9.147l8.352,1.379s5.513-4.318,4.82-8.4h.066c5.513-.99,6.767-6.358,5.909-9.536l.1-.03a6.317,6.317,0,0,0,2.542-1.739C245.793,509.839,242.558,507.62,240.973,509.539Z" transform="translate(-168.739 -355.034)" fill="#38d39f"/>
      <path id="Path_94" data-name="Path 94" d="M240.973,509.539a5.871,5.871,0,0,0-.792,1.379,1.97,1.97,0,0,1-.165.39l-.3-.09a4.342,4.342,0,0,0-1.254-.09,2.5,2.5,0,0,1,.033-.48c.066-1.709-.165-4.049-1.948-3.059-1.717.96-.5,2.579.627,3.6a2.08,2.08,0,0,0,.3.24c-.99.66-1.188,2.159-1.353,3.749s-1.651,3.3-2.608,4.288a2.015,2.015,0,0,0-.264.27,3.8,3.8,0,0,0-2.839-.66l-.132-.45c-.792-2.609-2.443-7.107-4.555-8.1l.264-.33c.891-1.05,1.882-2.639.429-3.029s-1.617,1.349-1.518,2.7c0,.15.033.33.033.48a2.283,2.283,0,0,0-1.551.69,1.558,1.558,0,0,0-.231-.24c-1.188-1.289-3.4-3.329-4.093-1.8-.627,1.44,1.32,3.3,2.674,4.408l.1.06c-.924,3.389,3.07,6.148,5.249,7.347.1.06.2.12.264.15-2.971,3.179-4.82,9.147-4.82,9.147l8.352,1.379s5.513-4.318,4.82-8.4h.066c5.513-.99,6.767-6.358,5.909-9.536l.1-.03a6.317,6.317,0,0,0,2.542-1.739C245.793,509.839,242.558,507.62,240.973,509.539Z" transform="translate(-168.739 -355.034)" opacity="0.1"/>
      <path id="Path_95" data-name="Path 95" d="M225.34,514.826l-.99,2.579s-.528-.36-1.221-.9c-1.353-1.08-3.3-2.969-2.674-4.408.66-1.559,2.872.51,4.093,1.8C225.01,514.436,225.34,514.826,225.34,514.826Z" transform="translate(-168.546 -358.131)" fill="#38d39f"/>
      <path id="Path_96" data-name="Path 96" d="M239.4,510.4c-.3.36-.627.69-.957,1.02a9.412,9.412,0,0,1-.165-1.35c-.066-1.32.066-3.089,1.518-2.7S240.287,509.321,239.4,510.4Z" transform="translate(-182.083 -355.176)" fill="#38d39f"/>
      <path id="Path_97" data-name="Path 97" d="M274,511.213c-.033.84-.132,1.529-.132,1.529a12.235,12.235,0,0,1-1.221-.99c-1.089-1.05-2.311-2.639-.627-3.6C273.83,507.165,274.061,509.534,274,511.213Z" transform="translate(-207.27 -355.598)" fill="#38d39f"/>
      <path id="Path_98" data-name="Path 98" d="M287.855,515.672a6.033,6.033,0,0,1-2.542,1.739,4.024,4.024,0,0,1-.858.27l-1.155-1.469a10.194,10.194,0,0,1,.462-1.41,5.872,5.872,0,0,1,.792-1.379C286.172,511.533,289.407,513.752,287.855,515.672Z" transform="translate(-216.684 -358.947)" fill="#38d39f"/>
      <path id="Path_99" data-name="Path 99" d="M230.119,519.4a11.122,11.122,0,0,1,.792.9l-.99,2.579s-.528-.36-1.221-.9a4.972,4.972,0,0,1,1.089-2.279A1.5,1.5,0,0,0,230.119,519.4Z" transform="translate(-174.777 -363.635)" opacity="0.1"/>
      <path id="Path_100" data-name="Path 100" d="M239.422,516.819c-.3.36-.627.69-.957,1.02a9.412,9.412,0,0,1-.165-1.349A1.7,1.7,0,0,1,239.422,516.819Z" transform="translate(-182.043 -361.594)" opacity="0.1"/>
      <path id="Path_101" data-name="Path 101" d="M237.792,528.124l-2.41.96c-.429-.21-.858-.42-1.287-.66-2.542-1.409-7.658-5.008-4.225-9.207s6.305,3.359,7.427,7.047C237.594,527.374,237.792,528.124,237.792,528.124Z" transform="translate(-175.206 -362.643)" fill="#38d39f"/>
      <path id="Path_102" data-name="Path 102" d="M275.7,519.44a1.976,1.976,0,0,1,1.32-.54c-.033.84-.132,1.529-.132,1.529A11.849,11.849,0,0,1,275.7,519.44Z" transform="translate(-210.613 -363.285)" opacity="0.1"/>
      <path id="Path_103" data-name="Path 103" d="M285.314,522.409a4.035,4.035,0,0,1-.858.27l-1.155-1.47a10.189,10.189,0,0,1,.462-1.409A3.6,3.6,0,0,1,285.314,522.409Z" transform="translate(-216.467 -363.915)" opacity="0.1"/>
      <path id="Path_104" data-name="Path 104" d="M261.342,532.4a1.815,1.815,0,0,1-.4.06c-8.121,1.11-2.674-2.849-2.674-2.849s.363-.3.858-.81c.99-.99,2.443-2.7,2.608-4.288.264-2.4.561-4.648,3.664-3.988C268.439,521.188,269.033,530.994,261.342,532.4Z" transform="translate(-196.596 -364.343)" fill="#38d39f"/>
      <rect id="Rectangle_39" data-name="Rectangle 39" width="15.515" height="3.689" transform="translate(51.969 186.413)" fill="#d4dfec"/>
      <rect id="Rectangle_40" data-name="Rectangle 40" width="20.269" height="12.925" transform="translate(49.934 174.358)" fill="#d4dfec"/>
      <rect id="Rectangle_41" data-name="Rectangle 41" width="15.515" height="3.689" transform="translate(51.969 186.413)" opacity="0.1"/>
      <rect id="Rectangle_42" data-name="Rectangle 42" width="20.269" height="12.925" transform="translate(49.934 174.358)" opacity="0.1"/>
      <rect id="Rectangle_43" data-name="Rectangle 43" width="15.515" height="3.689" transform="translate(52.666 186.413)" fill="#d4dfec"/>
      <path id="Path_105" data-name="Path 105" d="M248.169,545.6c.33,1.11.528,1.859.528,1.859l-2.41.96c-.429-.21-.858-.42-1.287-.66A6.086,6.086,0,0,1,248.169,545.6Z" transform="translate(-187.321 -381.978)" opacity="0.1"/>
      <path id="Path_106" data-name="Path 106" d="M261.342,552a1.815,1.815,0,0,1-.4.06c-8.121,1.109-2.674-2.849-2.674-2.849s.363-.3.858-.81A4.762,4.762,0,0,1,261.342,552Z" transform="translate(-196.175 -383.938)" opacity="0.1"/>
      <path id="Path_107" data-name="Path 107" d="M231.2,557.989s4.555-14.784,10.927-10.226-2.608,11.576-2.608,11.576Z" transform="translate(-177.363 -382.881)" fill="#38d39f"/>
      <ellipse id="Ellipse_15" data-name="Ellipse 15" cx="0.495" cy="0.45" rx="0.495" ry="0.45" transform="translate(55.887 158.434)" opacity="0.1"/>
      <ellipse id="Ellipse_16" data-name="Ellipse 16" cx="0.495" cy="0.45" rx="0.495" ry="0.45" transform="translate(55.84 160.593)" opacity="0.1"/>
      <ellipse id="Ellipse_17" data-name="Ellipse 17" cx="0.495" cy="0.45" rx="0.495" ry="0.45" transform="translate(66.435 158.854)" opacity="0.1"/>
      <ellipse id="Ellipse_18" data-name="Ellipse 18" cx="0.495" cy="0.45" rx="0.495" ry="0.45" transform="translate(57.921 169.95)" opacity="0.1"/>
      <ellipse id="Ellipse_19" data-name="Ellipse 19" cx="0.495" cy="0.45" rx="0.495" ry="0.45" transform="translate(65.678 162.452)" opacity="0.1"/>
      <ellipse id="Ellipse_20" data-name="Ellipse 20" cx="0.495" cy="0.45" rx="0.495" ry="0.45" transform="translate(61.918 167.251)" opacity="0.1"/>
      <ellipse id="Ellipse_21" data-name="Ellipse 21" cx="0.495" cy="0.45" rx="0.495" ry="0.45" transform="translate(57.14 159.363)" opacity="0.1"/>
      <ellipse id="Ellipse_22" data-name="Ellipse 22" cx="0.495" cy="0.45" rx="0.495" ry="0.45" transform="translate(65.441 160.263)" opacity="0.1"/>
      <ellipse id="Ellipse_23" data-name="Ellipse 23" cx="0.495" cy="0.45" rx="0.495" ry="0.45" transform="translate(64.188 163.832)" opacity="0.1"/>
      <path id="Path_413" data-name="Path 413" d="M.448,0A.482.482,0,0,1,.9.5.466.466,0,0,1,.454.991.482.482,0,0,1,0,.492.466.466,0,0,1,.448,0Z" transform="translate(60.329 170.454) rotate(-85.935)" opacity="0.1"/>
      <ellipse id="Ellipse_25" data-name="Ellipse 25" cx="0.495" cy="0.45" rx="0.495" ry="0.45" transform="translate(59.553 167.311)" opacity="0.1"/>
      <ellipse id="Ellipse_26" data-name="Ellipse 26" cx="0.495" cy="0.45" rx="0.495" ry="0.45" transform="translate(57.684 162.182)" opacity="0.1"/>
      <rect id="Rectangle_44" data-name="Rectangle 44" width="15.515" height="1.349" transform="translate(52.666 186.413)" opacity="0.1"/>
      <rect id="Rectangle_45" data-name="Rectangle 45" width="20.269" height="12.925" transform="translate(50.651 174.358)" fill="#d4dfec"/>
      <ellipse id="Ellipse_27" data-name="Ellipse 27" cx="0.495" cy="0.45" rx="0.495" ry="0.45" transform="translate(60.853 171.689)" opacity="0.1"/>
      <ellipse id="Ellipse_28" data-name="Ellipse 28" cx="0.495" cy="0.45" rx="0.495" ry="0.45" transform="translate(58.654 172.259)" opacity="0.1"/>
    </g>
  </g>
</svg>
